<?xml version="1.0" encoding="utf-8"?>
<!-- Generator: Adobe Illustrator 25.3.1, SVG Export Plug-In . SVG Version: 6.00 Build 0)  -->
<svg version="1.1" id="Слой_1" xmlns="http://www.w3.org/2000/svg" xmlns:xlink="http://www.w3.org/1999/xlink" x="0px" y="0px"
	 viewBox="0 0 3062.9 2731.2" style="enable-background:new 0 0 3062.9 2731.2;" xml:space="preserve">
<style type="text/css">
	.st0{fill:none;stroke:#000000;stroke-width:5;stroke-miterlimit:10;}
	.st1{fill:#FFFFFF;stroke:#000000;stroke-width:5;stroke-miterlimit:10;}
	.st2{fill:#21409A;stroke:#000000;stroke-width:5;stroke-miterlimit:10;}
	.st3{fill:none;stroke:#000000;stroke-width:5;stroke-linecap:round;stroke-miterlimit:10;}
	.st4{fill:none;stroke:#000000;stroke-width:5;stroke-miterlimit:9.9999;}
	.st5{fill:#FFFFFF;stroke:#000000;stroke-width:2;stroke-miterlimit:10;}
	.st6{fill:#D6A5B0;stroke:#000000;stroke-width:5;stroke-miterlimit:10;}
	.st7{fill:#21409A;stroke:#000000;stroke-width:2;stroke-miterlimit:10;}
	.st8{fill:#E57281;stroke:#000000;stroke-width:5;stroke-linecap:round;stroke-miterlimit:10;}
	.st9{fill:#E57281;stroke:#000000;stroke-width:5;stroke-miterlimit:10;}
	.st10{fill:#FFFFFF;stroke:#000000;stroke-width:4;stroke-miterlimit:10;}
</style>
<g id="FLOOR">
	<line class="st0" x1="2960.5" y1="2675.1" x2="1.1" y2="2675.1"/>
	<line class="st0" x1="259.6" y1="2728.7" x2="1954.3" y2="2728.7"/>
</g>
<g id="TABLE">
	<path class="st0" d="M2808,2010h-473.3c-22.4,0-40.6,18.2-40.6,40.6v624.5h554.4v-624.5c0.1-22.4-18-40.5-40.4-40.6l0,0L2808,2010z
		"/>
	<rect x="2230.3" y="1308.4" class="st1" width="683" height="1366.6"/>
	<polygon class="st1" points="2931.2,1137.3 588.9,1137.3 588.9,1308.4 3062.9,1308.4 3062.9,1137.3 	"/>
	<path class="st0" d="M2808,1629.6h-472.4c-22.4,0-40.6-18.2-40.6-40.6v-166.8c0-22.4,18.2-40.6,40.6-40.6H2808
		c22.4,0,40.6,18.2,40.6,40.6v166.9C2848.6,1611.5,2830.4,1629.6,2808,1629.6L2808,1629.6L2808,1629.6z"/>
	<path class="st0" d="M2808,1931.6h-472.4c-22.4,0-40.6-18.2-40.6-40.6v-166.8c0-22.4,18.2-40.6,40.6-40.6H2808
		c22.4,0,40.6,18.2,40.6,40.6V1891C2848.6,1913.4,2830.4,1931.6,2808,1931.6z"/>
	<circle class="st0" cx="2573.4" cy="1503.5" r="32.5"/>
	<circle class="st0" cx="2573.4" cy="1806.4" r="32.5"/>
	<path class="st0" d="M2808,2010h-473.3c-22.4,0-40.6,18.2-40.6,40.6v624.5h554.4v-624.5c0.1-22.4-18-40.5-40.4-40.6l0,0L2808,2010z
		"/>
</g>
<g id="BACKET">
	<polygon class="st0" points="2776.3,2218 2775.6,2222.3 2775.3,2224.8 2764.9,2291.1 2764.9,2291.1 2763.8,2298.2 2763.8,2298.2 
		2759.1,2328.4 2757.4,2339 2757.4,2339 2753,2367 2751.9,2374.1 2741.2,2442.7 2741.2,2443 2740.1,2450.1 2739.5,2453.3 
		2729.3,2518.9 2728.2,2526 2728.2,2526 2723.4,2556.9 2723.4,2557 2721.7,2567.6 2717.4,2594.8 2717.4,2594.8 2716.3,2601.9 
		2705.6,2670.8 2705.5,2671.2 2705.5,2671.2 2705,2674.4 2704.9,2675.1 2423.9,2675.1 2423.8,2674.3 2423.3,2671.5 2423.2,2670.6 
		2423.2,2670.6 2412.4,2601.8 2411.3,2594.6 2407.1,2567.9 2405.5,2557.2 2400.6,2525.8 2399.5,2518.7 2389.3,2453.6 2388.7,2449.9 
		2387.6,2442.9 2387.6,2442.8 2376.8,2373.9 2375.7,2366.8 2371.4,2339.3 2369.8,2328.7 2365,2298 2363.9,2290.9 2353.6,2225.1 
		2352.5,2218 	"/>
	<path class="st0" d="M2707.6,2678.2h-286.4l-1.2-7.4l-71.2-455.9h431.1L2707.6,2678.2z M2426.5,2672h275.7l70.4-450.8H2356
		L2426.5,2672z"/>
	<path class="st0" d="M2780,2217.7c0.2,0,0.2,0.1,0.2,0.3c0,1.5-0.2,2.9-0.7,4.3c-3.4,10.5-19,20.2-43.5,28.2
		c-1.8,0.6-3.6,1.1-5.4,1.7c-18.4,5.3-37.1,9.3-56,11.9l-6.1,0.9c-18.8,2.6-39.3,4.5-61,5.6l-6.5,0.3c-11.9,0.5-24.2,0.8-36.7,0.8
		c-9.6,0-19.1-0.2-28.4-0.5l-6.9-0.3c-25-1-48.6-3.1-70-6.1c-2.6-0.4-5.1-0.7-7.6-1.1c-36.3-5.5-65.5-13.6-83.4-23.3
		c-10.4-5.6-16.9-11.7-19-18.1l-0.6-4.2"/>
	<path class="st0" d="M2705.7,2670.9v4l-0.7-0.5l-0.1,0.6h-2.6l-31.9-41.2l-3.3-4.3l-32.1-41.4l-3.3-4.3l-32.1-41.4l-3.3-4.3
		l-32.1-41.4l-3.3-4.3l-32.1-41.4l-3.3-4.3l-32-41.4l-3.3-4.3l-32.1-41.4l-3.3-4.3l-32-41.4l-3.3-4.3l-32-41.4l-3.3-4.3l-30.7-39.6
		l-0.5-2.9c2,6.3,8.4,12.3,18.6,17.8l15.8,20.4l3.3,4.3l32.1,41.4l3.3,4.3l32.1,41.4l3.3,4.3l32.1,41.4l3.3,4.3l32.1,41.4l3.3,4.3
		l32.1,41.4l3.3,4.3l32.1,41.4l3.3,4.3l32.1,41.4l3.3,4.3l32.1,41.4l3.3,4.3l31.9,41.2L2705.7,2670.9z"/>
	<path class="st0" d="M2717.4,2594.8L2717.4,2594.8l-1.1,7.1l-10.6-13.7l-3.3-4.3l-32.1-41.4l-3.3-4.3l-32.1-41.4l-3.3-4.3
		l-32.1-41.4l-3.3-4.3l-32.1-41.4l-3.3-4.3l-31.8-41l-3.3-4.3l-32.1-41.4l-3.3-4.3l-32.1-41.4l-3.3-4.3l-1.4-1.8
		c2.4,0.4,4.9,0.7,7.4,1.1l0.5,0.7l32.1,41.4l3.3,4.3l32.1,41.4l3.3,4.3l32.1,41.4l3.3,4.3l32.1,41.4l3.3,4.3l32.1,41.4l3.3,4.3
		l32.1,41.4l3.3,4.3l32.1,41.4l3.3,4.3L2717.4,2594.8z"/>
	<path class="st0" d="M2729.3,2518.9l-1.1,7.1l-22.5-29l-3.3-4.3l-32.1-41.4l-3.3-4.3l-32.1-41.4l-3.3-4.3l-32.1-41.4l-3.3-4.3
		l-32.1-41.4l-3.3-4.3l-31.3-40.4l6.8,0.3l27.8,35.8l3.3,4.3l32.1,41.4l3.3,4.3l32.1,41.4l3.3,4.3l32.1,41.4l3.3,4.3l32.1,41.4
		l3.3,4.3L2729.3,2518.9z"/>
	<path class="st0" d="M2741.2,2443l-1.1,7.1l-2.3-3l-32.1-41.4l-3.3-4.3l-32.1-41.4l-3.3-4.3l-32.1-41.4l-3.3-4.3l-31.3-40.4
		l6.4-0.3l28.2,36.4l3.3,4.3l32.1,41.4l3.3,4.3l32.1,41.4l3.3,4.3l32.1,41.4L2741.2,2443z"/>
	<polygon class="st0" points="2495.6,2673.5 2493.6,2675 2493.5,2675.1 2490.2,2675.1 2458.2,2633.9 2454.9,2629.6 2422.9,2588.2 
		2419.6,2584 2407.1,2567.9 2405.5,2557.2 2422.9,2579.7 2426.2,2584 2458.2,2625.3 2461.5,2629.6 2493.6,2671 	"/>
	<polygon class="st0" points="2424.8,2673.5 2423.8,2674.3 2423.3,2671.5 	"/>
	<polygon class="st0" points="2566.3,2673.5 2564.3,2675 2564.2,2675.1 2560.9,2675.1 2529,2633.9 2525.7,2629.6 2493.6,2588.2 
		2490.3,2584 2458.2,2542.6 2454.9,2538.4 2454.9,2538.3 2422.9,2497 2419.6,2492.7 2389.3,2453.6 2388.7,2449.9 2387.6,2442.9 
		2390.8,2447.1 2422.9,2488.5 2426.2,2492.7 2458.2,2534.1 2461.5,2538.4 2493.6,2579.7 2496.9,2584 2529,2625.3 2532.3,2629.6 
		2564.3,2671 	"/>
	<polygon class="st0" points="2637,2673.5 2635,2675 2634.9,2675.1 2631.6,2675.1 2599.7,2633.9 2596.4,2629.6 2564.3,2588.2 
		2561,2584 2529,2542.6 2525.7,2538.4 2493.6,2497 2490.3,2492.7 2458.2,2451.4 2454.9,2447.1 2422.9,2405.7 2419.6,2401.5 
		2387.5,2360.1 2384.2,2355.9 2371.4,2339.3 2369.8,2328.7 2387.5,2351.6 2390.8,2355.9 2422.9,2397.2 2426.2,2401.5 2458.2,2442.8 
		2461.5,2447.1 2493.6,2488.5 2496.9,2492.7 2529,2534.1 2532.3,2538.4 2564.3,2579.7 2567.6,2584 2599.7,2625.3 2603,2629.6 
		2635,2671 	"/>
	<path class="st0" d="M2753,2367l-1.1,7.1l-10.8-14l-3.3-4.3l-32.1-41.4l-3.3-4.3l-32.1-41.4l-3.3-4.3l-0.4-0.5c2-0.3,4-0.6,5.9-0.9
		l1.1,1.4l32.1,41.4l3.3,4.3l32.1,41.4l3.3,4.3L2753,2367z"/>
	<path class="st0" d="M2764.9,2291.1L2764.9,2291.1l-1.1,7.1l-22.7-29.3l-3.3-4.3l-10.1-13.1c1.8-0.5,3.6-1.1,5.3-1.7l8.1,10.5
		l3.3,4.3L2764.9,2291.1z"/>
	<path class="st0" d="M2779.2,2219.6l-2.8,3.6l-0.8-1l0,0c0.5-1.3,0.7-2.8,0.7-4.2v-0.5l0.1-0.1L2779.2,2219.6z"/>
	<polygon class="st0" points="2759.1,2328.4 2757.4,2339 2757.4,2339 2744.4,2355.9 2741.1,2360.1 2709,2401.5 2705.7,2405.7 
		2673.7,2447.1 2670.4,2451.4 2638.3,2492.7 2635,2497 2603,2538.4 2599.7,2542.6 2567.6,2584 2564.3,2588.2 2532.3,2629.6 
		2529,2633.9 2497,2675.1 2493.7,2675.1 2493.6,2675 2491.7,2673.5 2493.6,2671 2525.7,2629.6 2529,2625.3 2561,2584 2564.3,2579.7 
		2596.4,2538.4 2599.7,2534.1 2631.7,2492.7 2635,2488.5 2667.1,2447.1 2670.4,2442.8 2702.4,2401.5 2705.7,2397.2 2737.8,2355.9 
		2741.1,2351.6 	"/>
	<path class="st0" d="M2775.3,2224.8l-30.9,39.9l-3.3,4.3l-32.1,41.4l-3.3,4.3l-32.1,41.4l-3.3,4.3l-32.1,41.4l-3.3,4.3l-31.9,41
		l-3.3,4.3l-32.1,41.4l-3.3,4.3l-32.1,41.4l-3.3,4.3l-32.1,41.4l-3.3,4.3l-32.1,41.4l-3.3,4.3l-31.9,41.2h-2.4l-0.1-0.8l-0.4-2.8
		l-0.4-0.5l0.3-0.4l0,0l31.8-41l3.3-4.3l32.1-41.4l3.3-4.3l32.1-41.4l3.3-4.3l32.1-41.4l3.3-4.3l32.1-41.4l3.3-4.3l32.1-41.4
		l3.3-4.3l32.1-41.4l3.3-4.3l32.1-41.4l3.3-4.3l32-41.4l3.3-4.3l15.7-20.3c10.3-5.5,16.8-11.5,18.9-17.9L2775.3,2224.8z"/>
	<path class="st0" d="M2675,2262.9l-1.4,1.8l-3.3,4.3l-32.1,41.4l-3.3,4.3l-32.1,41.4l-3.3,4.3l-32.1,41.4l-3.3,4.3l-32.1,41.4
		l-3.3,4.3l-32.1,41.4l-3.3,4.3l-32.1,41.4l-3.3,4.3l-32.1,41.4l-3.3,4.3l-10.5,13.5l-1.1-7.1l8.3-10.7l3.3-4.3l32-41.4l0,0l3.3-4.3
		l32.1-41.4l3.3-4.3l32-41.4l3.3-4.3l32.1-41.4l3.3-4.3l32.1-41.4l3.3-4.3l32.1-41.4l3.3-4.3l32.1-41.4l0.5-0.7
		c1.7-0.2,3.4-0.5,5-0.7C2673.4,2263.1,2674.2,2263,2675,2262.9z"/>
	<path class="st0" d="M2598.9,2269.9l-31.3,40.3l-3.3,4.3l-32.1,41.4l-3.3,4.3l-32.1,41.4l-3.3,4.3l-32.1,41.4l-3.3,4.3L2426,2493
		l-3.3,4.3l-22.3,28.8l-1.1-7.1l20.1-26l3.3-4.3l32.1-41.4l3.3-4.3l32.1-41.4l3.3-4.3l32.1-41.4l3.3-4.3l32.1-41.4l3.3-4.3
		l27.8-35.8C2594.3,2270.1,2596.6,2270,2598.9,2269.9z"/>
	<polygon class="st0" points="2723.4,2557 2721.7,2567.6 2709,2584 2705.7,2588.2 2673.7,2629.6 2670.4,2633.9 2638.4,2675.1 
		2635.1,2675.1 2635,2675 2633.1,2673.5 2635,2671 2667.1,2629.6 2670.4,2625.3 2702.4,2584 2705.7,2579.7 	"/>
	<polygon class="st0" points="2739.5,2453.3 2709,2492.7 2705.7,2497 2673.7,2538.4 2670.4,2542.6 2638.3,2584 2635,2588.2 
		2603,2629.6 2599.7,2633.9 2567.7,2675.1 2564.4,2675.1 2564.3,2675 2562.4,2673.5 2564.3,2671 2596.4,2629.6 2599.7,2625.3 
		2631.7,2584 2635,2579.7 2667.1,2538.4 2670.4,2534.1 2702.4,2492.7 2705.7,2488.5 2737.8,2447.1 2741.1,2442.8 2741.2,2442.7 
		2741.2,2443 2740.1,2450.1 	"/>
	<path class="st0" d="M2528.2,2269.8l-31.3,40.4l-3.3,4.3l-32.1,41.4l-3.3,4.3l-32.1,41.4l-3.3,4.3l-32.1,41.4l-2.1,2.8l-1.1-6.9
		l-0.1-0.1l0.1-0.1l32-41.3l3.3-4.3l32-41.4l3.3-4.3l32.1-41.4l3.3-4.3l28.2-36.4C2524,2269.6,2526.1,2269.7,2528.2,2269.8z"/>
	<path class="st0" d="M2462,2264.1l-0.4,0.6l-3.3,4.3l-32.1,41.4l-3.3,4.3l-32.1,41.4l-3.3,4.3l-10.7,13.8l-1.1-7.1l8.5-11l3.3-4.3
		l32-41.4l3.3-4.3l32.1-41.4l1.1-1.4c1.6,0.2,3.3,0.5,5,0.7L2462,2264.1z"/>
	<path class="st0" d="M2401,2251.5l-10.2,13.1l-3.3,4.3l-22.6,29.1l-1.1-7.1l20.4-26.3l3.3-4.3l8.2-10.5
		C2397.4,2250.4,2399.2,2251,2401,2251.5z"/>
	<path class="st2" d="M2796.9,2159.3h-92.3v-28.1h56C2777.7,2131.2,2792.6,2142.8,2796.9,2159.3z"/>
	<path class="st2" d="M2761.2,2131.2c-26.2,0.3-49.1,17.8-56.1,43.1l-21.3,77.3c-3,0.5-6.1,1-9.2,1.4l-6.1,0.9
		c-18.8,2.6-39.3,4.5-61,5.6l-6.5,0.3c-11.9,0.5-24.2,0.8-36.7,0.8c-9.6,0-19.1-0.2-28.4-0.5l-6.9-0.3c-0.9,0-1.8-0.1-2.7-0.1
		l23.6-85.4c7-25.5,30.2-43.1,56.7-43.1H2761.2z"/>
</g>
<g id="LAMP">
	<path class="st0" d="M2500.5,384.8c0-28,22.7-50.7,50.7-50.7h29.3c28,0,50.7,22.7,50.7,50.7v656.1"/>
	<path class="st2" d="M2699.3,1115.9v20.3h-213.8v-20.3c0-41.4,33.6-75,75-75h63.7c1,0,2.1,0,3.1,0.1
		C2667.5,1042.6,2699.3,1075.6,2699.3,1115.9z"/>
	<path class="st2" d="M2746.8,467.7h-494.7v-15.5c0-37.1,30-67.1,67.1-67.1h360.5c37.1,0,67.1,30,67.1,67.1L2746.8,467.7
		L2746.8,467.7z"/>
	<line class="st3" x1="2746.8" y1="455.3" x2="2252.1" y2="455.3"/>
	<path class="st2" d="M2695.1,467.7c0,17.7-11,32.1-24.7,32.1h-346.2c-13.6,0-24.7-14.4-24.7-32.1H2695.1z"/>
	<path class="st2" d="M2631.2,1060.5c0,32.1-29.3,58.2-65.4,58.2c-32.5,0-59.5-21.1-64.5-48.8c14.2-18.3,36-29,59.2-29h63.7
		c1,0,2.1,0,3.1,0.1C2629.9,1047.2,2631.2,1053.8,2631.2,1060.5z"/>
	<path class="st2" d="M2567.6,1027.2v31.4c0,6.4-5.9,11.6-13.1,11.6s-13.1-5.2-13.1-11.6v-31.4h0.2c1.2,5.5,6.5,9.7,12.8,9.7
		s11.6-4.2,12.8-9.7H2567.6z"/>
	<path class="st2" d="M2564.8,1026.1c0,0.7-0.1,1.4-0.2,2.1c-0.8,5-5.1,8.7-10.2,8.7c-5-0.1-9.3-3.7-10.2-8.7
		c-0.1-0.7-0.2-1.4-0.2-2.1c-0.1-5.8,4.5-10.7,10.3-10.8l0,0h0.1C2560.2,1015.5,2564.9,1020.3,2564.8,1026.1z"/>
</g>
<g id="BOOKS">
	<rect x="2190" y="681.5" class="st0" width="34.2" height="455.8"/>
	<path class="st2" d="M2175.7,1137.3h-58.6c-6.2,0-11.2-5-11.2-11.2V787.3c0-6.2,5-11.2,11.2-11.2h58.6c6.2,0,11.2,5,11.2,11.2
		v338.9C2186.9,1132.3,2181.9,1137.3,2175.7,1137.3L2175.7,1137.3z"/>
	<path class="st2" d="M2364.2,1130h-67.3c-4.9,0-9.1-3.5-10-8.3l-60.4-313.8c-1.1-5.5,2.5-10.9,8.1-11.9c0.6-0.1,1.3-0.2,1.9-0.2
		h67.3c4.9,0,9.1,3.5,10,8.3l60.4,313.8c1.1,5.5-2.5,10.9-8.1,11.9C2365.5,1129.9,2364.9,1130,2364.2,1130z"/>
	<path class="st0" d="M2092.5,1137.3h-317c-7.4,0-13.4-6-13.4-13.4l0,0V1059c0-7.4,6-13.4,13.4-13.4l0,0h317c7.4,0,13.4,6,13.4,13.4
		v64.9C2105.9,1131.3,2099.9,1137.3,2092.5,1137.3z"/>
</g>
<g id="NOTES">
	<path class="st1" d="M905.4,24.9v206.8c0,40.5-32.9,73.4-73.4,73.4H602.7c40.5,0,73.4-32.8,73.4-73.4l0,0V24.9H905.4z"/>
	<rect x="781" y="4.9" class="st0" width="18.5" height="44.1"/>
	<path class="st0" d="M838.7,103.5c-2.7,0-5.3-1.1-7.3-2.9l-7.7-6.8c-2.3-2.1-5.7-2.1-8,0l-7.3,6.5c-4.2,3.8-10.5,3.8-14.7,0
		l-6.7-5.9c-2.3-2.1-5.7-2.1-8,0l-6.2,5.5c-4.2,3.8-10.5,3.8-14.7,0l-5.1-4.5c-2.3-2.1-5.7-2.1-8,0l-5.5,4.9
		c-4.2,3.8-10.5,3.8-14.7,0l-5.1-4.5c-2.3-2.1-5.7-2.1-8,0c-1,0.9-2.6,0.7-3.5-0.3c-0.8-1-0.8-2.5,0.2-3.4c4.2-3.8,10.5-3.8,14.7,0
		l5.1,4.5c2.3,2.1,5.7,2.1,8,0l5.5-4.9c4.2-3.8,10.5-3.8,14.7,0l5.1,4.5c2.3,2.1,5.7,2.1,8,0l6.2-5.5c4.2-3.8,10.5-3.8,14.7,0
		l6.7,5.9c2.3,2.1,5.7,2.1,8,0l7.3-6.5c4.2-3.8,10.5-3.8,14.7,0l7.7,6.8c2.3,2.1,5.7,2.1,8,0l8-7.1c4.2-3.8,10.5-3.8,14.7,0
		c1,0.9,1.2,2.4,0.3,3.5c-0.9,1-2.4,1.2-3.5,0.3l0,0l-0.1-0.1c-2.3-2.1-5.7-2.1-8,0l-8,7.1C844.1,102.4,841.5,103.4,838.7,103.5z"/>
	<path class="st0" d="M838.7,144.6c-2.7,0-5.3-1.1-7.3-2.9l-7.7-6.8c-2.3-2.1-5.7-2.1-8,0l-7.3,6.5c-4.2,3.8-10.5,3.8-14.7,0
		l-6.7-5.9c-2.3-2.1-5.7-2.1-8,0l-6.2,5.5c-4.2,3.8-10.5,3.8-14.7,0l-5.1-4.5c-2.3-2.1-5.7-2.1-8,0l-5.5,4.9
		c-4.2,3.8-10.5,3.8-14.7,0l-5.1-4.5c-2.3-2.1-5.7-2.1-8,0c-1,1-2.5,1-3.5,0s-1-2.5,0-3.5l0.1-0.1l0.1-0.1c4.2-3.8,10.5-3.8,14.7,0
		l5.1,4.5c2.3,2.1,5.7,2.1,8,0l5.5-4.9c4.2-3.8,10.5-3.8,14.7,0l5.1,4.5c2.3,2.1,5.7,2.1,8,0l6.2-5.5c4.2-3.8,10.5-3.8,14.7,0
		l6.7,5.9c2.3,2.1,5.7,2.1,8,0l7.3-6.5c4.2-3.8,10.5-3.8,14.7,0l7.7,6.8c2.3,2.1,5.7,2.1,8,0l8-7.1c4.2-3.8,10.5-3.8,14.7,0
		c1,0.9,1.2,2.4,0.3,3.5c-0.9,1-2.4,1.2-3.5,0.3l0,0l-0.1-0.1c-2.3-2.1-5.7-2.1-8,0l-8,7.1C844.1,143.5,841.5,144.6,838.7,144.6z"/>
	<path class="st0" d="M838.7,185.7c-2.7,0-5.3-1.1-7.3-2.9l-7.7-6.8c-2.3-2.1-5.7-2.1-8,0l-7.3,6.5c-4.2,3.8-10.5,3.8-14.7,0
		l-6.7-5.9c-2.3-2.1-5.7-2.1-8,0l-6.2,5.5c-4.2,3.8-10.5,3.8-14.7,0l-5.1-4.5c-2.3-2.1-5.7-2.1-8,0l-5.5,4.9
		c-4.2,3.8-10.5,3.8-14.7,0l-5.1-4.5c-2.3-2.1-5.7-2.1-8,0c-1,1-2.5,1-3.5,0s-1-2.5,0-3.5l0.1-0.1l0.1-0.1c4.2-3.8,10.5-3.8,14.7,0
		l5.1,4.5c2.3,2.1,5.7,2.1,8,0l5.5-4.9c4.2-3.8,10.5-3.8,14.7,0l5.1,4.5c2.3,2.1,5.7,2.1,8,0l6.2-5.5c4.2-3.8,10.5-3.8,14.7,0
		l6.7,5.9c2.3,2.1,5.7,2.1,8,0l7.3-6.5c4.2-3.8,10.5-3.8,14.7,0l7.7,6.8c2.3,2.1,5.7,2.1,8,0l8-7.1c4.2-3.8,10.5-3.8,14.7,0
		c1,0.9,1.2,2.4,0.3,3.5c-0.9,1-2.4,1.2-3.5,0.3l0,0l-0.1-0.1c-2.3-2.1-5.7-2.1-8,0l-8,7.1C844.1,184.6,841.5,185.7,838.7,185.7z"/>
	<path class="st0" d="M838.7,226.9c-2.7,0-5.3-1.1-7.3-2.9l-7.7-6.8c-2.3-2.1-5.7-2.1-8,0l-7.3,6.5c-4.2,3.8-10.5,3.8-14.7,0
		l-6.7-5.9c-2.3-2.1-5.7-2.1-8,0l-6.2,5.5c-4.2,3.8-10.5,3.8-14.7,0l-5.1-4.5c-2.3-2.1-5.7-2.1-8,0l-5.5,4.9
		c-4.2,3.8-10.5,3.8-14.7,0l-5.1-4.5c-2.3-2.1-5.7-2.1-8,0c-1,1-2.5,1-3.5,0s-1-2.5,0-3.5l0.1-0.1l0.1-0.1c4.2-3.8,10.5-3.8,14.7,0
		l5.1,4.5c2.3,2.1,5.7,2.1,8,0l5.5-4.9c4.2-3.8,10.5-3.8,14.7,0l5.1,4.5c2.3,2.1,5.7,2.1,8,0l6.2-5.5c4.2-3.8,10.5-3.8,14.7,0
		l6.7,5.9c2.3,2.1,5.7,2.1,8,0l7.3-6.5c4.2-3.8,10.5-3.8,14.7,0l7.7,6.8c2.3,2.1,5.7,2.1,8,0l8-7.1c4.2-3.8,10.5-3.8,14.7,0
		c1,0.9,1,2.5,0.1,3.5s-2.4,1-3.4,0.2c-2.3-2.1-5.7-2.1-8,0l-8,7.1C844.1,225.8,841.5,226.8,838.7,226.9z"/>
	<rect x="981.1" y="24.9" class="st2" width="160.4" height="160.4"/>
	
		<rect x="962.2" y="18.9" transform="matrix(0.7778 -0.6285 0.6285 0.7778 202.176 628.1304)" class="st4" width="54.5" height="18.5"/>
	
		<rect x="1125.1" y="0.6" transform="matrix(0.6285 -0.7778 0.7778 0.6285 399.7531 892.6453)" class="st4" width="18.5" height="54.5"/>
	<rect x="1010.3" y="62.9" class="st0" width="97.3" height="6"/>
	<rect x="1010.3" y="88.8" class="st0" width="97.3" height="6"/>
	<rect x="1010.3" y="114.8" class="st0" width="97.3" height="6"/>
	<rect x="1010.3" y="140.7" class="st0" width="97.3" height="6"/>
</g>
<g id="COMPUTER">
	<polygon class="st1" points="1754.6,1137.3 1380.7,1137.3 1453.1,977.3 1463.7,953.8 1671.6,953.8 1700.8,1018.3 	"/>
	<path class="st1" d="M2008.3,953.8h-880.1c-32.3,0-58.4-26.1-58.4-58.4l0,0l0,0V320.9c0-32.3,26.1-58.4,58.4-58.4l0,0h880.1
		c32.3,0,58.4,26.1,58.4,58.4v574.4C2066.7,927.6,2040.6,953.8,2008.3,953.8z"/>
	<path class="st1" d="M1744.6,913.2h-352.8c-17.1,0-31.1-13.9-31.1-31v-42.8c0-17.1,13.9-31.1,31-31.1h352.9
		c17.1,0,31.1,13.9,31.1,31v42.8C1775.6,899.3,1761.8,913.2,1744.6,913.2z"/>
	<path class="st5" d="M1652,884.7h-23.8c-5.9,0-10.7-4.8-10.7-10.7v-18.6c0-5.9,4.8-10.7,10.7-10.7h23.8c5.9,0,10.7,4.8,10.7,10.7
		V874C1662.7,879.9,1657.9,884.7,1652,884.7z"/>
	<path class="st5" d="M1682.3,881.6l-8.8-5.6c-2.4-1.5-3.9-4.2-3.9-7.1v-8.4c0-2.9,1.5-5.6,3.9-7.1l8.8-5.6c1.5-0.9,3.4-0.5,4.3,1
		l0,0c0.3,0.5,0.5,1,0.5,1.6v28.5c0,1.7-1.4,3.2-3.1,3.2l0,0C1683.4,882.1,1682.8,881.9,1682.3,881.6z"/>
	<path class="st5" d="M1561.8,875.3h-2.2c-8.7,0-15.8-7.1-15.8-15.8v-9.3c0-0.8,0.7-1.5,1.5-1.5h30.7c0.8,0,1.5,0.7,1.5,1.5v9.3
		C1577.6,868.2,1570.6,875.2,1561.8,875.3L1561.8,875.3L1561.8,875.3z M1546.8,851.7v7.8c0,7.1,5.7,12.8,12.8,12.8h2.2
		c7.1,0,12.8-5.7,12.8-12.8v-7.8H1546.8z"/>
	<path class="st5" d="M1560.7,892.6c-0.8,0-1.5-0.7-1.5-1.5v-11.3c0-0.8,0.7-1.5,1.5-1.5s1.5,0.7,1.5,1.5l0,0v11.3
		C1562.2,891.9,1561.5,892.6,1560.7,892.6z"/>
	<path class="st5" d="M1568.6,892.6h-15.7c-0.8,0-1.5-0.7-1.5-1.5s0.7-1.5,1.5-1.5h15.7c0.8,0,1.5,0.7,1.5,1.5
		S1569.4,892.6,1568.6,892.6z"/>
	<path class="st5" d="M1561.4,868.3h-1.4c-5,0-9-4-9-9v-18.2c0-5,4-9,9-9l0,0h1.4c5,0,9,4,9,9l0,0l0,0v18.2
		C1570.4,864.3,1566.4,868.3,1561.4,868.3z"/>
	<path class="st5" d="M1469.4,857L1469.4,857c-2,2.4-1.4,5.9,1.1,8l9.2,7.4c2.4,2,5.9,1.8,8-0.5l0.1-0.1c2.1-2.3,5.6-2.4,7.8-0.4
		l0.1,0.1l8.3,7.5c2.6,2.4,2.6,6.4,0,8.2c-8.7,6.1-20,3.9-29.3-3.6l-14-11.3c-9.3-7.6-13.8-18.2-9.7-28c1.3-3,5.2-3.8,8-1.7l9.1,6.6
		C1470.6,851,1471.2,854.5,1469.4,857z"/>
	<path class="st5" d="M1493.8,862.8c-0.8,0-1.4-0.6-1.5-1.4c-0.5-7.2-6.7-12.7-13.9-12.2l0,0c-0.8,0-1.5-0.6-1.6-1.4
		c0-0.8,0.6-1.5,1.4-1.6c8.9-0.6,16.5,6.1,17.1,15C1495.4,862,1494.7,862.7,1493.8,862.8L1493.8,862.8z"/>
	<path class="st5" d="M1503.2,861.3c-0.8,0-1.4-0.6-1.5-1.4c-0.8-12.5-11.6-22-24.1-21.2c-0.8,0-1.5-0.6-1.6-1.4
		c0-0.8,0.6-1.5,1.4-1.6c6.8-0.4,13.5,1.8,18.6,6.3s8.3,10.8,8.7,17.6c0.1,0.8-0.4,1.6-1.2,1.7
		C1503.4,861.3,1503.3,861.3,1503.2,861.3L1503.2,861.3z"/>
	<circle class="st1" cx="1841.4" cy="306.2" r="10.4"/>
	<circle class="st1" cx="1883.9" cy="306.2" r="10.4"/>
	<circle class="st1" cx="1926.5" cy="306.2" r="10.4"/>
	<path class="st1" d="M1531.2,782.7h-313.4c-9.5,0-17.3-7.8-17.3-17.3V597.6c0-9.5,7.8-17.3,17.3-17.3h313.4
		c9.5,0,17.3,7.8,17.3,17.3v167.8C1548.5,774.9,1540.8,782.7,1531.2,782.7z"/>
	<path class="st1" d="M1926.5,782.7h-313.4c-9.5,0-17.3-7.8-17.3-17.3V597.6c0-9.5,7.8-17.3,17.3-17.3h313.4
		c9.5,0,17.3,7.8,17.3,17.3v167.8C1943.8,774.9,1936.1,782.7,1926.5,782.7z"/>
	<path class="st5" d="M1867.3,782.2h-204.8c21.4-26.5,53.6-41.9,87.7-41.9h29.4C1813.7,740.3,1845.9,755.7,1867.3,782.2z"/>
	<path class="st5" d="M1758.5,740.4c-2.3,16.9-17.8,28.7-34.6,26.4c-9.5-1.3-17.9-7-22.7-15.3c15.3-7.3,32-11.1,48.9-11.1
		L1758.5,740.4L1758.5,740.4z"/>
	<path class="st5" d="M1819,747.4c-6.2,15.8-24,23.7-39.9,17.5c-10.4-4.1-17.8-13.5-19.3-24.6h19.9
		C1793.1,740.3,1806.4,742.7,1819,747.4z"/>
	<path class="st5" d="M1796.5,695.8v45.4c0,7.1-14.2,12.8-31.6,12.8c-3.1,0-6.1-0.2-9.2-0.5c-13-1.6-22.4-6.5-22.4-12.3v-45.4
		H1796.5z"/>
	<path class="st1" d="M1812.7,690v1.1c0,7.7-6.3,14-14,14h-13.4c-6.3,13.5-19.9,22.1-34.8,22.1h-2.6c-17.1,0-31.1-13.9-31.1-31V664
		c19.9,1.3,45.2-16.1,45.2-16.1c8.3,32.1,32,31.7,43,29.6C1809.7,679.9,1812.7,684.7,1812.7,690z"/>
	<path class="st5" d="M1793,694.9c-0.8,0-1.5-0.7-1.5-1.5c0-6.4,5.2-11.6,11.6-11.6c0.8,0,1.5,0.7,1.5,1.5s-0.7,1.5-1.5,1.5l0,0
		c-4.7,0-8.6,3.9-8.6,8.6l0,0C1794.5,694.2,1793.8,694.9,1793,694.9z"/>
	<path class="st5" d="M1796.5,705.1h2.2c7.7,0,14-6.3,14-14V690c0-5.3-3-10.1-7.7-12.5c-3.8,0.7-7.7,1-11.5,0.7
		c-11.4-0.9-25.5-7.1-31.5-30.3c0,0-25.3,17.4-45.2,16.1c-3.6-0.1-7.1-1.1-10.3-2.9c-16.5-9.4,23.4-53.4,69.2-46.8
		c36.6,5.3,35.8,49.1,35.1,59.5c1.8-0.2,3.6-0.3,5.4-0.3c26.8,0,48.5,20.6,48.5,46.1c0,16.6-9.2,31.2-23.1,39.3
		c-13.6-9-29-14.9-45.1-17.3V705.1z"/>
	<path class="st5" d="M1737,696c-0.2,0-0.4,0-0.5-0.1c-0.8-0.3-1.2-1.1-0.9-1.9l0,0l0,0c1.7-5.7,1-11.8-2-16.9
		c-4.3-7.5-13.8-6.2-14.2-6.1c-0.8,0.1-1.6-0.5-1.7-1.3s0.5-1.6,1.3-1.7l0,0c0.5-0.1,11.9-1.7,17.3,7.6c3.4,5.9,4.2,12.9,2.2,19.4
		C1738.2,695.6,1737.6,695.9,1737,696z"/>
	<path class="st5" d="M1771.1,677c-0.3,0-0.6-0.1-0.9-0.3c-8.7-6.7-20.3-5.9-20.4-5.9c-0.8,0.1-1.5-0.6-1.6-1.4s0.6-1.5,1.4-1.6l0,0
		c0.5,0,12.8-0.9,22.4,6.5c0.6,0.5,0.8,1.3,0.3,2v0.1C1772,676.7,1771.6,677,1771.1,677z"/>
	<path class="st5" d="M1731.8,699.4c0,0,2.4,15.8,18.7,0.4C1750.5,699.8,1739.1,701.3,1731.8,699.4z"/>
	<ellipse class="st5" cx="1756.9" cy="681.4" rx="2.1" ry="4.7"/>
	<ellipse class="st5" cx="1725.7" cy="681.4" rx="1.8" ry="3.9"/>
	<path class="st1" d="M1922.6,553.4h-313.4c-9.5,0-17.3-7.8-17.3-17.3V368.3c0-9.5,7.8-17.3,17.3-17.3h313.4
		c9.5,0,17.3,7.8,17.3,17.3v167.8C1939.9,545.7,1932.1,553.4,1922.6,553.4z"/>
	<path class="st5" d="M1858.8,553.4h-191.3c19.3-25.7,48.8-42.1,81.9-42.1h27.5C1810,511.3,1839.5,527.7,1858.8,553.4z"/>
	<path class="st5" d="M1753,544.8h4.3c18.7,0,33.9-15.2,33.9-33.9v-24.1c0-0.1-0.1-0.2-0.2-0.2h-62.9c-0.1,0-0.2,0.1-0.2,0.2v33.1
		C1728,533.7,1739.2,544.8,1753,544.8z"/>
	<path class="st1" d="M1809.5,472.1c0,8-6.5,14.5-14.5,14.5l0,0h-13.8c-5.1,13.4-17.9,22.2-32.2,22.2h-10.7
		c-14.9,0-26.9-12-26.9-26.9v-42c15.4,1.3,28.4-11.1,28.9-11.6c-0.2,0.7-8,22.7,9.7,23.9s23.4-11.5,23.6-12c0,0.5,0.1,17.5,14,18.4
		h7.3C1803,458.6,1809.5,464.1,1809.5,472.1z"/>
	<path class="st5" d="M1788.9,458.6h-1.2c-13.9-0.9-14-17.8-14-18.4c-0.2,0.5-6.1,13.2-23.6,12s-9.9-23.2-9.7-23.9
		c-0.5,0.4-13.5,12.9-28.9,11.6c-3.6-0.3-7.1-1.4-10.3-3.1c-22.5-12.2-8-37.3,14.1-37.6c17.6-0.2,25.1,9.4,25.1,9.4
		s3.8-19.7,25.4-16.3s17.7,22.5,17.7,22.5s18.1-8.4,28.1,7.1C1823.4,440.1,1805.7,458.6,1788.9,458.6z"/>
	<path class="st5" d="M1729.8,476.9h-0.4c-0.8-0.2-1.3-1-1.1-1.8l0,0l0,0c0-0.1,2.4-10-1.9-18.1c-4.7-8.6-12.8-7.2-13.1-7.2
		c-0.8,0.1-1.6-0.4-1.7-1.2c-0.2-0.8,0.3-1.5,1.1-1.7l0,0h0.1c6.7-0.9,13.3,2.6,16.3,8.7c4.9,9.1,2.3,19.8,2.2,20.2
		C1731,476.4,1730.5,476.8,1729.8,476.9z"/>
	<path class="st5" d="M1735.1,488.5c-1.8,0-3.6-0.2-5.4-0.7c-0.8-0.2-1.3-1-1.1-1.8c0.2-0.8,1-1.3,1.8-1.1l0,0l0,0
		c0.5,0.1,11.9,3.1,16.1-5.7c0.4-0.7,1.3-1.1,2-0.7c0.7,0.3,1.1,1.1,0.8,1.8l0,0c0,0.1,0,0.1-0.1,0.1
		C1746.3,486.8,1740.2,488.5,1735.1,488.5z"/>
	<ellipse class="st5" cx="1749.6" cy="460.2" rx="2.1" ry="4.7"/>
	<ellipse class="st5" cx="1718.5" cy="460.2" rx="1.8" ry="3.9"/>
	<path class="st5" d="M1787.4,477.6c-0.8,0-1.5-0.7-1.5-1.5c0-6.4,5.2-11.6,11.6-11.6c0.8,0,1.5,0.7,1.5,1.5s-0.7,1.5-1.5,1.5
		c-4.7,0-8.6,3.9-8.6,8.6l0,0C1788.9,476.9,1788.2,477.6,1787.4,477.6z"/>
	<path class="st1" d="M1527.2,553.4h-313.4c-9.5,0-17.3-7.7-17.3-17.3V368.3c0-9.5,7.8-17.3,17.3-17.3h313.4
		c9.5,0,17.3,7.8,17.3,17.3v167.8c0,9.5-7.7,17.3-17.2,17.3l0,0L1527.2,553.4z"/>
	<path class="st5" d="M1451.5,553.4h-194.4c19.6-29.3,49.6-48,83.2-48h28C1401.9,505.4,1431.8,524.1,1451.5,553.4z"/>
	<path class="st5" d="M1451.5,553.4h-194.4c0.6-0.9,1.2-1.7,1.8-2.6c0.1-0.2,0.2-0.4,0.4-0.5h190.1c0.1,0.2,0.2,0.4,0.4,0.5
		C1450.3,551.6,1450.9,552.5,1451.5,553.4z"/>
	<path class="st5" d="M1443.3,542.5h-178c0.9-1.1,1.8-2.1,2.7-3.1h172.6C1441.5,540.4,1442.4,541.4,1443.3,542.5z"/>
	<path class="st5" d="M1432.3,531.1h-156c1.2-1.1,2.4-2.1,3.6-3.1h148.8C1429.9,529,1431.1,530,1432.3,531.1z"/>
	<path class="st5" d="M1415.5,518.6H1293c1.8-1.1,3.7-2.1,5.6-3.1h111.2C1411.8,516.5,1413.6,517.5,1415.5,518.6z"/>
	<path class="st5" d="M1385.3,468v44.7c0,4.6-14.2,8.3-31.6,8.3c-17,0-30.9-3.5-31.6-8v-45H1385.3z"/>
	<path class="st1" d="M1402.5,453.9v1c0,7.7-6.3,14-14,14h-12.1c-4,14.3-17,24.2-31.9,24.2h-12.9c-14.4,0-26-11.6-26-26l0,0l0,0
		v-56.9c24,6.7,66.9,0.4,66.9,0.4c-2.1,9.9-0.9,20.1,3.5,29.2h12.6C1396.3,440,1402.4,446.2,1402.5,453.9z"/>
	<path class="st5" d="M1388,438.1h-11.4c-9.7-16.4-4.2-27.3-4.2-27.3s-42.9,6.2-66.9-0.4c-10.9-3-17.9-8.7-15.3-18.8
		c8.3-32.4,97.7,2.1,103.9,13.8S1388,438.1,1388,438.1z"/>
	<path class="st5" d="M1343.6,468.8c-0.3,0.3-0.6,0.4-1,0.4s-0.8-0.2-1.1-0.5l-1.4-1.5c-4.3,3.8-8.4,5.7-12.2,5.7
		c-0.4,0-0.7,0-1.1-0.1c-2.5-0.2-4.8-1.4-6.4-3.3c-0.5-0.7-0.4-1.6,0.3-2.1c0.7-0.5,1.6-0.4,2.1,0.3l0,0l0,0
		c1.1,1.3,2.7,2.1,4.4,2.2c3.2,0.3,6.9-1.4,10.9-4.9l-0.8-0.9c-0.5-0.6-0.4-1.6,0.2-2.1s1.4-0.4,2,0.1l4.2,4.6
		C1344.3,467.2,1344.3,468.2,1343.6,468.8L1343.6,468.8z"/>
	<path class="st5" d="M1358.8,439c-0.4,0-0.8-0.1-1.1-0.4c-5.4-5.1-12.7-7.7-20.1-6.9c-0.8,0.1-1.6-0.4-1.7-1.2
		c-0.1-0.8,0.4-1.6,1.2-1.7l0,0c8.3-1.1,16.7,1.8,22.7,7.7c0.6,0.6,0.6,1.5,0,2l0,0C1359.6,438.9,1359.2,439,1358.8,439z"/>
	<path class="st5" d="M1324.7,460c-0.1,0-0.3,0-0.4-0.1c-0.8-0.3-1.2-1.1-1-1.9c0-0.1,3.1-10.3-1.9-19c-4.3-7.5-14-5.2-14.1-5.1
		c-0.8,0.2-1.6-0.3-1.8-1.1c-0.2-0.8,0.3-1.6,1.1-1.8c4.1-1,13.1-1,17.4,6.6c5.7,9.9,2.4,20.9,2.2,21.4
		C1326,459.6,1325.4,460,1324.7,460z"/>
	<ellipse class="st5" cx="1313.5" cy="444.4" rx="1.8" ry="3.9"/>
	<ellipse class="st5" cx="1344.6" cy="444.4" rx="2.1" ry="4.7"/>
	<path class="st5" d="M1380.7,459c-0.8,0-1.5-0.7-1.5-1.5c0-6.5,5.3-11.8,11.8-11.8c0.8,0,1.5,0.7,1.5,1.5s-0.7,1.5-1.5,1.5
		c-4.8,0-8.8,3.9-8.8,8.7l0,0v0.1C1382.2,458.3,1381.6,459,1380.7,459C1380.8,459,1380.8,459,1380.7,459L1380.7,459z"/>
</g>
<g id="WOMAN">
	<g id="LEGS">
		<g id="RIGHT_LEG">
			<path class="st6" d="M1895.5,2345.5c-2.7-0.8-4.2-1.2-4.2-1.2l-32.7,107.1l-123.1-32.3c-1-0.9-1.5-1.4-1.5-1.4
				s-498.5-390.7-524.7-578.2s182.7-365.4,182.7-365.4s445.3,841.7,500.4,869.2C1893.5,2343.9,1894.6,2344.6,1895.5,2345.5z"/>
			<path class="st1" d="M2175.3,2417.6l-183.1,117.5l-53.1-8l-48.9,31l15.8,32.4l-80.5,51.7c-106.7-97.1-91.6-223.4-91.6-223.4
				l124.6,32.7l32.7-107.1c0,0,111.9,32.7,194.5,29.9C2168.5,2371.5,2175.3,2417.6,2175.3,2417.6z"/>
			<path class="st1" d="M1967.2,2358.7c0,0-7.7-81.4-27-76.3s4.9,86.4,26.6,77.5s43.4-66.6,43.4-66.6"/>
			<polyline class="st1" points="1753,2535 1875.7,2536.9 1936.6,2500.5 1994.4,2509.8 2167.7,2401.6 			"/>
			<line class="st0" x1="1941.8" y1="2354.1" x2="1930.4" y2="2407.2"/>
			<line class="st0" x1="1966.6" y1="2360.1" x2="1955.2" y2="2413.2"/>
			<line class="st0" x1="1992.5" y1="2364.4" x2="1981.1" y2="2417.5"/>
		</g>
		<g id="LEFT_LEG">
			<path class="st6" d="M1349.7,1433.2c0,0,73.3,34.2,73.3,159.6c0,121.2-279.8,863.4-279.8,863.4l-86.1,73l-87.4-95.7
				C1012.4,2392.9,889.8,1658.9,1349.7,1433.2z"/>
			<path class="st1" d="M1341.9,2671.4l-217.6,0.2l-40.4-35.4l-57.9-0.3l-4.2,35.8l-85.3,0.1c-46.4-144.4,33.6-238.4,33.6-238.4
				l86.8,95.6l86.7-72.9c0,0,75.2,88.2,146.2,130.4C1361,2628.8,1341.9,2671.4,1341.9,2671.4z"/>
			<path class="st1" d="M1193.2,2507.5c0,0,85.4-55.1,61.1-76.2s-73.2,70.5-59.9,77.8s105.4-20.4,105.4-20.4"/>
			<polyline class="st1" points="925,2544.1 1027.1,2608.5 1098,2608.5 1142.9,2646.2 1343.6,2646.2 			"/>
			<line class="st0" x1="1174.2" y1="2486.7" x2="1135.8" y2="2525.1"/>
			<line class="st0" x1="1191.8" y1="2505.2" x2="1153.4" y2="2543.6"/>
			<line class="st0" x1="1211.2" y1="2522.8" x2="1172.8" y2="2561.2"/>
		</g>
	</g>
	<g id="SKIRT">
		<path d="M1349.7,1433.2c-172.9,84.8-263.5,241.6-311.4,406.3H513.6c-134.3,0-234.4-123.9-206.1-255.2l38.5-178.8h912.3
			C1290.8,1405.5,1322.7,1415.1,1349.7,1433.2z"/>
		<polygon points="960.1,1604.6 1149,1604.2 1121,1650.1 		"/>
		<path d="M1350.7,1432.2c-86,42.2-151.6,102.2-201.8,172.1H670.2c-86.3,0-150.7-79.3-133.1-163.8l7.3-35"/>
		<path d="M1039,1839.4c19.1-65.7,44.9-130.2,80-189.3l-158.9-45.6"/>
	</g>
	<g id="BLOUSE">
		<path class="st7" d="M223.4,925.2l96.1,377H140.2c-104.4,0-171.6-110.9-123.2-203.4l137.7-263.3c39-74.5,116.1-121.2,200.2-121.2
			h32.5C277,714.2,196.1,818.2,223.4,925.2z"/>
		<path class="st7" d="M1330,827.4c56.5,0,103.5-7.5,114.9-18l-175.3,380c-44.9,97.3-160.3,139.8-257.6,94.9
			c-14.5-6.7-28.1-15.2-40.6-25.2l-110.5-89.2c0,0-11,64.7-89.5,81.2v154.2H345.9L223.4,925.1C196.1,818.1,277,714,387.4,714h297.9
			c98.4,0.1,191.1,46.3,250.4,124.9l145.6,193.2l130.8-228.6l0,0c0,0.2-0.1,0.5-0.1,0.7C1212.1,817.5,1265,827.4,1330,827.4z"/>
		<line class="st0" x1="222.4" y1="925.2" x2="316.5" y2="1305.2"/>
		<line class="st0" x1="861.9" y1="1175" x2="778.3" y2="1086"/>
		<path class="st1" d="M1447.5,803.8l-2.6,5.6c-11.4,10.6-58.4,18-114.9,18c-65,0-117.9-9.9-117.9-23c0-0.2,0-0.5,0.1-0.7
			c1.8-12.8,54-23.8,117.9-23.8S1445.7,790.9,1447.5,803.8z"/>
	</g>
	<g id="HEAD">
		<g id="NECK">
			<path class="st6" d="M753.2,721.4c-14.5,19.5-68.5,65.4-250.3,65.4c-233.9,0-84.2-72.4-84.2-72.4l99.2-165.7L624.3,614v52.5
				c0,26.4,21.5,47.9,47.9,47.9h6.9C703.9,714.3,729.5,715.4,753.2,721.4z"/>
		</g>
		<g id="HEAD-2">
			<path class="st6" d="M629.8,620.4h22.6c20.8,0,37.7-16.9,37.7-37.7V456.8H555.2v89C555.2,587,588.6,620.4,629.8,620.4
				L629.8,620.4z"/>
			<path class="st8" d="M687.2,575.4c-14.5,0-20.3-10-20.3-10"/>
			<ellipse class="st9" cx="674.1" cy="525.8" rx="4.8" ry="9.3"/>
		</g>
		<path id="HAIR" d="M580.9,469.9c0,0,111.3,67.2,147.5,8.7c31.8-51.3-109.1-77.7-158.3-77.9c-53.5-0.2-124.4,23.5-123.2,102.2
			c1,64.8,3.7,159.6-34.7,143.1c-136.6-58.6-258,2.6-258.4,119.2s134.9,127.5,138.3,97.4s-84-23.1-72.2,54.8s63.9,175.3,183.1,175.3
			c144,0.1,235.7-189.5,146.6-208.8c-68.3-14.8,69.6,117,110.5-20c44-147.5-115-195.8-118.9-284.9S580.9,469.9,580.9,469.9z"/>
		<g id="GLASSES">
			<line class="st0" x1="573.1" y1="523.4" x2="652.7" y2="523.4"/>
			<ellipse class="st1" cx="677.2" cy="526.4" rx="22.6" ry="29"/>
		</g>
		<g id="HEADPHONES">
			<path class="st1" d="M530.9,487.7v-84.2c0-12.6,10.3-22.9,22.9-22.9l0,0h25c12.6,0,22.9,10.3,22.9,22.9l0,0l0,0"/>
			<path class="st1" d="M555,580.4h-48.1c-12.3,0-22.3-10-22.3-22.3V510c0-12.3,10-22.3,22.3-22.3H555c12.3,0,22.3,10,22.3,22.3
				v48.1C577.3,570.4,567.3,580.4,555,580.4z"/>
			<path class="st1" d="M542.5,564.5H519c-10.2,0-18.4-8.2-18.4-18.4v-23.5c0-10.2,8.2-18.4,18.4-18.4h23.5
				c10.2,0,18.4,8.2,18.4,18.4v23.5c0,10.1-8.2,18.4-18.3,18.4H542.5z"/>
			<line class="st0" x1="551.8" y1="506.6" x2="510" y2="562.2"/>
			<line class="st0" x1="538" y1="504.7" x2="501.8" y2="552.7"/>
			<line class="st0" x1="559.9" y1="516.5" x2="523.7" y2="564.5"/>
			<line class="st0" x1="560.9" y1="534.4" x2="538.2" y2="564.5"/>
			<line class="st0" x1="523.3" y1="504.7" x2="500.7" y2="534.6"/>
		</g>
	</g>
	<g id="ARM">
		<path class="st6" d="M1499.9,611.8c0,5.6-1.4,11.2-4,16.2c-2.7,5-6.5,9.3-11.1,12.5l-2.3,1.6l-17.9,95.5
			c-2.9,15.5-12.1,29.2-25.4,37.7l-24.5,15.6l-19.4,12.4l-9,21.5c-18.7,1.8-37.4,2.7-56.2,2.7c-19,0.1-38-0.9-56.9-2.8V676.6
			c0-6.4,1.4-12.7,4.1-18.5l32.6-70.2c0,0,35.6,8.8,19.2,52.5c-14.9,39.7,19.1,29.5,38.2,22.4c17.1-6.4,91.8-44.4,121-58.3
			c4-1.9,8.9-0.2,10.8,3.8C1499.6,609.4,1499.9,610.6,1499.9,611.8z"/>
		<path class="st3" d="M1468.7,701.3c-2.9,15.5-12.1,29.1-25.4,37.6l-43.9,28"/>
		<path class="st3" d="M1475.9,660.8c-2.9,15.5-12.1,29.1-25.4,37.6l-43.9,28"/>
		<line class="st3" x1="1479.3" y1="643.2" x2="1408.7" y2="688"/>
	</g>
</g>
<g id="CHAIR">
	<path class="st0" d="M495.3,1896.4v55.1c0,26.6-21.6,48.2-48.2,48.2H323.5"/>
	<line class="st0" x1="541.4" y1="1897" x2="541.4" y2="2402.5"/>
	<path class="st0" d="M317.6,2564.6c0-89.5,88.9-162.1,198.5-162.1h49.8c109.6,0,198.5,72.6,198.5,162.1"/>
	<path class="st1" d="M1022.3,1904.7h-726c-36.3,0-65.8-29.4-65.8-65.8l0,0l0,0h809L1022.3,1904.7z"/>
	<circle class="st1" cx="313.2" cy="2618.2" r="53.6"/>
	<path class="st0" d="M285.9,2013.4h107.6c8.8,0,15.9-7.1,15.9-15.9l0,0v-1.2c0-8.8-7.1-15.9-15.9-15.9l0,0H285.9
		c-8.8,0-15.9,7.1-15.9,15.9l0,0v1.2C270,2006.3,277.1,2013.4,285.9,2013.4L285.9,2013.4L285.9,2013.4z"/>
	<path class="st10" d="M230.5,1840.9h515.1l-172.3-482.8c-12-33.5-43.7-55.9-79.3-55.9H115.3c-30,0-54.3,24.3-54.4,54.3
		c0,6.2,1.1,12.4,3.2,18.3L230.5,1840.9z"/>
	<path class="st1" d="M256,1840.9h447.8l-166.5-466.8c-11.6-32.4-42.2-54-76.6-54H77.3"/>
	<circle class="st1" cx="763.5" cy="2618.2" r="53.6"/>
</g>
</svg>
