<?xml version="1.0" encoding="utf-8"?>
<!-- Generator: Adobe Illustrator 25.3.1, SVG Export Plug-In . SVG Version: 6.00 Build 0)  -->
<svg version="1.1" id="Слой_1" xmlns="http://www.w3.org/2000/svg" xmlns:xlink="http://www.w3.org/1999/xlink" x="0px" y="0px"
	 viewBox="0 0 3763.6 2839.8" style="enable-background:new 0 0 3763.6 2839.8;" xml:space="preserve">
<style type="text/css">
	.st0{fill:#FFFFFF;stroke:#000000;stroke-width:5;stroke-miterlimit:10;}
	.st1{fill:none;stroke:#000000;stroke-width:5;stroke-miterlimit:10;}
	.st2{fill:#D89EA8;stroke:#000000;stroke-width:5;stroke-miterlimit:10;}
	.st3{fill:#21409A;stroke:#000000;stroke-width:5;stroke-miterlimit:10;}
	.st4{fill:none;stroke:#000000;stroke-width:5;stroke-linecap:round;stroke-miterlimit:10;}
	.st5{fill:#FFFFFF;stroke:#000000;stroke-width:5;stroke-linecap:round;stroke-miterlimit:10;}
	.st6{fill:#A0505A;stroke:#000000;stroke-width:5;stroke-miterlimit:10;}
	.st7{fill:#FFFFFF;stroke:#000000;stroke-width:5.01;stroke-miterlimit:10.02;}
	.st8{stroke:#000000;stroke-width:5;stroke-miterlimit:10;}
</style>
<g id="GRASS">
	<path class="st0" d="M3741.7,2833.7l-1178.9,2.1c-144.5,1-298,1.5-457.2,1.5c-387.5,0-741.7-3.2-1012.6-8.5H2.5
		c0-192.6,212-108,267.9-74c65,39.5-18.7-170.8,114-170.8c113.6,0,178.6,57.1,178.6,57.1s3.1-111,110.8-112.6
		s176.1,93.3,261.1,171.4c35.1,32.2,77.3,57.8,117.2,77.3c275.7-5.8,646.1-9.4,1053.5-9.4c193,0,377.6,0.8,547.9,2.3l0,0
		c302.6,0,579.7-159.1,658.3-199c194.2-98.8,102.2,136.7,102.2,136.7s149.7-63,255-62.5C3817.7,2645.9,3741.7,2833.7,3741.7,2833.7z
		"/>
	<path class="st0" d="M3130,2827.9c0,0,29.8-268.2-164.2-354.5c0,0-28.6,291.8,68.2,272.7c36.3-7.2-41.6-78-168.6-81
		c0,0,97.3,163.5,215.5,165.8"/>
	<path class="st0" d="M3081.3,2830.5c0,0,11.2-122.7,130.8-160.9c108-34.4-81,157.9-81,157.9"/>
	<path class="st0" d="M395.7,2819.3c0,0-171.5-117.5-219.8-309.2c0,0,151.8,45.4,216.2,142c0,0,26.4-219.9,90.2-293.9
		c0,0,34.5,49.6,38.8,233.4c0,0,78.2-133.2,136.4-176.2c0,0-8,173.3-49.6,261.8c0,0,60.1-46.8,100.7-0.9s-39,113.1-39,113.1"/>
	<path class="st1" d="M482.4,2364.7c0,0,1.7,400.6-16.5,452.5"/>
	<path class="st1" d="M651.9,2425.5c0,0-119.6,307.3-186,391.7"/>
	<path class="st1" d="M606.1,2678.6c-4.4,16.1-34.7,60.5-40.7,41.4s48.6-50,62.3-55.1"/>
	<path class="st1" d="M392.2,2652.2c8.1,15.6,35.5,59.4,7.8,58.3c-18.1-0.7-2.9-92.6-2.9-92.6"/>
</g>
<g id="_2_CHARACTER">
	<g id="LEGS">
		<g id="LEFT_LEG">
			<path class="st2" d="M2653.1,2490c-68,33.3-61.6,97.2-62.2,140.1c-0.7,45.7-87.9,69.6-87.9,69.6c23.2-73.1,6.7-148.4,6.7-148.4
				L2653.1,2490z"/>
			<path class="st1" d="M2725.2,2658.3l-15.5,8.4l-32.5-74.3c-1.6-3.7-5.3-6.2-9.4-6.2c-1.4,0-2.7,0.3-4,0.8
				c-3.3,1.4-5.7,4.5-6.1,8.1l-14.3,107.7l-188.1,102.4c-5.6-13.4,29.3-47,47.8-105.5c0,0,87.3-23.9,87.9-69.6
				c0.6-42.9-5.7-106.9,62.2-140.1l14.3-6.1C2745.5,2519.8,2725.2,2658.3,2725.2,2658.3z"/>
			<path d="M2667.4,1956.3v527.6l-155.6,67.5l-116.6-529.7C2447.4,2023.7,2534.4,2012.7,2667.4,1956.3z"/>
		</g>
		<g id="RIGHT_LEG">
			<path class="st0" d="M3451.6,1598.3l-100.6,21.2c-5.3,1.1-10.4-2.2-11.6-7.5c0,0,0,0,0,0c-0.1-0.7-0.2-1.3-0.2-2
				c0-2.7,1.1-5.3,3.1-7.1l56-52.5l-12.4-11.1c0,0-130,25.5-137.4,106.6l9.9,10.8c51.1,50.2,106.2,24.3,144.7,11.3
				c36.8-12.4,80.7,44.7,89.4,56.5h0.4c58-1.9,99.1,18.7,109.2,9.4L3451.6,1598.3z"/>
			<path class="st2" d="M3258.5,1656.7c51.1,50.2,106.2,24.3,144.7,11.3c41-13.8,89.9,56.5,89.9,56.5
				c-72.6,2.3-134.5,40.8-134.5,40.8L3258.5,1656.7z"/>
			<path d="M2637.3,1960.8c0,0,25.3,170.9,219.4,167.7s499.8-364.2,499.8-364.2L3249,1646.5L2637.3,1960.8z"/>
		</g>
	</g>
	<g id="DRESS">
		<path class="st0" d="M3484.5,1297.9c-17.7-6.7-59.8,16.3-91.5,56.3c-34.1,42.9-47.9,88.5-32.9,100.4l-480.3-255.4
			c-23.6-12.5-50.8,8.9-44.1,34.7l145.4,550.8c-492.5,319.6-650.4,223.8-650.4,223.8v-1810c0,0.1,0,0.1,0.1,0.2
			c4.2,10.7,49.3,3.2,100.8-16.9c47.4-18.4,83.6-41,85.9-52.8l0.1-0.1v570.3c0,35.8,19.3,68.7,50.5,86.2L3484.5,1297.9z"/>
		<path class="st3" d="M3484.5,1297.9c-17.7-6.7-59.8,16.3-91.5,56.3c-34.1,42.9-47.9,88.5-32.9,100.4l-480.3-255.4
			c-23.6-12.5-50.8,8.9-44.1,34.7l145.4,553c-125.2,81.3-228.8,133.5-313.7,169.5c-133,56.3-220,67.4-272.2,65.4
			c-45.5-1.7-64.5-13.3-64.5-13.3v-1810c0,0.1,0,0.1,0.1,0.2c4.2,10.7,49.3,3.2,100.8-16.9c47.4-18.4,83.6-41,85.9-52.8l0.1-0.1
			v570.3c0,35.8,19.3,68.7,50.5,86.2L3484.5,1297.9z"/>
		<line class="st1" x1="2795.6" y1="1154.8" x2="3360.1" y2="1461"/>
		<polygon class="st0" points="2581.5,792.8 2518.2,1160.7 2841.3,938.2 		"/>
		<polyline class="st0" points="2581.5,792.8 2518.2,1160.7 2841.3,938.2 		"/>
	</g>
	<g id="ARMS">
		<g id="LEFT_ARM">
			<path class="st0" d="M2578.9,82.7l-417.1,85.5c-15.4,3.2-31.3-10.5-35.4-30.6s5.1-38.9,20.5-42.1L2564,10L2578.9,82.7z"/>
			
				<ellipse transform="matrix(0.9796 -0.2007 0.2007 0.9796 42.9744 517.1039)" class="st0" cx="2571.3" cy="46.6" rx="28.5" ry="37.1"/>
			<path class="st3" d="M2340.9,119.1c0,0-134.9,151.6-120.2,185c19.2,19.1,34.8,27.5,32.5,34.6c-2.5,7.7-34.8,54.2-34.8,54.2
				l-3.2-34.5l-30.9,10.2c0,0,32.6-47.6,34.7-62.2c-13.4-10.2-40.7-31.4-39.8-46.2c1-15.7,48.8-71.5,83.5-110l-52.3,17.3l-10.3-48.3
				l94.1-17.3L2340.9,119.1z"/>
			<circle class="st0" cx="2322.6" cy="97.3" r="28.4"/>
			<path class="st1" d="M2517.5,129c-2.3,11.8-38.5,34.4-85.9,52.8c-51.5,20-96.6,27.6-100.8,16.9c0-0.1,0-0.1-0.1-0.2
				c-3.6-10.8,34.6-35.5,85.8-55.4c51.5-20,96.6-27.6,100.8-16.9C2517.6,127.1,2517.7,128.1,2517.5,129z"/>
			<path class="st2" d="M2482.8,45l-5.5,79.4l-2.6,38c-14,7.3-28.4,13.7-43.1,19.4c-27,10.5-52.2,17.5-70.7,20.4v-72.6l75.9-15.6
				c0,0,4.2-27.1,12.2-49.8S2482.8,45,2482.8,45z"/>
			<path class="st4" d="M2438.9,110.7c-1.1,4.5-34.1,15-34.1,39"/>
			<path class="st2" d="M2427.6,84.7l-84.7,19.4c-4.5,1-8.7-2.6-8.7-7.6V45.1c-0.1-6.7,4-12.7,10.3-14.9l83.7-27.3
				c5.3-1.7,10.6,2.5,10.6,8.4v58.6C2438.7,77,2434.1,83.2,2427.6,84.7z"/>
			<path class="st4" d="M2364.2,96.1c-4,0.9-8-1.7-8.8-5.7c-0.1-0.5-0.2-1.1-0.2-1.6V39.5c0-6.6,4.3-12.4,10.6-14.3"/>
			<path class="st4" d="M2388.6,90.8c-4.1,0.8-8-1.8-8.8-5.9c0,0,0,0,0,0l0,0c-0.1-0.5-0.2-1.1-0.1-1.6V32.5
				c-0.1-6.7,4.2-12.7,10.6-14.7"/>
			<path class="st4" d="M2415.9,85c-4.1,0.8-8.1-1.9-8.9-6.1c0,0,0,0,0,0l0,0c-0.1-0.5-0.1-1.1-0.1-1.6V24.7c0-7,4.3-13.2,10.6-15.2
				"/>
		</g>
		<g id="RIGHT_ARM">
			<path class="st0" d="M3447.3,1397.3c-34.1,43-72.3,69.1-87.3,57.2s-1.2-57.4,32.9-100.4c31.8-40,73.8-63,91.5-56.3l3.5,2
				C3503,1311.8,3481.4,1354.4,3447.3,1397.3z"/>
			<path class="st2" d="M3601.6,1469.6l-22.7,12c-9,4.8-20.2,1.4-25-7.6l-23.9-44.4l-36.2-12.4c4,1.5,19.6,9.5,14.7,38.6l-85-31.7
				l-29.2-10.9l-27.7-17.7c7.3-14.7,16.2-28.5,26.5-41.3c8.8-11.1,18.7-21.2,29.5-30.3l28.9,20.2l29.6,3.2l48.1,5.1
				c7.7,0.8,15.1,3.4,21.6,7.5l38.4,27.3c5.6,3.9,9.3,10,10.2,16.8l7.8,54.6C3607.9,1463.1,3605.6,1467.5,3601.6,1469.6z"/>
			<path class="st4" d="M3545.7,1380.7l33.3,23.7c4.8,3.5,8,8.7,8.9,14.6l6.8,44.1c0.5,3.9-1.4,7.7-4.9,9.5"/>
			<path class="st4" d="M3525.1,1388.6l33.3,23.7c4.8,3.5,8,8.7,8.9,14.6l6.8,44.1c0.5,3.9-1.4,7.7-4.9,9.5"/>
			<line class="st4" x1="3493.8" y1="1417.1" x2="3469.6" y2="1408.9"/>
		</g>
	</g>
	<g id="HEAD">
		<g id="CAP">
			<polygon class="st3" points="2607.9,525.8 2821.8,620.7 2898.1,843.9 2743.1,733.1 2670.8,644.8 			"/>
			<path class="st3" d="M2670.8,644.8c0,0,70,12,98.2,90l14.9-15c0,0-27.1-75.9-98.7-95.4L2670.8,644.8z"/>
			<path class="st3" d="M3088,741.7c-24-13.6-46.2-21.1-53.3-18.4c0.5-1.3,0.8-2.6,0.7-4c-0.3-4.3-4-7.7-8.3-7.7h-0.7
				c-4.6,0.4-8,4.4-7.7,9c0,0.3,0.1,0.6,0.1,0.8l-25.4,16.3c-8.5,5.4-19.9,2.9-25.3-5.6c-1.9-3-2.9-6.4-2.9-9.9v-36.5
				c0-26.1-21.2-47.2-47.2-47.2c-6.4,0-12.7,1.3-18.6,3.8l-48.4,21.6l-18.4-53.9l-215-95.3c-1.3-0.7-2.9-0.1-3.6,1.2
				s-0.1,2.9,1.2,3.6l0,0l0,0c0.1,0.1,0.2,0.1,0.3,0.1l212.8,94.4l75.9,222.1c0.4,1.1,1.4,1.8,2.5,1.8c0.3,0,0.6-0.1,0.9-0.1
				c1.4-0.5,2.1-2,1.7-3.4L2852.8,669l48.8-21.8c21.2-9.1,45.8,0.7,54.9,21.9c2.3,5.2,3.4,10.9,3.4,16.6v36.5
				c-0.1,13,10.3,23.7,23.3,23.8c4.6,0,9.2-1.3,13.1-3.8l25.2-16.1c1.5,1.4,3.5,2.2,5.6,2.2h0.7c1.7-0.1,3.3-0.8,4.6-1.9
				c0,7.1,18.2,23,43.2,37.2c5.4,3.1,10.8,5.9,15.9,8.3c3.1-2.6,5.8-5.8,7.8-9.4c2.1-3.5,3.4-7.4,4-11.5
				C3098.5,748,3093.4,744.8,3088,741.7z M3027.3,724.1c-2.2,0.2-4.2-1.4-4.4-3.6c0,0,0,0,0,0c0,0,0-0.1,0-0.1l0,0
				c-0.2-2.2,1.5-4.2,3.7-4.4s4.2,1.5,4.4,3.7C3031.2,721.9,3029.6,723.9,3027.3,724.1L3027.3,724.1z"/>
		</g>
		<g id="HEAD-2">
			<path id="HAIR" class="st1" d="M2718.3,664.1c0,0-13.3,44.1,24.8,74.2c22.4,17.7,23.7-3.6,23.7-3.6S2763.9,691.4,2718.3,664.1z"
				/>
			<g id="NECK">
				<polygon class="st2" points="2656.9,776.3 2619.9,982.1 2746,884.9 2746,756.6 				"/>
			</g>
			<g id="HAIR-2">
				<path d="M2672.9,646.9c0,0-63.1-15.7-82.8,20.9s37.9,46.7,40.3,33.9c1.1-5.6-103.7-5.5-86.1,73.8
					c18.3,82.6,100.8,54.2,100.8,54.2l9.6-53.4L2672.9,646.9z"/>
				<path d="M2745,765.3c0,0-94.2,122.8-11.4,175c66.4,41.8,83.5-17.1,65.7-25.2c-19.3-8.8-63.6,157.2,72.8,156.7
					c136.7-0.5,94.9-171.2,26-227.8c-32.9-27-142.7-102.5-142.7-102.5L2745,765.3z"/>
			</g>
			<g id="HEAD-3">
				<path class="st2" d="M2742.2,734.5l7.1,4.5c6.9,4.4,8.9,13.5,4.6,20.4l-1.4,2.1c-4.3,6.9-13.5,9-20.4,4.6l0,0l-7.6-4.8
					c-8.4,6-58.9,39.7-90.1,6.2c-30.3-32.5,39.7-127.6,39.7-127.6c59.4,18.6,82.6,71.4,82.6,71.4L2742.2,734.5z"/>
				<path class="st1" d="M2654.6,661.5c0,0,16.4,6.1,14.8,20.2s-16.4,36.3-12.9,40.1c2.2,2.3,5.1,3.9,8.2,4.5"/>
				<path class="st0" d="M2650.6,734.8c8.9,4.3,19,5.8,28.8,4.2"/>
				
					<ellipse transform="matrix(0.3562 -0.9344 0.9344 0.3562 1071.0364 2981.6147)" class="st0" cx="2699.4" cy="713.5" rx="7.2" ry="3.9"/>
				
					<ellipse transform="matrix(0.3562 -0.9344 0.9344 0.3562 1061.2468 2925.468)" class="st0" cx="2653.8" cy="692.5" rx="6" ry="3.3"/>
				<path class="st0" d="M2737,751.7c2.8-4.4,8.6-5.7,13-3c0,0,0,0,0,0l0,0l0,0"/>
				<path class="st0" d="M2700.1,688.4c0,0,12.2,3.3,18.5,17.8"/>
			</g>
		</g>
	</g>
</g>
<g id="_1_CHARACTER">
	<g id="DRESS-2">
		<path class="st3" d="M1834.9,1794.2c-10.5-38.3-183.9-2.4-374.9,67.1c-182.7,66.5-331.2,156.2-332.8,192.3L1027,1322.7
			c-1.7-11.4-12.3-19.3-23.7-17.7c-10.3,1.5-17.9,10.3-17.9,20.7v624.2l0,0c-1.2-17.1-45.3-30.8-99.5-30.8s-98.2,13.7-99.5,30.8l0,0
			v-701.4c0-59.2,31-114,81.6-144.6l65.7-39.7l270.6-163.4L1456,747.6V486.1c0,11.2,46.3,20.2,100.9,20.2s100.9-8.9,100.9-20.2
			v283.5c0,62.8-30.7,122.1-79.7,161.3L1425,1040.3c-26.1,18.7-32.4,54.8-14.2,81.2c101.5,146.9,413.4,575.6,424,669.9
			C1834.9,1792.3,1834.9,1793.3,1834.9,1794.2z"/>
		<line class="st4" x1="1453" y1="725.2" x2="1453" y2="802.2"/>
		<polygon class="st5" points="933.9,1064.2 1267.6,1287.4 1204.5,900.8 1132.2,943.6 1149.2,1102.1 1005.8,1019.2 		"/>
		<path class="st5" d="M1824.2,1803.8c-12-33.1-171,5.1-362.1,74.6s-337.8,157.4-325.7,190.5s178.3-1.1,369.4-70.6
			S1836.3,1836.9,1824.2,1803.8z"/>
	</g>
	<g id="LEGS-2">
		<g id="RIGHT_LEG-2">
			<path class="st6" d="M1389,2494.3l-11,19.2l-12.2,21.4c-105.5,13.2-124.1-55.8-124.1-55.8l15.9-31.6
				C1300.2,2473.7,1354.2,2487.6,1389,2494.3z"/>
			<path d="M1769,1992.2c-75,129.3-344.7,507.7-344.7,507.7s-14.1-1.5-35.3-5.6c-34.8-6.8-88.8-20.6-131.5-46.8
				c-9.7-5.9-18.9-12.7-27.4-20.3l195.5-397l49.4-104.1l27.4-57.8c3.3-1.2,6.6-2.3,9.8-3.4c1.6-0.6,3.2-1.1,4.9-1.7
				c4.9-1.7,9.7-3.3,14.5-4.9c4-1.3,7.9-2.6,11.8-4c11.9-4,23.6-7.7,35-11.3c76.6-24.2,142.1-40.5,186.3-45.5
				c12.6,17.5,21.9,37.2,27.4,58.1C1801.4,1891.7,1800.3,1938.3,1769,1992.2z"/>
			<path class="st0" d="M1441.6,2789.4c-2.4,10.5-12.8,17-23.3,14.6c-3.6-0.8-6.8-2.6-9.4-5.2l-241.7-240.9l75.6-78.9
				c0,0,17.5,68.9,123.1,55.8C1451.2,2663.6,1451,2747.9,1441.6,2789.4z"/>
			<path class="st0" d="M1431.7,2804.6c-16.4,6.3-35,3-48.2-8.7L1257.3,2685c-3.1-2.8-3.5-7.5-0.9-10.8c2.5-3.1,2.3-7.7-0.6-10.5
				l-10.3-10c-2.8-2.8-7.3-2.9-10.3-0.3l-2.4,2c-2.8,2.5-7.1,2.5-9.9,0l-67.8-58.9c-8.3-7.3-9.1-19.9-1.8-28.2c0,0,0,0,0,0l0,0
				c0.3-0.4,0.7-0.7,1-1.1l11.8-11.4l243.2,245.5c6.4,6.6,16.6,7.6,24.3,2.6L1431.7,2804.6z"/>
			<path class="st4" d="M1398.8,2567c0,0,20.5,18.2-28.5,40.3"/>
			<path class="st4" d="M1411.7,2588.9c0,0,20.5,18.2-28.5,40.3"/>
			<path class="st4" d="M1424.6,2610.8c0,0,20.5,18.2-28.5,40.3"/>
			<path class="st1" d="M1792.1,1855.6c-65-0.1-131.6,11.2-195.8,29c-4.1-14.6-10.1-28.6-17.9-41.6c76.6-24.2,142.1-40.5,186.3-45.5
				C1777.3,1815,1786.6,1834.7,1792.1,1855.6z"/>
		</g>
		<g id="LEFT_LEG-2">
			<path class="st6" d="M1114.3,2484.2l-19.3,24.7l-15.2,19.4c-106.3-2.1-114.8-73-114.8-73l23.1-33.1l0,0
				C1028.2,2454.4,1082.4,2474.4,1114.3,2484.2z"/>
			<path d="M1598.5,1965.5c-5.8,24.7-18.2,51.3-41,78.7c-93.6,112.7-416.8,447.3-416.8,447.3s-126.2-28.4-180.1-96.4l217.6-309.1
				l0,0l80.3-114.1c55.4-29.5,125.8-60.8,203.6-89.2c40.6-14.8,79.7-28.1,116.3-39.7c7.7,13.1,13.7,27,17.9,41.6
				C1604,1910.9,1604.8,1938.8,1598.5,1965.5z"/>
			<path class="st0" d="M1118.2,2791.1c-3.8,10-15,15-25,11.2c-3.5-1.3-6.5-3.6-8.7-6.6l-204.7-273.1l86.1-67.3
				c0,0,7.4,70.9,113.8,73C1145.8,2668,1133.5,2751.4,1118.2,2791.1z"/>
			<path class="st0" d="M1106.3,2803.9c-17.1,3.9-35-2.1-46.4-15.4l-109-127.6c-2.7-3.2-2.4-7.9,0.6-10.8c3-2.7,3.3-7.3,0.9-10.5
				l-8.8-11.3c-2.4-3.1-6.8-3.9-10.2-1.8l-2.6,1.7c-3.2,2-7.3,1.4-9.8-1.4l-59-67.7c-7.2-8.3-6.3-20.8,2-27.9l0,0
				c0.4-0.4,0.9-0.7,1.3-1.1l13.3-9.6l205.7,276.9c5.5,7.4,15.3,9.9,23.7,6.1L1106.3,2803.9z"/>
			<path class="st4" d="M1109.9,2565.5c0,0,17.7,20.9-34,35.8"/>
			<path class="st4" d="M1121.6,2589c0,0,17.7,20.9-34,35.8"/>
			<path class="st4" d="M1131.2,2612.5c0,0,17.7,20.9-34,35.8"/>
			<path class="st1" d="M1596.4,1884.6c-41.2,11.6-81.7,25.4-121.3,41.4c-167.1,67.3-295.2,158.7-296.8,159.8l80.3-114.1
				c55.4-29.5,125.8-60.8,203.6-89.2c13.6-4.9,27-9.7,40.3-14.4c3.3-1.2,6.6-2.3,9.8-3.4c1.6-0.6,3.2-1.1,4.9-1.7
				c4.9-1.7,9.7-3.3,14.5-4.9c4-1.3,7.9-2.6,11.8-4c11.9-4,23.6-7.7,35-11.3C1586.1,1856,1592.1,1870,1596.4,1884.6z"/>
		</g>
	</g>
	<g id="ARMS-2">
		<g id="LEFT_ARM-2">
			<path class="st5" d="M983.2,1963.4c0,17.4-43.5,31.6-97.2,31.6s-97.2-14.1-97.2-31.6v-0.7c1.2-17.1,44.3-30.8,97.2-30.8
				s96,13.7,97.2,30.8V1963.4z"/>
			<path class="st6" d="M944,1939.9v82.1c0,26.5-14.7,50.9-38.1,63.4l-39.9,21.2c-9.7,5.2-20.6,7.9-31.6,7.9c-4.4,0-7.9-3.6-7.9-8
				c0,0,0,0,0,0l0,0l0,0c0-1.8,0.7-3.6,1.8-5l14.9-18c1.3-1.6,1.2-4-0.4-5.3c-0.7-0.6-1.6-0.9-2.5-0.9h-87.7l-16,20.2
				c-8.5,10.7-21.4,17-35.1,17h-4.6c-4.1,0-7.4-3.2-7.4-7.3c0-1.3,0.3-2.6,1-3.7l1.8-3.3c-5.6,2.3-11.6,3.6-17.6,3.6h-4.6
				c-4.1,0-7.4-3.2-7.4-7.3c0-1.3,0.3-2.6,1-3.7l35.9-39.6l24.9-9.8v0.1l123.7-48.6l0,0v-58.4c12.5-1.6,25.2-2.4,37.8-2.4
				C907.7,1934,927.7,1936.2,944,1939.9z"/>
			<line class="st4" x1="721.3" y1="2047.6" x2="691.3" y2="2099.1"/>
			<path class="st4" d="M835.6,2092.5L854,2070c2.3-2.8,2-7-0.9-9.4c-1.2-1-2.8-1.6-4.3-1.5"/>
		</g>
		<g id="RIGHT_ARM-2">
			<path class="st5" d="M1655.7,475.4c0,11.3-44.2,20.2-98.7,20.2s-98.7-8.9-98.7-20.2s44.2-20.6,98.7-20.6
				S1655.7,464.2,1655.7,475.4z"/>
			<path class="st6" d="M1526.9,491.9c-11-0.6-22-1.9-32.9-3.7v-97.1c0-3.2,0.7-6.4,2.1-9.3l31.4-64.8c5.8-12,18-19.6,31.3-19.6
				h38.5l-84.2,154.9c-0.4,0.7-0.7,1.4-1,2.1C1507.2,466.5,1513.3,482,1526.9,491.9z"/>
			<path class="st1" d="M1599.3,452.6l12.4-21.6v58.6c-10.2,1.3-21.7,2.4-34,2.9L1599.3,452.6z"/>
			<path class="st0" d="M1780.7,113.5l-205,377.2c-7.6,14-28.4,17.3-46.6,7.4s-26.7-29.2-19.1-43.1l205-377.2L1780.7,113.5z"/>
			
				<ellipse transform="matrix(0.4788 -0.8779 0.8779 0.4788 828.9457 1583.9718)" class="st7" cx="1748.6" cy="93.8" rx="28.9" ry="37.5"/>
			<path class="st3" d="M1655.1,251.9l96.9-80.2l-1.5,29.2l31,7.7l-74,45.7c56.8-12.2,158.8-29.4,174.3,0.6
				c6.1,11.8-5.4,35.9-13.1,53.2c-4.8,36.5,186.6-8.7,188.8-9.2l-29.5,27.3l29.5,16.8c0,0-160.6,30.6-202,22.2
				c-23.4-4.8-4.8-36.2,11.5-59.2c5-17.7-34.8-23.5-200.3-5.5L1655.1,251.9z"/>
			<circle class="st0" cx="1656.5" cy="271.5" r="28.6"/>
			<path class="st6" d="M1678.9,367.3l-9.2,21.6l-10.8,25.2l-5.8,13.7l-8.9,20.9c-0.2,0.6-0.5,1.2-0.8,1.7c0,0,0,0.1-0.1,0.1
				c0,0,0,0,0,0l0,0c-3.1,5-8.5,8-14.4,8h-70.6c-8.5,0-14.4-8.1-11.2-15.6l5.1-12l11.3-26.5l9.7-22.8l8.5-20.1
				c2.7-6,8.7-9.8,15.3-9.7h70.6C1676.3,351.7,1682.1,359.8,1678.9,367.3z"/>
			<path class="st4" d="M1575.7,381.5c3-3.3,7.3-5.2,11.8-5.2h67.4c6.3,0,11.5,5,11.6,11.4c0,0.4,0,0.8-0.1,1.2"/>
			<path class="st4" d="M1566.5,404.4c3-3,7-4.6,11.2-4.6h67.4c6.3-0.1,11.4,4.9,11.5,11.2c0,0,0,0,0,0c0,1-0.1,2.1-0.4,3.1"/>
			<path class="st4" d="M1555.9,430.8c3-2.8,6.9-4.3,10.9-4.3h67.4c6.2-0.1,11.4,4.9,11.5,11.1c0,0,0,0,0,0l0,0
				c0,1.3-0.2,2.6-0.6,3.9l0,0"/>
			<path class="st6" d="M1636,297.3v1.8c0,18.3-14.8,33.2-33.2,33.2H1568v-35L1636,297.3z"/>
		</g>
	</g>
	<g id="HEAD-4">
		<g id="CAP-2">
			<path class="st3" d="M790.9,1079.6c-3.2,4.8-6.5,9.3-9.8,13.4c-3.7-0.9-7.2-2.5-10.3-4.6c-3.1-2.1-5.9-4.8-8.1-7.9
				c2.6-4.5,5.5-9.3,8.8-14.1c16.2-24,33.6-40.5,39-36.9S807.1,1055.6,790.9,1079.6z"/>
			<path class="st3" d="M938.3,719.3L813.4,903.7c-0.9,1.3-0.5,3,0.7,3.8c0.7,0.5,1.6,0.6,2.4,0.4l59.7-19.2
				c-7.6,9-11.8,20.4-11.8,32.2V979c0,22.7-18,41.2-40.7,41.8c-2.3-4.1-7.5-5.6-11.6-3.3c-0.7,0.4-1.3,0.9-1.9,1.4
				c-1.6,1.6-2.5,3.7-2.4,6c0,4.7,3.8,8.4,8.5,8.4l0,0c4.2,0,7.7-3.1,8.3-7.2c25.2-1.2,45-21.9,45.1-47.1v-58.1
				c0-14.1,6.7-27.4,18-35.9l120.1-38.6L1162,719.3H938.3z M818.5,1026.9c-1.2,1.2-3.2,1.2-4.4,0c-1.2-1.2-1.2-3.2,0-4.4
				c0.6-0.6,1.4-0.9,2.2-0.9l0,0c1.7,0,3.1,1.3,3.1,3v0.1C819.5,1025.5,819.1,1026.4,818.5,1026.9z"/>
			<path class="st1" d="M802.5,903.3c-0.5,0-1.1-0.2-1.5-0.5c-1.2-0.8-1.5-2.5-0.7-3.7l130.2-192.2h235.8c1.5,0,2.7,1.2,2.7,2.7
				s-1.2,2.7-2.7,2.7l0,0h-233L804.7,902.1C804.2,902.9,803.4,903.3,802.5,903.3z"/>
			<path class="st1" d="M934.1,872.3l-15-6.8l0.8-2.3c0.3-0.9,7.6-22.1,25.6-44.6c16.7-20.9,46-46.6,91.1-51l2.6-0.2l2.6,18.9
				l-5.3,0.7l-1.9-13.8c-41.8,4.8-69.2,29-84.9,48.7c-9.9,12.4-17.9,26.1-23.8,40.8l10.5,4.8L934.1,872.3z"/>
		</g>
		<g id="HEAD-5">
			<g id="NECK-2">
				<polygon class="st6" points="1010.1,1018.1 979.8,919.1 1050.7,884.4 1079.9,906.6 1130.1,944.7 1145.3,1096.1 				"/>
			</g>
			<path id="HEAD-6" class="st6" d="M1019.8,925.6c-5.1,0.5-15.4-4.7-27.1-12.1L979,924.6c-8,6.3-19.6,4.9-25.9-3.1
				c-6.1-7.8-5-19.1,2.6-25.5l5.6-4.6c-14.7-11-26.2-20.5-26.2-20.5s25.5-76.6,107-84.4c0,0,43.2,89.3,46.1,97.8
				S1048.6,922.7,1019.8,925.6z"/>
			<path id="HAIR-3" class="st8" d="M961.3,891.4c-14.7-11-26.2-20.5-26.2-20.5s9.4-28.3,35.2-52.3
				C943.3,845.5,983.6,875.5,961.3,891.4z"/>
			<g id="FACE">
				<path class="st0" d="M975.5,839.8c0,0,4.3-11.6,15.2-17.6"/>
				<path class="st1" d="M1053.5,810.4c0,0-15.1-2.1-22.6,2.5s-7.5,28.4,4.5,43.3"/>
				<path class="st1" d="M1042.6,871.1c0,0-9.3,8.3-25.1,2.2"/>
				<path class="st0" d="M1019,868.9c0,0-3.3,4.7-3.1,10"/>
				
					<ellipse transform="matrix(0.9658 -0.2593 0.2593 0.9658 -186.035 287.8325)" class="st0" cx="997.9" cy="849" rx="3" ry="5.9"/>
				
					<ellipse transform="matrix(0.9658 -0.2593 0.2593 0.9658 -179.5296 298.7977)" class="st0" cx="1042.7" cy="829.9" rx="2.7" ry="5.5"/>
				<path class="st1" d="M997.9,919.5l-23.1-18c-2.6-2-6.2-1.8-8.6,0.4l-1.4,1.3c-2.6,2.5-2.7,6.6-0.3,9.1c0,0,0,0,0,0l0,0l0.2,0.2"
					/>
			</g>
		</g>
	</g>
</g>
</svg>
