<?xml version="1.0" encoding="utf-8"?>
<!-- Generator: Adobe Illustrator 25.3.1, SVG Export Plug-In . SVG Version: 6.00 Build 0)  -->
<svg version="1.1" id="Слой_1" xmlns="http://www.w3.org/2000/svg" xmlns:xlink="http://www.w3.org/1999/xlink" x="0px" y="0px"
	 viewBox="0 0 3570.6 2495.4" style="enable-background:new 0 0 3570.6 2495.4;" xml:space="preserve">
<style type="text/css">
	.st0{fill:#FFFFFF;stroke:#000000;stroke-width:6;stroke-miterlimit:10;}
	.st1{fill:none;stroke:#000000;stroke-width:6;stroke-miterlimit:10;}
	.st2{fill:#21409A;stroke:#000000;stroke-width:5;stroke-miterlimit:10;}
	.st3{stroke:#000000;stroke-width:6;stroke-miterlimit:10;}
	.st4{fill:none;}
	.st5{fill:#D6A5B0;stroke:#000000;stroke-width:6;stroke-miterlimit:10;}
	.st6{fill:none;stroke:#000000;stroke-width:6;stroke-linecap:round;stroke-miterlimit:10;}
	.st7{fill:#FFFFFF;stroke:#000000;stroke-width:5;stroke-miterlimit:10;}
	.st8{fill:none;stroke:#000000;stroke-width:5;stroke-miterlimit:10;}
	.st9{fill:none;stroke:#000000;stroke-width:4.9796;stroke-miterlimit:9.9592;}
	.st10{stroke:#000000;stroke-width:5;stroke-miterlimit:10;}
	.st11{fill:#A2666F;stroke:#000000;stroke-width:6;stroke-miterlimit:10;}
	.st12{fill:#FFFFFF;stroke:#000000;stroke-width:6;stroke-linecap:round;stroke-miterlimit:10;}
	.st13{fill:#A0505A;stroke:#000000;stroke-width:6;stroke-miterlimit:10;}
	.st14{fill:#A0505A;stroke:#000000;stroke-width:6;stroke-linecap:round;stroke-miterlimit:10;}
</style>
<g id="TABLE">
	<polygon class="st0" points="3075.4,1030.8 475.9,1030.8 1188,552.2 2325,552.2 	"/>
	<path class="st1" d="M3567.8,2494.5l-428.3-1416.2c-8.6-28.2-34.6-47.5-64.1-47.5H475.9c-29.8,0-56,19.7-64.3,48.4L2.9,2494.5"/>
</g>
<g id="BOY">
	<path id="PAPER" class="st2" d="M1582.6,767.4h268.6v230.7h-268.6V767.4z"/>
	<g id="CHAIR">
		<line class="st1" x1="3043.9" y1="1528.3" x2="3160" y2="2494.5"/>
		<line class="st1" x1="2540.7" y1="1528.3" x2="2424.6" y2="2494.5"/>
		<line class="st1" x1="2464.4" y1="2162.7" x2="3120.1" y2="2162.7"/>
	</g>
	<g id="BOY-2">
		<g id="LEGS">
			<polygon class="st3" points="2587,1839.3 2462.1,1528.3 2663.2,1528.3 			"/>
			<path class="st3" d="M2244.3,1113.2L2244.3,1113.2c26.8-50.7,79.5-82.4,136.8-82.4h154.7l105.1,82.4H2244.3z"/>
			<path d="M2830.8,1477.3h-389.7l146.7,356.1c-10.2-16.6-71.3,0.7-136,40.4c-63.9,39.2-107.1,86.4-98.3,103.6l-316.2-550.2
				c-82-138.8,18-314,179.2-314h873.3l1.9,6C3148.7,1296.2,3016.7,1477.3,2830.8,1477.3z"/>
			<path d="M3104.9,1215.3c-1.4,32-8.4,63.5-20.8,93l-458-195h454.6l10.6,31C3098.7,1162.9,3102.8,1189,3104.9,1215.3z"/>
			<path d="M2587.9,1833.4c10.2,16.6-34.4,61.9-99,101.6s-124.8,59.6-135,43s33.3-63.5,98-103.2S2577.6,1816.8,2587.9,1833.4z"/>
			<path d="M2444.4,1875L2160,1372.2c-22.3-39.8,6.4-89,52.1-89H2766c74.6,0,130.3-68.7,114.9-141.7"/>
			<path d="M2350.6,1979.1c-10.2-16.6,33.9-69.4,101.3-108.7c75.7-44.1,124.7-57.2,139.3-33.8"/>
			<line class="st4" x1="2593.4" y1="1838.8" x2="2407.6" y2="1395.8"/>
			<line class="st4" x1="2205.6" y1="1109.9" x2="2658.9" y2="1109.9"/>
			<path class="st5" d="M2462,2000.9l-27-36.8l-37.2-50.6c17-14.2,35.1-27.1,54-38.7c40.8-25,80.1-41.6,106.2-46.2l18.1,36.1
				l22.6,45C2582.7,1966.6,2462,2000.9,2462,2000.9z"/>
			<path class="st0" d="M2722.3,2108l-274.4,197.1c-23.3,16.2-59.5,29.7-54.7-28.9c6.7-80.8,24.6-201,68.8-275.4l0,0
				c1.9-0.5,120.7-34.8,136.7-91.2l125.1,88.9C2759.8,2026.5,2759,2081.1,2722.3,2108z"/>
			<path class="st6" d="M2449.3,2026.9c21.8,4.1,144.2-39.3,163.2-106.2"/>
			<path class="st1" d="M2419.8,2284.8c0,0,179.1-248.8,306.5-234.8C2865,2065.1,2306.4,2429.9,2419.8,2284.8z"/>
			<path class="st6" d="M2414.7,2318.7c-13.9,0.9-28.6-15.3-8.3-41.3c0,0,186.4-258,319.1-243.4c20.5,2.2,27.4,18.9,22.6,33.3"/>
		</g>
		<g id="T-SHIRT">
			<path class="st2" d="M3105.9,1235.6c-63.4-15-221.2-54.5-401.2-96.1c-84.6-19.5-155.4-77.1-191.9-155.9L2348.9,629l99.2-157.2
				c30.5-48.4,82.5-79.2,139.6-82.7l97.6-6c98.4-6,177.4,55.4,207.4,149.3l198.5,580.8C3113,1167.6,3105.9,1235.6,3105.9,1235.6z"/>
			<path class="st7" d="M2505.6,499.7L2505.6,499.7c-4.2-4.5-11.2-4.7-15.7-0.6l0,0c-1.1,1-1.9,2.1-2.5,3.4l0,0
				c-2.6,5.6-0.1,12.1,5.4,14.7c2,0.9,4.1,1.2,6.3,0.9l0,0c6-0.8,10.3-6.3,9.4-12.4C2508.2,503.5,2507.2,501.4,2505.6,499.7z"/>
			<path class="st7" d="M2754.7,670.6L2754.7,670.6c-4.2-4.5-11.2-4.7-15.7-0.6l0,0c-1.1,1-1.9,2.1-2.5,3.4l0,0
				c-2.6,5.6-0.1,12.1,5.4,14.7c2,0.9,4.1,1.2,6.3,0.9l0,0c6-0.8,10.3-6.3,9.4-12.4C2757.3,674.5,2756.3,672.3,2754.7,670.6z"/>
			<path class="st7" d="M2833.6,740.6L2833.6,740.6c-4.2-4.5-11.2-4.7-15.7-0.6l0,0c-1.1,1-1.9,2.1-2.5,3.4l0,0
				c-2.6,5.6-0.1,12.1,5.4,14.7c2,0.9,4.1,1.2,6.3,0.9l0,0C2835.9,757.9,2839.6,747.2,2833.6,740.6z"/>
			<path class="st7" d="M2984.9,1136.7L2984.9,1136.7c-4.2-4.5-11.2-4.7-15.7-0.6l0,0c-1.1,1-1.9,2.1-2.5,3.4l0,0
				c-2.6,5.6-0.1,12.1,5.4,14.7c2,0.9,4.1,1.2,6.3,0.9l0,0c6.1-0.9,10.2-6.6,9.3-12.6C2987.4,1140.4,2986.4,1138.3,2984.9,1136.7
				L2984.9,1136.7z"/>
			<path class="st7" d="M2900.2,947.4L2900.2,947.4c-4.2-4.5-11.2-4.7-15.7-0.6l0,0c-1.1,1-1.9,2.1-2.5,3.4l0,0
				c-2.6,5.6-0.1,12.1,5.4,14.7c2,0.9,4.1,1.2,6.3,0.9l0,0c6-0.8,10.3-6.3,9.4-12.4C2902.8,951.2,2901.8,949.1,2900.2,947.4
				L2900.2,947.4z"/>
			<path class="st7" d="M2935.3,811.2L2935.3,811.2c-6.1,0.8-10.4,6.4-9.5,12.5c0.2,1.4,0.6,2.8,1.3,4l0,0c3,5.3,9.7,7.2,15.1,4.2
				c1.9-1.1,3.5-2.7,4.4-4.7l0,0c2.8-5.4,0.8-12-4.6-14.9C2939.9,811.3,2937.6,810.9,2935.3,811.2z"/>
			<path class="st7" d="M2999.2,1013.2L2999.2,1013.2c-6.1,0.8-10.4,6.4-9.5,12.5c0.2,1.4,0.6,2.8,1.3,4l0,0c3,5.3,9.7,7.2,15.1,4.2
				c1.9-1.1,3.5-2.7,4.4-4.7l0,0c2.8-5.4,0.8-12-4.6-14.9C3003.8,1013.3,3001.5,1012.9,2999.2,1013.2z"/>
			<path class="st7" d="M2734.2,795.3L2734.2,795.3c-4.2-4.5-11.2-4.7-15.7-0.6l0,0c-1.1,1-1.9,2.1-2.5,3.4l0,0
				c-2.6,5.6-0.1,12.1,5.4,14.7c2,0.9,4.1,1.2,6.3,0.9l0,0c6.1-0.9,10.2-6.6,9.3-12.6C2736.7,799,2735.7,796.9,2734.2,795.3
				L2734.2,795.3z"/>
			<path class="st7" d="M2679.1,908.6L2679.1,908.6c-4.2-4.5-11.2-4.7-15.7-0.6l0,0c-1.1,1-1.9,2.1-2.5,3.4l0,0
				c-2.6,5.6-0.1,12.1,5.4,14.7c2,0.9,4.1,1.2,6.3,0.9l0,0c6-0.8,10.3-6.3,9.4-12.4C2681.7,912.5,2680.7,910.3,2679.1,908.6
				L2679.1,908.6z"/>
			<path class="st7" d="M2580.5,869L2580.5,869c4.5-4.2,4.7-11.2,0.6-15.7l0,0c-1-1.1-2.1-1.9-3.4-2.5l0,0
				c-5.6-2.6-12.1-0.1-14.7,5.4c-0.9,2-1.2,4.1-0.9,6.3l0,0c0.9,6.1,6.6,10.2,12.6,9.3C2576.8,871.5,2578.8,870.5,2580.5,869z"/>
			<path class="st7" d="M2668,1064L2668,1064c4.5-4.2,4.7-11.2,0.6-15.7l0,0c-1-1.1-2.1-1.9-3.4-2.5l0,0c-5.6-2.6-12.1-0.1-14.7,5.4
				c-0.9,2-1.2,4.1-0.9,6.3l0,0c0.8,6,6.3,10.3,12.4,9.4C2664.2,1066.6,2666.3,1065.6,2668,1064z"/>
			<path class="st7" d="M2815.3,896.7L2815.3,896.7c4.5-4.2,4.7-11.2,0.6-15.7l0,0c-1-1.1-2.1-1.9-3.4-2.5l0,0
				c-5.6-2.6-12.1-0.1-14.7,5.4c-0.9,2-1.2,4.1-0.9,6.3l0,0c0.9,6.1,6.5,10.2,12.6,9.3C2811.6,899.2,2813.6,898.2,2815.3,896.7z"/>
			<path class="st7" d="M2865.6,1106.1L2865.6,1106.1c4.5-4.2,4.7-11.2,0.6-15.7l0,0c-1-1.1-2.1-1.9-3.4-2.5l0,0
				c-5.6-2.6-12.1-0.1-14.7,5.4c-0.9,2-1.2,4.1-0.9,6.3l0,0c0.8,6,6.3,10.3,12.4,9.4C2861.7,1108.7,2863.9,1107.7,2865.6,1106.1z"/>
			<path class="st7" d="M2564,682L2564,682c-4.2-4.5-11.2-4.7-15.7-0.6l0,0c-1.1,1-1.9,2.1-2.5,3.4l0,0c-2.6,5.6-0.1,12.1,5.4,14.7
				c2,0.9,4.1,1.2,6.3,0.9l0,0c6-0.8,10.3-6.3,9.4-12.4C2566.6,685.8,2565.6,683.7,2564,682z"/>
			<path class="st7" d="M2581.9,422.6L2581.9,422.6c-4.2-4.5-11.2-4.7-15.7-0.6l0,0c-1.1,1-1.9,2.1-2.5,3.4l0,0
				c-2.6,5.6-0.1,12.1,5.4,14.7c2,0.9,4.1,1.2,6.3,0.9l0,0c6-0.8,10.3-6.3,9.4-12.4C2584.5,426.5,2583.5,424.3,2581.9,422.6z"/>
			<path class="st7" d="M2754.7,422.6L2754.7,422.6c-4.2-4.5-11.2-4.7-15.7-0.6l0,0c-1.1,1-1.9,2.1-2.5,3.4l0,0
				c-2.6,5.6-0.1,12.1,5.4,14.7c2,0.9,4.1,1.2,6.3,0.9l0,0c6-0.8,10.3-6.3,9.4-12.4C2757.3,426.5,2756.3,424.3,2754.7,422.6z"/>
			<path class="st7" d="M2755,534.6L2755,534.6c-5.7,2.3-8.5,8.7-6.2,14.4c0.5,1.3,1.3,2.6,2.3,3.6l0,0c4.3,4.4,11.3,4.5,15.7,0.3
				c1.5-1.5,2.6-3.4,3.1-5.5l0,0c1.4-6-2.4-11.9-8.3-13.3C2759.4,533.6,2757.1,533.8,2755,534.6z"/>
			<path class="st7" d="M2656.8,470.8L2656.8,470.8c-5.9,1.7-9.3,7.8-7.6,13.7c0.4,1.4,1,2.6,1.9,3.8l0,0c3.8,4.8,10.8,5.6,15.6,1.9
				c1.7-1.3,3-3.1,3.6-5.2l0,0c2-5.7-1-12-6.7-14C2661.4,470.2,2659,470.1,2656.8,470.8z"/>
			<path class="st7" d="M2642.3,747.8L2642.3,747.8c-6.1,0.7-10.4,6.3-9.7,12.4c0.2,1.4,0.6,2.8,1.3,4l0,0c3,5.4,9.7,7.3,15.1,4.3
				c1.9-1,3.4-2.6,4.4-4.5l0,0c2.9-5.4,0.8-12.1-4.6-15C2646.8,748,2644.5,747.5,2642.3,747.8z"/>
			<path class="st7" d="M2556.6,956.1L2556.6,956.1c-6.1,0.7-10.4,6.3-9.7,12.4c0.2,1.4,0.6,2.8,1.3,4l0,0c3,5.4,9.7,7.3,15.1,4.3
				c1.9-1,3.4-2.6,4.4-4.5l0,0c2.9-5.4,0.8-12.1-4.6-15C2561.1,956.3,2558.8,955.8,2556.6,956.1L2556.6,956.1z"/>
			<path class="st7" d="M2585.4,553.4L2585.4,553.4c-5.9,1.7-9.3,7.8-7.6,13.7c0.4,1.4,1,2.6,1.9,3.8l0,0c3.8,4.8,10.8,5.6,15.6,1.9
				c1.7-1.3,3-3.1,3.6-5.2l0,0c2-5.8-1.2-12.1-7-14C2589.8,552.9,2587.5,552.8,2585.4,553.4z"/>
			<path class="st7" d="M2668.2,609.4L2668.2,609.4c-5.9,1.7-9.3,7.8-7.6,13.7c0.4,1.4,1,2.6,1.9,3.8l0,0c3.8,4.8,10.8,5.6,15.6,1.9
				c1.7-1.3,3-3.1,3.6-5.2l0,0c2-5.7-1-12-6.7-14C2672.8,608.8,2670.4,608.7,2668.2,609.4z"/>
			<path class="st7" d="M2488.9,607L2488.9,607c3.9-4.7,3.3-11.6-1.4-15.5c-1.1-1-2.5-1.7-3.9-2.1l0,0c-5.8-1.9-12,1.3-13.8,7.1
				c-0.7,2.1-0.7,4.4-0.1,6.5l0,0c1.7,5.9,7.8,9.3,13.7,7.6C2485.5,610,2487.4,608.7,2488.9,607z"/>
			<path class="st7" d="M2868,607.3L2868,607.3c3.9-4.7,3.3-11.6-1.4-15.5c-1.1-1-2.5-1.7-3.9-2.1l0,0c-5.8-1.9-12,1.3-13.8,7.1
				c-0.7,2.1-0.7,4.4-0.1,6.5l0,0c1.7,5.9,7.8,9.3,13.7,7.6C2864.6,610.3,2866.6,609.1,2868,607.3z"/>
			<path class="st7" d="M2771.8,1012.7L2771.8,1012.7c3.9-4.7,3.3-11.6-1.4-15.5c-1.1-1-2.5-1.7-3.9-2.1l0,0
				c-5.8-1.9-12,1.3-13.8,7.1c-0.7,2.1-0.7,4.4-0.1,6.5l0,0c1.7,5.9,7.9,9.3,13.8,7.5C2768.5,1015.6,2770.4,1014.4,2771.8,1012.7z"
				/>
		</g>
		<g id="HEAD">
			<g id="NECK">
				<path class="st5" d="M2692,379.8l-6.7,0.3l-97.6,6c-24.5,1.5-48.5,8.1-70.3,19.3l-30-89.8l133.7-98L2692,379.8z"/>
			</g>
			<g id="HEAD-2">
				<path class="st5" d="M2629.7,226.6c-0.1,18.6-15.1,33.6-33.7,33.7h-29.4c-11.6,45.1-56.5,76-104.8,67.5l-22.1-3.9
					c-24.2-4.3-40.7-26.9-37.3-51.2l25.9-129.7c4-24.5,27-41.1,51.5-37.2c2.7,0.4,5.4,1.1,8,2.1l42.9,17.2
					c23.2,8,38.8,29.8,38.8,54.3v12.5l26.5,1C2614.6,192.9,2629.7,208,2629.7,226.6z"/>
				<path class="st8" d="M2579.9,233.1c0-12.8,10.4-23.3,23.2-23.3l0,0h0.1"/>
				<path class="st8" d="M2442.7,170.3c0,0,21,0,36,20.1"/>
				
					<ellipse transform="matrix(0.1807 -0.9835 0.9835 0.1807 1793.0767 2592.8164)" class="st9" cx="2452.8" cy="220.1" rx="10.7" ry="5"/>
			</g>
			<g id="HAIR">
				<path class="st10" d="M2596,192.9c18.6,0,33.7,15.1,33.7,33.7v0.5c15-23.1,51.8-81.9,51.8-101.8c0-26.7-33.3-53.4-67.8-41.2
					c2.3-1.7,4.7-3.5,7.2-5.4c13.3-10.4,20.3-18.2,21.4-23.8c0.4-1.8,0.1-3.7-0.9-5.2c-4-5.7-8.4-8.2-13.1-7.4
					c-6.9,1.1-14,9.6-21.1,25.2c-2.7,6-5,12.1-7.1,18.4c-2.8-16.7-16.3-72-74.3-63.5c-20,2.9-29.4,11.2-32,20.3
					c-16.6-13-38.8-23.2-57.2-13.5c-31.8,16.7-27.9,44.1-9.5,63.5c-17.4-0.3-29.6,4.8-29.6,19.5c0,13.5,13.9,20,33,22.6
					s43.6,1.2,64.8-1.2c15.1-1.7,28.7-3.8,37.4-5.3c-5.8,11.9-8.1,22.1-7.6,30.7c0.9,17.8,13.8,28.3,32,32c4.1,0.8,8.2,1.3,12.4,1.5
					L2596,192.9z M2628.9,46.3c0.3-0.1,0.7-0.1,1-0.1c2.8,0,5.5,2,8.2,5.8c0.4,0.6,0.5,1.4,0.3,2.1c-1.6,8.1-22.1,23.5-34,31.6
					C2609.1,71.9,2619,48,2628.9,46.3z"/>
				<path class="st10" d="M2516.2,75.9c-6.9,0-13.9-3.7-19-10.2c-5.7-7.2-7.6-16.1-5.2-23.8c0.3-1,1.3-1.6,2.3-1.4
					c0.4,0,0.8,0.1,1.1,0.4c15.1,10.8,27.2,26.2,25.4,32.3c-0.4,1.6-1.8,2.7-3.4,2.7H2516.2z M2495.2,45.7
					c-0.8,6.3,1.1,12.6,5.1,17.5c4.5,5.7,10.7,9,16.7,8.6C2517.2,69.2,2510.5,57.3,2495.2,45.7z"/>
			</g>
		</g>
		<g id="HANDS">
			<g id="LEFT">
				<path class="st5" d="M2318.8,958.9h-640c-11,0-20-9-20-20c0-3.8,1.1-7.5,3.1-10.7l85.2-133.8c11-17.4,30.2-27.9,50.8-27.9h433.2
					L2318.8,958.9z"/>
				<path class="st2" d="M1812,766.6l51-84c3-5,8.4-8.1,14.3-8.1l0,0c9.3,0,16.8,7.5,16.8,16.8c0,3.1-0.9,6.1-2.5,8.7l-40.5,66.6
					H1812z"/>
				<path class="st2" d="M1769.2,869.1H1689c-5.4,0-10.4,2.9-13.1,7.6l-8.5,14.8c-4.1,7.2-1.7,16.3,5.5,20.5c2.3,1.3,4.9,2,7.6,2
					h64.5c11.2,0,21.6-5.8,27.5-15.4l6.9-11.3c3.4-5.7,1.6-13.1-4.1-16.5C1773.5,869.7,1771.4,869.1,1769.2,869.1L1769.2,869.1z"/>
				<path class="st2" d="M1748.5,914h-80.2c-5.4,0-10.4,2.9-13.1,7.6l-8.5,14.8c-4.1,7.2-1.7,16.3,5.5,20.5c2.3,1.3,4.9,2,7.6,2
					h64.5c11.2,0,21.6-5.8,27.5-15.4l6.9-11.3c3.4-5.7,1.6-13.1-4.1-16.5C1752.8,914.6,1750.6,914,1748.5,914L1748.5,914z"/>
				<path class="st2" d="M1792.1,823.6h-80.2c-5.4,0-10.4,2.9-13.1,7.6l-8.5,14.8c-4.1,7.2-1.7,16.3,5.5,20.5c2.3,1.3,4.9,2,7.6,2
					h64.5c11.2,0,21.6-5.8,27.5-15.4l6.9-11.3c3.4-5.7,1.6-13.1-4.1-16.5C1796.4,824.2,1794.2,823.6,1792.1,823.6L1792.1,823.6z"/>
				<path class="st5" d="M1769.2,869.1H1689c-5.4,0-10.4,2.9-13.1,7.6l-8.5,14.8c-4.1,7.2-1.7,16.3,5.5,20.5c2.3,1.3,4.9,2,7.6,2
					h64.5c11.2,0,21.6-5.8,27.5-15.4l6.9-11.3c3.4-5.7,1.6-13.1-4.1-16.5C1773.5,869.7,1771.4,869.1,1769.2,869.1L1769.2,869.1z"/>
				<path class="st5" d="M1748.5,914h-80.2c-5.4,0-10.4,2.9-13.1,7.6l-8.5,14.8c-4.1,7.2-1.7,16.3,5.5,20.5c2.3,1.3,4.9,2,7.6,2
					h64.5c11.2,0,21.6-5.8,27.5-15.4l6.9-11.3c3.4-5.7,1.6-13.1-4.1-16.5C1752.8,914.6,1750.6,914,1748.5,914L1748.5,914z"/>
				<path class="st5" d="M1792.1,823.6h-80.2c-5.4,0-10.4,2.9-13.1,7.6l-8.5,14.8c-4.1,7.2-1.7,16.3,5.5,20.5c2.3,1.3,4.9,2,7.6,2
					h64.5c11.2,0,21.6-5.8,27.5-15.4l6.9-11.3c3.4-5.7,1.6-13.1-4.1-16.5C1796.4,824.2,1794.2,823.6,1792.1,823.6L1792.1,823.6z"/>
				<path class="st5" d="M1908.2,890.5c-24.1,0-47.4-8.7-65.5-24.6l-30.4-26.6h-28l-7.2,7.7c-12.9,13.8-28.8,21.7-47.7,21.7H1716
					c-4.9,0-8.9-4-8.9-8.9c0-1.7,0.5-3.3,1.4-4.8l33.7-52.8h166.1L1908.2,890.5L1908.2,890.5L1908.2,890.5z"/>
				<path class="st8" d="M1742.2,802.2l-33.7,52.8c-2.6,4.1-1.4,9.7,2.7,12.3c1.4,0.9,3.1,1.4,4.8,1.4h13.4
					c18.9,0,34.8-7.8,47.7-21.7l7.2-7.7h28l30.4,26.6c18.1,15.8,41.4,24.6,65.5,24.6"/>
			</g>
			<g id="RIGHT">
				<path class="st5" d="M2583.4,771.9l-152.7,170.6c-32.1,35.9-78,56.4-126.2,56.4l0,0c-95.2,0-161.1-95-127.7-184.2l181.4-426.2
					l-61.3-34.3c-8.7-6.8-12.9-17.8-11-28.7l10.4-70.1c3.2-15.6,19.1-27.8,34.6-31.4l71.8-16.2c4.7-1.1,9.5,1.8,10.6,6.6l0,0
					c0.3,1.1,0.3,2.2,0.1,3.3l-10.4,54.1c-4.1,26.4,13.7,49.2,40.1,53.7l0,0c21.6,3.7,36.8,25.4,34.8,47.2l-48.9,305
					C2428.9,677.9,2479,756,2583.4,771.9z"/>
				<line class="st8" x1="2466.3" y1="445.2" x2="2407.3" y2="828.3"/>
				<path class="st8" d="M2344,260.5l-0.8,24.8c-0.3,10.2,5.8,19.2,14.6,21.7l91.9,18.6"/>
				<path class="st8" d="M2512.2,333.6l-73.5-9.8c-24.2-4.3-40.7-26.9-37.3-51.2l9.5-54.3c0.7-3.9-1.9-7.6-5.8-8.3
					c-1-0.2-2-0.1-2.9,0.1l-75,17.5"/>
				<line class="st8" x1="2471.6" y1="896.5" x2="2670.4" y2="675.3"/>
				<line class="st8" x1="2360.3" y1="388.6" x2="2395.4" y2="388.6"/>
				<path class="st8" d="M2344.1,267.1v8c0,9.5,6.9,17.3,15.4,17.3h11c4.8,0,8.6-4.3,8.6-9.7l0.7-52.2c0.1-8.1-8.5-13.1-15.5-11.4"
					/>
				<path class="st8" d="M2379.8,267.1v8c0,9.5,6.9,17.3,15.4,17.3h7"/>
			</g>
		</g>
	</g>
</g>
<g id="GIRL">
	<g id="PAPER-2">
		<polygon class="st1" points="1423.8,800.1 1327.2,998.9 1035.3,998.9 1152.6,800.1 		"/>
		<path class="st1" d="M1359.8,848.6c0,0-12.7-21.7-43.2-16.1c-22.8,4.1-49.8,22.9-66.4,12.8s-31.3-22.7-52.8-16.7
			c-13.3,3.8-25.9,9.7-37.4,17.5"/>
		<path class="st1" d="M1349.8,879.6c0,0-12.7-21.7-43.2-16.1c-22.8,4.1-49.8,22.9-66.4,12.8s-31.3-22.7-52.8-16.7
			c-13.3,3.8-25.9,9.7-37.4,17.5"/>
	</g>
	<g id="GIRL-2">
		<g id="LEGS-2">
			<g id="LEFT-2">
				<path class="st2" d="M1533.6,1692.3c0,26.7-74.1,48.3-166.9,48.3S1202,1719,1202,1692.3s71.9-48.3,164.7-48.3
					S1533.6,1665.7,1533.6,1692.3z"/>
				<path class="st11" d="M1490.9,1659.8v345l-10.5-49.8c-13.3-62.7-74.9-102.7-137.6-89.4c-8,1.7-15.8,4.2-23.2,7.6
					c-0.5,0.2-1,0.5-1.6,0.7l-38.5-140.4l-21.4-78.1c29.3-7.1,67.2-11.4,108.6-11.4C1415.9,1644,1460.2,1650.1,1490.9,1659.8z"/>
				<path class="st1" d="M1483.5,1994.7c2.7,0.8,28.1,7.9,50.6,7.9c12.2,0,23.5-2.1,29.9-8.5c5.5-5.5,6.8-13.5,3.9-23.6
					c-2.6-9-7.6-14.6-14.9-16.6c-13.4-3.6-32,6.4-46.7,16.9c22.9-27.8,45.5-63.1,37.1-86.2c-2.8-8-9.9-13.7-18.3-14.7
					c-7.1-0.8-13.7,1.7-16.8,6.4c-14.4,21.9-26.2,111.8-26.7,115.6L1483.5,1994.7z M1512.5,1879.1c1.8-2.7,5.6-4.3,10-4.3
					c0.7,0,1.4,0,2.1,0.1c6.6,0.7,12.1,5.1,14.2,11.4c2.2,6.1,3,17.3-5.9,36.1c-8.4,17.8-23.6,38.7-45.2,62.4
					C1490.9,1962,1501.1,1896.4,1512.5,1879.1z M1560.5,1990.6c-6.6,6.6-21.6,8.6-43.5,5.8c-9.4-1.2-18.7-3-27.9-5.4
					c6.9-6.1,14.1-11.8,21.6-17.1c17.8-12.3,32-17.6,41.1-15.1c5.5,1.5,9.2,5.8,11.4,13.1
					C1565.6,1980.3,1564.7,1986.4,1560.5,1990.6z"/>
				<path class="st0" d="M1280.5,1901.9l-23.1,25.9c-26.2,29.3-30.5,72.3-10.6,106.2l101.7,174.4c19.9,34.1,56.4,55,95.8,55h42.1
					c26.4,0,47.9-21.4,47.9-47.8l0,0c0-3.4-0.3-6.7-1-10l-53-250.5c-11.3-53.6-58.6-91.9-113.4-91.9l0,0
					C1333.9,1863.1,1302.4,1877.2,1280.5,1901.9z"/>
				<path class="st1" d="M1359.2,1977.3l131.3,254.4c6.2,11.5,13.9,18.9,22.7,23.6c-7.9,5.3-17.2,8.2-26.8,8.2h-42.1
					c-39.4,0-75.9-20.9-95.8-55L1246.8,2034c-4-7-7.2-14.4-9.3-22.2c-14.4-53.5,46.5-95.5,92.2-64.1
					C1341.3,1955.7,1351.3,1965.7,1359.2,1977.3z"/>
				<path class="st1" d="M1359.5,1977.9h-121.2c0.6-1.8,1.3-3.6,2.1-5.4h115.2c1.2,1.6,2.4,3.2,3.6,4.9L1359.5,1977.9z"/>
				<path class="st1" d="M1377.3,2012.3h-139.6c0-0.2-0.1-0.3-0.1-0.5c-0.4-1.6-0.8-3.3-1.1-4.9h138.1L1377.3,2012.3z"/>
				<polygon class="st1" points="1395.1,2046.8 1254.3,2046.8 1251.1,2041.3 1392.3,2041.3 				"/>
				<polygon class="st1" points="1412.9,2081.3 1274.4,2081.3 1271.2,2075.8 1410.1,2075.8 				"/>
				<polygon class="st1" points="1430.7,2115.7 1294.5,2115.7 1291.3,2110.3 1427.9,2110.3 				"/>
				<polygon class="st1" points="1448.5,2150.2 1314.6,2150.2 1311.4,2144.7 1445.6,2144.7 				"/>
				<polygon class="st1" points="1466.3,2184.7 1334.7,2184.7 1331.5,2179.2 1463.4,2179.2 				"/>
				<path class="st1" d="M1484,2219.1h-128.4c-1.3-1.8-2.6-3.6-3.8-5.4h129.4L1484,2219.1z"/>
				<path class="st1" d="M1510.3,2253.6h-111.6c-3.6-1.6-7.1-3.4-10.5-5.4h114.9C1505.3,2250.2,1507.8,2252,1510.3,2253.6z"/>
			</g>
			<g id="RIGHT-2">
				<path class="st2" d="M1124,1685.2c-0.9,26.4-75.8,47.8-168,47.8s-167.1-21.3-168-47.8v-207.9h336V1685.2z"/>
				<path class="st11" d="M1101.7,1719.7l-0.5,24.7l-4.8,241.1v-7c0-61.9-50.2-112.1-112.1-112.1h-6.8
					c-30.2-0.1-59.2,11.4-81.2,32.1l-14.7-99.4l-9.1-61.5c24.6,4.1,53.1,6.4,83.4,6.4C1018.3,1743.9,1072.6,1734.1,1101.7,1719.7z"
					/>
				<path class="st0" d="M989.4,2266.7h18.6c48.8,0,88.4-39.6,88.4-88.4v-199.8c0-61.9-50.2-112.1-112.1-112.1h-6.8
					c-72,0-127.5,63.5-117.8,134.9l23.5,172.8C890.5,2227.2,935.8,2266.7,989.4,2266.7z"/>
				<path class="st1" d="M1068.6,2242.6c-16.4,15.5-38.1,24.1-60.6,24.1h-18.6c-53.6,0-98.9-39.5-106.1-92.6l-23.5-172.8
					c-0.4-3.3-0.8-6.6-0.9-9.8c6.9-43.7,47.9-73.5,91.6-66.6c34.3,5.4,61.2,32.3,66.6,66.6l30.9,210.9
					C1050.2,2217.7,1057.4,2231.9,1068.6,2242.6z"/>
				<path class="st1" d="M1007.8,1964.8H868.1c1-1.9,2.2-3.7,3.4-5.4h133C1005.7,1961.1,1006.8,1962.9,1007.8,1964.8z"/>
				<path class="st1" d="M1018.2,1999.2H859.5c-0.2-1.8-0.4-3.6-0.5-5.4h158.4L1018.2,1999.2z"/>
				<polygon class="st1" points="1023.3,2033.7 864.2,2033.7 863.4,2028.3 1022.5,2028.3 				"/>
				<polygon class="st1" points="1028.3,2068.2 868.9,2068.2 868.1,2062.7 1027.5,2062.7 				"/>
				<polygon class="st1" points="1033.4,2102.6 873.6,2102.6 872.8,2097.2 1032.6,2097.2 				"/>
				<polygon class="st1" points="1038.4,2137.1 878.2,2137.1 877.5,2131.7 1037.6,2131.7 				"/>
				<polygon class="st1" points="1043.5,2171.6 882.9,2171.6 882.2,2166.1 1042.7,2166.1 				"/>
				<path class="st1" d="M1048.6,2206H892.8c-0.9-1.8-1.7-3.6-2.4-5.4h157.3l0.3,1.8L1048.6,2206z"/>
				<path class="st1" d="M1066.5,2240.5H919.2c-2-1.7-4-3.6-5.8-5.4h148.5C1063.3,2237,1064.8,2238.8,1066.5,2240.5z"/>
			</g>
		</g>
		<g id="CLOTHES">
			<path class="st0" d="M1196.7,604.6V773c-7.3-19.1-65.1-16.4-128.7,7.7c-54.5,20.7-95.4,49.1-101.4,68.8v-237
				c0-68.9,36.3-132.7,95.6-167.9C1137.4,457.7,1196.7,523.2,1196.7,604.6z"/>
			<path class="st3" d="M962.2,452.2c-52.5,36.5-83.8,96.4-83.8,160.3V808H593.7L633,638.8c16.5-71.3,68.1-129.3,136.9-154.1
				L962.2,452.2z"/>
			<path class="st2" d="M1538,1289v392.5c0-26.7-78.5-48.3-171.3-48.3s-168,21.6-168,48.3v-188.1c0-8.8-7.2-16-16-16H672.3
				c-153.5,0-267-142.9-232.3-292.4l123.2-530.8c19.6-84.7,88.2-149.3,173.9-163.8l32.8-5.6c-68.8,24.8-120.4,82.8-136.9,154.1
				l-39.3,169.2h284.7V612.5c0-63.9,31.3-123.8,83.8-160.3l0,0l45-7.6c9.1-1.6,18.3-2.3,27.5-2.3h3.5c1.1,0,2.2,0.1,3.2,0.1h0.6
				c0.8,0,1.7,0.1,2.5,0.1h0.4c0.5,0,1,0.1,1.4,0.1c0.9,0.1,1.7,0.1,2.6,0.2l3.1,0.3l2.9,0.3c0.2,0,0.4,0.1,0.7,0.1
				c1,0.1,2.1,0.3,3.1,0.4h0.2c1.1,0.2,2.2,0.3,3.3,0.5c-59.3,35.2-95.6,99-95.6,167.9v480.5H1342
				C1450.2,1093,1538,1180.7,1538,1289z"/>
			<path class="st12" d="M968.7,447.8c-51.2,35.6-90.4,99.1-90.4,164.7V808H593.6l39.3-169.2c16.7-72.1,64.5-130.7,132.6-155.2"/>
			<path class="st6" d="M1198.7,1433.1c0-55.7,19.7-109.6,55.6-152.1"/>
			<path class="st3" d="M782.8,1413.2c-0.5,0-1-0.1-1.4-0.4l-13.2-7.2c-1.5-0.8-2-2.6-1.2-4.1s2.6-2,4.1-1.2l13.2,7.2
				c1.5,0.8,2,2.6,1.2,4.1l0,0C785,1412.6,783.9,1413.2,782.8,1413.2z M796,1409.8c-1.1,0-2.1-0.6-2.6-1.6c-0.8-1.4-0.3-3.3,1.2-4.1
				l0,0l13.2-7.2c1.5-0.8,3.3-0.2,4.1,1.2c0.8,1.4,0.3,3.3-1.2,4.1l0,0l-13.2,7.2C797,1409.6,796.5,1409.8,796,1409.8z
				 M756.4,1398.9c-0.5,0-1-0.1-1.4-0.4l-13.2-7.2c-1.5-0.8-2-2.6-1.2-4.1s2.6-2,4.1-1.2l13.2,7.2c1.5,0.8,2,2.6,1.2,4.1l0,0
				C758.5,1398.2,757.5,1398.8,756.4,1398.9L756.4,1398.9z M822.3,1395.4c-1.1,0-2.1-0.6-2.6-1.6c-0.8-1.4-0.3-3.3,1.2-4.1l0,0
				l13.2-7.2c2.3-1.2,4.4-2.6,6.5-4.1c1.3-1,3.2-0.7,4.2,0.6c1,1.3,0.7,3.2-0.6,4.2c-2.3,1.7-4.7,3.2-7.2,4.6l-13.2,7.2
				C823.3,1395.3,822.8,1395.4,822.3,1395.4L822.3,1395.4z M730.3,1384.1c-0.6,0-1.3-0.2-1.8-0.6c-4.2-3.1-8.1-6.7-11.4-10.8
				c-0.9-1.4-0.5-3.2,0.8-4.2c1.2-0.8,2.7-0.6,3.8,0.4c3,3.7,6.5,6.9,10.3,9.7c1.3,1,1.6,2.8,0.7,4.2
				C732.2,1383.7,731.3,1384.2,730.3,1384.1L730.3,1384.1z M853.2,1373.6c-0.7,0-1.4-0.2-1.9-0.7c-1.3-1-1.5-2.8-0.5-4.1l0,0
				l0.1-0.1c3-3.7,5.5-7.8,7.5-12.1c0.7-1.5,2.5-2.2,4-1.5s2.2,2.5,1.5,4c-2.2,4.8-5,9.2-8.3,13.3
				C855,1373.1,854.1,1373.6,853.2,1373.6L853.2,1373.6z M711.5,1361.2c-1.2,0-2.2-0.7-2.7-1.7c-2.2-4.8-3.8-9.8-4.8-15
				c-0.3-1.6,0.8-3.2,2.4-3.5s3.2,0.8,3.5,2.4c0.9,4.7,2.3,9.2,4.3,13.5c0.7,1.5,0.1,3.3-1.4,4l0,0l0,0
				C712.3,1361.1,711.9,1361.2,711.5,1361.2L711.5,1361.2z M865.6,1346.6h-0.5c-1.6-0.3-2.7-1.9-2.4-3.5l0,0l0,0
				c0.6-3.3,0.9-6.6,0.9-9.9v-4.5c0-1.7,1.3-3,3-3s3,1.3,3,3v4.5c0,3.7-0.3,7.4-1,11C868.3,1345.6,867,1346.6,865.6,1346.6z
				 M706,1332c-1.7,0-3-1.3-3-3v-15c0-1.7,1.3-3,3-3s3,1.3,3,3v15C709,1330.6,707.6,1332,706,1332z M866.5,1316.7c-1.7,0-3-1.3-3-3
				v-15c0-1.7,1.3-3,3-3s3,1.3,3,3l0,0v15C869.5,1315.4,868.2,1316.7,866.5,1316.7z M706,1302c-1.7,0-3-1.3-3-3v-15c0-1.7,1.3-3,3-3
				s3,1.3,3,3v15C709,1300.6,707.6,1302,706,1302z M866.5,1286.7c-1.7,0-3-1.3-3-3v-15c0-1.7,1.3-3,3-3s3,1.3,3,3v15
				C869.5,1285.4,868.2,1286.7,866.5,1286.7z M706,1272c-1.7,0-3-1.3-3-3v-15c0-1.7,1.3-3,3-3s3,1.3,3,3l0,0v15
				C709,1270.6,707.6,1272,706,1272z M866.5,1256.7c-1.7,0-3-1.3-3-3v-15c0-1.7,1.3-3,3-3s3,1.3,3,3v15
				C869.5,1255.4,868.2,1256.7,866.5,1256.7z M706,1242c-1.7,0-3-1.3-3-3v-12.9h8.1c1.7,0,3,1.3,3,3s-1.3,3-3,3H709v6.9
				C709,1240.6,707.6,1242,706,1242z M861.1,1232.1h-15c-1.7,0-3-1.3-3-3s1.3-3,3-3h15c1.7,0,3,1.3,3,3S862.8,1232.1,861.1,1232.1z
				 M831.1,1232.1h-15c-1.7,0-3-1.3-3-3s1.3-3,3-3h15c1.7,0,3,1.3,3,3S832.8,1232.1,831.1,1232.1z M801.1,1232.1h-15
				c-1.7,0-3-1.3-3-3s1.3-3,3-3h15c1.7,0,3,1.3,3,3S802.8,1232.1,801.1,1232.1z M771.1,1232.1h-15c-1.7,0-3-1.3-3-3s1.3-3,3-3h15
				c1.7,0,3,1.3,3,3S772.8,1232.1,771.1,1232.1z M741.1,1232.1h-15c-1.7,0-3-1.3-3-3s1.3-3,3-3h15c1.7,0,3,1.3,3,3
				S742.8,1232.1,741.1,1232.1z"/>
			<path class="st3" d="M499.8,1396.6c-1.1,0-2.1-0.6-2.6-1.6c-0.8-1.4-0.3-3.3,1.2-4.1l0,0l12.2-6.7c0.3-0.2,0.6-0.3,0.9-0.5
				c1.4-0.8,3.3-0.3,4.1,1.1s0.3,3.3-1.1,4.1c-0.3,0.2-0.6,0.4-1,0.5l-12.2,6.7C500.8,1396.5,500.3,1396.6,499.8,1396.6z
				 M525.1,1380.6c-0.8,0-1.7-0.4-2.2-1c-1.1-1.2-1-3.1,0.2-4.2c3.5-3.2,6.6-6.9,9.3-10.8c0.9-1.4,2.8-1.7,4.2-0.8
				c1.4,0.9,1.7,2.8,0.8,4.2c-3,4.3-6.4,8.3-10.2,11.9C526.6,1380.4,525.8,1380.6,525.1,1380.6z M541.8,1356c-0.4,0-0.7-0.1-1.1-0.2
				c-1.5-0.6-2.3-2.3-1.7-3.9l0,0c1.7-4.5,2.9-9.1,3.6-13.8c0.2-1.7,1.7-2.8,3.4-2.6s2.8,1.7,2.6,3.4c-0.7,5.2-2,10.3-3.9,15.2
				C544.1,1355.3,543,1356,541.8,1356L541.8,1356z M546.1,1326.6c-1.7,0-3-1.3-3-3v-15c0-1.7,1.3-3,3-3s3,1.3,3,3v15
				C549.1,1325.3,547.7,1326.6,546.1,1326.6z M546.1,1296.6c-1.7,0-3-1.3-3-3v-15c0-1.7,1.3-3,3-3s3,1.3,3,3v15
				C549.1,1295.3,547.7,1296.6,546.1,1296.6z M546.1,1266.6c-1.7,0-3-1.3-3-3v-15c0-1.7,1.3-3,3-3s3,1.3,3,3v15
				C549.1,1265.3,547.7,1266.6,546.1,1266.6z M546.1,1236.6c-1.7,0-3-1.3-3-3v-1.5h-7.5c-1.7,0-3-1.3-3-3s1.3-3,3-3h13.5v7.5
				C549.1,1235.3,547.7,1236.6,546.1,1236.6z M520.6,1232.1h-15c-1.7,0-3-1.3-3-3s1.3-3,3-3h15c1.7,0,3,1.3,3,3l0,0
				C523.6,1230.8,522.2,1232.1,520.6,1232.1L520.6,1232.1z M490.6,1232.1h-15c-1.7,0-3-1.3-3-3s1.3-3,3-3h15c1.7,0,3,1.3,3,3l0,0
				C493.6,1230.8,492.2,1232.1,490.6,1232.1L490.6,1232.1z M460.6,1232.1h-15c-1.7,0-3-1.3-3-3s1.3-3,3-3h15c1.7,0,3,1.3,3,3l0,0
				C463.6,1230.8,462.2,1232.1,460.6,1232.1L460.6,1232.1z"/>
		</g>
		<g id="HAND">
			<path class="st2" d="M1196.7,773c7.3,19.1-38.9,53-102.4,77.1s-120.4,27.8-127.7,8.6s37.8-53.8,101.4-77.9
				S1189.4,753.8,1196.7,773z"/>
			<path class="st2" d="M1232.2,1393.4v10.6c-3.4-0.8-6.8-1.2-10.3-1.2H1209c-18.6,0-35.2-11.7-41.6-29.2l36.6-4.9
				c13.6-1.8,26.2,7.7,28,21.4l0,0C1232.1,1391.2,1232.2,1392.3,1232.2,1393.4z"/>
			<path class="st11" d="M1266,1446.9v81.4c0,19-15.4,34.4-34.4,34.4l0,0h-38.3c-9.1,0-17.9-3.6-24.3-10.1
				c-6.5-6.4-10.1-15.2-10.1-24.3h24.9c8.2,0,14.8-6.6,14.8-14.7l0,0v-21.4c0-8.2-6.6-14.8-14.7-14.8l0,0h-127.4
				c-49.7,0-90-40.3-90-90l0,0V849.6c6-19.7,46.9-48.2,101.4-68.8c37.2-14.1,72.5-20.9,96.8-20.3v598.2c0,24.4,19.8,44.2,44.2,44.2
				h12.9c24.3-0.1,44.1,19.5,44.2,43.8l0,0V1446.9z"/>
		</g>
		<g id="HEAD-3">
			<g id="NECK-2">
				<polygon class="st11" points="998.4,355.3 960.8,452.2 767,486.9 817.6,355.3 				"/>
				<polyline class="st13" points="785.9,437.7 817.6,355.3 998.4,355.3 978.1,407.7 				"/>
			</g>
			<g id="HAIR-2">
				<path class="st10" d="M1112,158.1c0,13.1-22.7,27.6-48.9,39.8c-35.7,16.7-77.8,29.4-77.8,29.4l-28.4,53.5
					c38.6,20.5,53.7,57.3,59.7,83c2.2,9.2,3.5,18.6,3.8,28.1H748.2c0,0-71.5-231.6,100.8-287C954.4,71,1112,127,1112,158.1z"/>
				<circle class="st10" cx="823.8" cy="70.2" r="67.7"/>
			</g>
			<g id="HEAD-4">
				<path class="st11" d="M1016.5,363.8c-5.6-24.3-19.6-58.9-54.1-79.8h-8.9c-16.5,0-29.8-13.3-29.8-29.8s13.3-29.8,29.8-29.8l0,0
					l0,0l37.7,0.8h1c0.7-0.2,1.4-0.5,2.2-0.7c10.2-2.2,42.5-10,69.3-23.4l3.1,18.5l10,59.3C1083.6,319.6,1055.7,357.1,1016.5,363.8z
					"/>
				<path class="st13" d="M1066.7,219.5c-32.8,13.3-75.6,5.6-75.6,5.6s40.3-8,72.5-24.1L1066.7,219.5z"/>
				<path class="st14" d="M976.7,259.9c0-11.4-9.2-20.6-20.5-20.6l0,0h-0.1"/>
			</g>
		</g>
	</g>
	<g id="CHAIR-2">
		<line class="st1" x1="1082.6" y1="1528.3" x2="1198.7" y2="2494.5"/>
		<line class="st1" x1="579.3" y1="1528.3" x2="463.3" y2="2494.5"/>
		<line class="st1" x1="503.1" y1="2162.7" x2="1158.8" y2="2162.7"/>
		<path class="st7" d="M478.4,1528.3h705.1c8.4,0,15.2-6.8,15.2-15.2l0,0v-20.6c0-8.4-6.8-15.2-15.2-15.2l0,0H478.4
			c-8.4,0-15.2,6.8-15.2,15.2l0,0v20.6C463.2,1521.5,470,1528.2,478.4,1528.3z"/>
	</g>
</g>
<path class="st12" d="M2473.8,1531.3h631c8.4,0,15.2-6.8,15.2-15.2l0,0v-20.6c0-8.4-6.8-15.2-15.2-15.2h-631
	c-8.4,0-15.2,6.8-15.2,15.2l0,0v20.6C2458.6,1524.5,2465.4,1531.3,2473.8,1531.3z"/>
<g id="LAPTOP">
	<path class="st2" d="M2058.7,552.2h-674.3V162.3c0-26.4,21.4-47.8,47.8-47.8l0,0h578.7c26.4,0,47.8,21.4,47.8,47.8l0,0l0,0V552.2z"
		/>
	<path class="st0" d="M2007.8,526.8h-569.7c-15,0-27.2-12.2-27.2-27.2V165.4c0-15,12.2-27.2,27.2-27.2h569.7
		c15,0,27.2,12.2,27.2,27.2v334.3C2035,514.7,2022.8,526.8,2007.8,526.8L2007.8,526.8L2007.8,526.8z"/>
	<path class="st2" d="M2176.9,643.7c25.8,16.8,19.8,49.7-10.7,49.7h-918.6c-25.7,0-34.5-34.7-9.3-50.6L2176.9,643.7z"/>
	<path class="st2" d="M2166.2,670.5h-918.6c-16.4,0-22.9-19.3-9.3-27.7l146.3-90.6h672.2l120,91.5
		C2188.8,652.8,2181.8,670.5,2166.2,670.5z"/>
	<path class="st0" d="M2060.2,643.2h-706.6c-12.6,0-17.6-14.9-7.2-21.3l101.6-69.7h528l92.3,70.4
		C2077.6,629.6,2072.2,643.2,2060.2,643.2z"/>
	<line class="st1" x1="1930.3" y1="552.2" x2="2022.7" y2="643.2"/>
	<line class="st1" x1="1881.3" y1="552.2" x2="1962.7" y2="643.2"/>
	<line class="st1" x1="1835.5" y1="552.2" x2="1906.1" y2="643.2"/>
	<line class="st1" x1="1784.3" y1="552.2" x2="1844" y2="643.2"/>
	<line class="st1" x1="1741.8" y1="552.2" x2="1770.9" y2="643.2"/>
	<line class="st1" x1="1490.9" y1="552.2" x2="1398.5" y2="643.2"/>
	<line class="st1" x1="1539.9" y1="552.2" x2="1458.5" y2="643.2"/>
	<line class="st1" x1="1585.7" y1="552.2" x2="1515.1" y2="643.2"/>
	<line class="st1" x1="1636.9" y1="552.2" x2="1577.2" y2="643.2"/>
	<line class="st1" x1="1679.4" y1="552.2" x2="1650.3" y2="643.2"/>
	<line class="st1" x1="1708.2" y1="644.3" x2="1708.2" y2="552.2"/>
	<line class="st1" x1="1398.5" y1="586.2" x2="2020.7" y2="586.2"/>
</g>
</svg>
