<svg id="Слой_1" data-name="Слой 1" xmlns="http://www.w3.org/2000/svg" viewBox="0 0 3655.93 2853.9"><defs><style>.cls-1,.cls-3{fill:#fff;}.cls-1,.cls-2,.cls-3,.cls-4,.cls-5,.cls-6,.cls-7,.cls-8{stroke:#000;stroke-width:4px;}.cls-1,.cls-2,.cls-3,.cls-4,.cls-5,.cls-7,.cls-8{stroke-miterlimit:10;}.cls-2,.cls-4,.cls-6{fill:none;}.cls-3,.cls-4,.cls-6{stroke-linecap:round;}.cls-5{fill:#21409a;}.cls-6{stroke-linejoin:round;}.cls-7{fill:#cc7685;}</style></defs><g id="LAMP"><polyline class="cls-1" points="1563.5 191.8 1607.6 147.7 1651.7 191.8"/><line class="cls-2" x1="1607.6" y1="147.7" x2="1607.6"/><circle class="cls-1" cx="1607.6" cy="383.6" r="71"/><path class="cls-3" d="M1840.13,377.6h-464.9l6.2-28.3c20.4-93.2,115.5-160.8,226.3-160.8,55.4,0,106.9,16.9,147,45.4s69,68.7,79.2,115.3Z" transform="translate(-0.03)"/></g><g id="BOOKSHELF"><rect class="cls-2" x="2276.9" y="1970.2" width="47.2" height="298"/><path class="cls-2" d="M3181.23,2268.2h-268.7a16,16,0,0,1-16.12-15.87,15.21,15.21,0,0,1,.12-2.13l37.4-315.7a16.18,16.18,0,0,1,16-14.2h268.7a16,16,0,0,1,16.12,15.87,15.21,15.21,0,0,1-.12,2.13l-37.4,315.7A16.18,16.18,0,0,1,3181.23,2268.2Z" transform="translate(-0.03)"/><path class="cls-2" d="M3034.83,2268.2h-212.2a21.78,21.78,0,0,1-21.74-21.83,22.58,22.58,0,0,1,.14-2.47l27.2-229.9a21.82,21.82,0,0,1,21.6-19.2h217.3Z" transform="translate(-0.03)"/><path class="cls-2" d="M3058.63,2268.2h-202.5a21.78,21.78,0,0,1-21.74-21.83,22.58,22.58,0,0,1,.14-2.47l27.2-229.9a21.82,21.82,0,0,1,21.6-19.2h205.1a10.9,10.9,0,0,1,10.88,10.9,11.2,11.2,0,0,1-.08,1.3l-29.8,251.5A10.84,10.84,0,0,1,3058.63,2268.2Z" transform="translate(-0.03)"/><rect class="cls-4" x="2327.1" y="2015" width="81.9" height="253.2"/><rect class="cls-4" x="2380.5" y="2015" width="115.3" height="253.2"/><polygon class="cls-4" points="2635.5 2268.2 2603.6 2268.2 2484.9 1987.2 2516.8 1987.2 2635.5 2268.2"/><polygon class="cls-4" points="2696.3 2268.2 2636.9 2268.2 2534.7 2029.9 2594.1 2029.9 2696.3 2268.2"/><rect class="cls-4" x="2191.3" y="2015" width="82.6" height="253.2"/><rect class="cls-3" x="2191.3" y="1820.9" width="384.2" height="49.4"/><rect class="cls-1" x="2191.3" y="1783.1" width="486.7" height="39.8"/><rect class="cls-5" x="2191.3" y="1725.7" width="328.5" height="56.4"/><rect class="cls-3" x="2191.3" y="1682.6" width="384.2" height="42.1"/><path class="cls-1" d="M3238.43,1571.6l-.3,1.7-45.4,297h-421.2l45.4-297,.6-4.2c7.2-14.6,51.2-25.9,104.5-25.9,58.3,0,105.5,13.5,105.5,30.1,0-16.6,47.2-30.1,105.5-30.1C3189.33,1543.3,3235.23,1555.8,3238.43,1571.6Z" transform="translate(-0.03)"/><line class="cls-2" x1="2982.6" y1="1870.4" x2="3027.6" y2="1573.4"/><path class="cls-1" d="M2982.63,1870.4c0-16.6-47.2-30.1-105.5-30.1s-105.5,13.5-105.5,30.1Z" transform="translate(-0.03)"/><path class="cls-1" d="M3193.63,1870.4c0-16.6-47.2-30.1-105.5-30.1s-105.5,13.5-105.5,30.1Z" transform="translate(-0.03)"/><path class="cls-3" d="M2984.23,1864.1c-.6-16.6,46.1-31.7,104.4-33.8,36.4-1.3,72.3,3.8,91.2,11.1l45-282.9" transform="translate(-0.03)"/><path class="cls-3" d="M3204.83,1472.5h-378.2v-84.2a15,15,0,0,1,15-15h348.3a15,15,0,0,1,15,15h0v84.2Z" transform="translate(-0.03)"/><path class="cls-5" d="M3235,1369.3h-325.9a9.07,9.07,0,0,1-9.1-9V1326.7a9.07,9.07,0,0,1,9-9.1h326a9.07,9.07,0,0,1,9.1,9v33.56A9.13,9.13,0,0,1,3235,1369.3Z" transform="translate(-0.03)"/><rect class="cls-1" x="2861.1" y="1286.2" width="386.6" height="31.4"/><path class="cls-3" d="M3240.73,1286.2h-295.1a7,7,0,0,1-7-7v-25.3a7,7,0,0,1,7-7h295.1a7,7,0,0,1,7,7v25.3a7,7,0,0,1-7,7Z" transform="translate(-0.03)"/><rect class="cls-3" x="2315.4" y="1163.6" width="113.5" height="308.9"/><rect class="cls-3" x="2269.6" y="1163.6" width="45.8" height="308.9"/><rect class="cls-3" x="2192.6" y="1163.6" width="77" height="308.9"/><rect class="cls-3" x="2443.9" y="1219.4" width="99.5" height="253.2"/><path class="cls-3" d="M2451.13,1472.5h-39.2a7,7,0,0,1-7-7V1226.2a7,7,0,0,1,7-7h39.2a7,7,0,0,1,7,7v239.3A7.09,7.09,0,0,1,2451.13,1472.5Z" transform="translate(-0.03)"/><polygon class="cls-1" points="2543.4 1219.4 2543.4 1358.2 2489.5 1219.4 2543.4 1219.4"/><path class="cls-1" d="M2773.83,1472.5h-159.2a8.49,8.49,0,0,1-7.9-5.4l-103.4-266.2a8.46,8.46,0,0,1,4.74-11,8.57,8.57,0,0,1,3.16-.6h159.2a8.49,8.49,0,0,1,7.9,5.4l103.4,266.2a8.46,8.46,0,0,1-4.74,11A8.57,8.57,0,0,1,2773.83,1472.5Z" transform="translate(-0.03)"/><path class="cls-1" d="M2799.83,1472.5h-159.2a8.49,8.49,0,0,1-7.9-5.4l-103.4-266.2a8.46,8.46,0,0,1,4.74-11,8.57,8.57,0,0,1,3.16-.6h159.2a8.49,8.49,0,0,1,7.9,5.4l103.4,266.2a8.46,8.46,0,0,1-4.74,11A8.57,8.57,0,0,1,2799.83,1472.5Z" transform="translate(-0.03)"/><path class="cls-1" d="M3079.43,1007.1a171.44,171.44,0,0,1-94.5-329.6Z" transform="translate(-0.03)"/><line class="cls-2" x1="3032.5" y1="1013.6" x2="3032.5" y2="1074.7"/><circle class="cls-1" cx="3032.5" cy="842.2" r="145.2"/><polygon class="cls-1" points="3093.2 1074.3 2972.3 1074.3 3032.3 1044.2 3093.2 1074.3"/><path class="cls-4" d="M3247.73,1074.7V2847H3193V2718a52,52,0,0,0-52-52h-843.6a52,52,0,0,0-52,52v129h-54.1V1074.7Z" transform="translate(-0.03)"/><path class="cls-2" d="M3171.83,2616.9h-906.6a20.89,20.89,0,0,1-20.9-20.88V2335.1a20.89,20.89,0,0,1,20.88-20.9h906.62a20.89,20.89,0,0,1,20.9,20.88V2596a20.89,20.89,0,0,1-20.88,20.9Z" transform="translate(-0.03)"/><polygon class="cls-5" points="2766.3 831.3 2766.3 1074.7 2681.1 1074.7 2766.3 831.3"/><path class="cls-1" d="M2766.33,831.3l-.6,1.8-84.1,241.6h-391l84.1-241.6,2.7-7.7h0c12.6-18.1,47.5-31.3,89.1-32h4c48.6,0,91.9,16.9,99.8,39.1,7.8-22.2,49.2-39.1,97.8-39.1C2715.73,793.4,2757.43,809.7,2766.33,831.3Z" transform="translate(-0.03)"/><line class="cls-4" x1="2570.2" y1="832.5" x2="2485.3" y2="1069.7"/><path class="cls-5" d="M2485.13,1071.7h-194.5c7.2-22.5,47.6-39.8,96.2-39.8C2435.63,1031.9,2477.93,1049.2,2485.13,1071.7Z" transform="translate(-0.03)"/><path class="cls-5" d="M2681.13,1071.7h-194.5c7.2-22.5,47.6-39.8,96.2-39.8C2631.63,1031.9,2673.93,1049.2,2681.13,1071.7Z" transform="translate(-0.03)"/><path class="cls-3" d="M2653.43,2391.5a14.19,14.19,0,0,1,14.18-14.2h106.12a14.19,14.19,0,0,1,14.2,14.18v0" transform="translate(-0.03)"/><line class="cls-4" x1="2191.3" y1="1870.4" x2="3247.7" y2="1870.4"/><line class="cls-4" x1="2191.3" y1="1472.5" x2="3247.7" y2="1472.5"/><line class="cls-4" x1="2191.3" y1="2268.2" x2="3247.7" y2="2268.2"/><polyline class="cls-6" points="2321.3 703.1 2191.3 1074.7 3247.7 1074.7 3377.7 703.1"/></g><g id="PLANT"><path class="cls-1" d="M3496.33,2751.6a161.17,161.17,0,0,1-10.5,57.3,67.11,67.11,0,0,1-62.9,43h-211.7c-27.8,0-53-17-62.8-43a161,161,0,0,1-10.5-57.3c0-58,30.7-109.2,77.6-139.8V2578c0,14.8,45.5,26.8,101.5,26.8s101.5-12,101.5-26.8v33.9C3465.63,2642.4,3496.33,2693.6,3496.33,2751.6Z" transform="translate(-0.03)"/><path class="cls-1" d="M3418.73,2602.6v9c-16.1,12.8-59.9,19.6-101.5,19.6s-85.4-6.8-101.5-19.6v-9c1.9,4.3,10,9.9,28,14.6,19.6,5.2,45.7,8,73.5,8s53.9-2.8,73.5-8C3408.73,2612.4,3416.73,2606.8,3418.73,2602.6Z" transform="translate(-0.03)"/><path class="cls-1" d="M3418.73,2578c0,14.8-45.5,26.8-101.5,26.8s-101.5-12-101.5-26.8a8.82,8.82,0,0,1,2.1-5.5c9.6-12.1,50.4-21.3,99.4-21.3s89.8,9.1,99.4,21.3A9.45,9.45,0,0,1,3418.73,2578Z" transform="translate(-0.03)"/><circle class="cls-1" cx="3181.3" cy="2696.3" r="12.8"/><circle class="cls-1" cx="3224.7" cy="2727.8" r="12.8"/><circle class="cls-1" cx="3278.7" cy="2690.4" r="12.8"/><circle class="cls-1" cx="3271.1" cy="2775.4" r="12.8"/><circle class="cls-1" cx="3223.1" cy="2812.7" r="12.8"/><circle class="cls-1" cx="3174.7" cy="2775.4" r="12.8"/><circle class="cls-1" cx="3231.7" cy="2648.8" r="12.8"/><path class="cls-1" d="M3333.63,2645.7a12.8,12.8,0,1,1-12.8,12.8,12.8,12.8,0,0,1,12.8-12.8Z" transform="translate(-0.03)"/><circle class="cls-1" cx="3322.9" cy="2736.1" r="12.8"/><circle class="cls-1" cx="3359.9" cy="2787.1" r="12.8"/><circle class="cls-1" cx="3311.9" cy="2825.5" r="12.8"/><circle class="cls-1" cx="3373.6" cy="2705.5" r="12.8"/><circle class="cls-1" cx="3410.7" cy="2653" r="12.8"/><circle class="cls-1" cx="3452.9" cy="2695.5" r="12.8"/><circle class="cls-1" cx="3404.6" cy="2737.4" r="12.8"/><circle class="cls-1" cx="3462.4" cy="2764.2" r="12.8"/><circle class="cls-1" cx="3423.5" cy="2813.4" r="12.8"/><path class="cls-1" d="M3541.43,2422.2s95-51.3,110.7,38.3c18.2,103.5-105.4,194.6-105.4,194.6s-26.6-65.9-97.9-122.7C3387.13,2483.3,3438.33,2353.1,3541.43,2422.2Z" transform="translate(-0.03)"/><path class="cls-1" d="M3354.93,2308.1c45.1.4,109.9-91.2,48.7-191.7-73.9-121.4-86.6-191.7-86.6-191.7s-108.7,143.8-90.2,254.1C3247.13,2299.6,3354.93,2308.1,3354.93,2308.1Z" transform="translate(-0.03)"/><path class="cls-1" d="M3362.73,2247.1c65.9,17.4,128.5-22.7,129.8-114.1,2.3-161.6,32.9-214.2,32.9-214.2s-205.3,73.9-236.4,188.7C3259.43,2216.9,3362.73,2247.1,3362.73,2247.1Z" transform="translate(-0.03)"/><path class="cls-1" d="M3087.33,2353.5c-2.4.2-4.9.4-7.6.6-141.8,10.6-182.6,140.4-182.6,140.4s-8.7-9.4-6.9-41.9c3.4-83.8,80.5-170.4,168.5-115.4C3068.53,2343.4,3078.13,2348.7,3087.33,2353.5Z" transform="translate(-0.03)"/><path class="cls-1" d="M3248.13,2385.4c-25,1.6-82.1,8.5-160.8-31.9-9.2-4.7-18.8-10.1-28.6-16.3-88-55-163.1,31.6-166.5,115.4-.2,4.1.8,8.2,1,12.2-8.3-72.8-8.1-254,212.2-247.9C3256.83,2221.3,3248.13,2385.4,3248.13,2385.4Z" transform="translate(-0.03)"/><path class="cls-2" d="M3284.13,2572.7s26.1-363.7-326.6-316.2" transform="translate(-0.03)"/><path class="cls-1" d="M3525.43,1918.8c-222.2,227-180.8,653.9-180.8,653.9-23.4-163.3,120.2-325.6,196.7-154.8,22.8,50.8,5.3,237.1,5.3,237.1" transform="translate(-0.03)"/></g><g id="CHAIR_TABLE" data-name="CHAIR TABLE"><g id="CHAIR"><path class="cls-2" d="M233,2286.8l-29.8,26.1a110,110,0,0,1-12.8-18.9L4.63,1947.8a21.7,21.7,0,0,1,19.1-32h26a56.18,56.18,0,0,1,49.6,29.7l146.1,272.2A56,56,0,0,1,233,2286.8Z" transform="translate(-0.03)"/><path class="cls-2" d="M738.83,2294.4h0l-432.3,88.8v-9a90.79,90.79,0,0,1,72.5-88.9l278.5-57.2a67.72,67.72,0,0,1,81.3,66.3Z" transform="translate(-0.03)"/><path class="cls-4" d="M689.83,2847V2413.9a56.65,56.65,0,0,0-68.1-55.5l-271.5,55.7a96.32,96.32,0,0,0-70.7,60L136.23,2847" transform="translate(-0.03)"/><path class="cls-4" d="M3.53,1945.9l211.1,393.3a86.44,86.44,0,0,0,93.6,43.8l431.6-88.6" transform="translate(-0.03)"/></g><g id="BOOKS"><rect class="cls-1" x="526.8" y="1973.2" width="365.3" height="48.8"/><path class="cls-5" d="M825.53,1920.2c4.4,4.1,7.1,11.5,7.1,17.7,0,12.4-10.8,25.1-24.2,25.1H475.23a10.5,10.5,0,0,0,10.5,10.5h402.1a40.31,40.31,0,0,0,27.6-10.6,34.6,34.6,0,0,0,11.4-25.6c0-20-17.5-36.1-39-36.1H485.73a10.5,10.5,0,0,0-10.5,10.5h0v1.9h333.2A25.89,25.89,0,0,1,825.53,1920.2Z" transform="translate(-0.03)"/><path class="cls-5" d="M499.33,1913.7v48.4h-24v4h334.3a28.16,28.16,0,0,0,10.5-2h0a27.55,27.55,0,0,0,9.4-6.2,28.21,28.21,0,0,0-19.9-48.2H475.33v4Z" transform="translate(-0.03)"/><path class="cls-1" d="M490,1913.7v48.4h318.4a24.2,24.2,0,0,0,0-48.4Z" transform="translate(-0.03)"/><line class="cls-2" x1="490" y1="1913.7" x2="490" y2="1962.1"/><path class="cls-5" d="M763.93,1948v40.4h27.9v-35.2A15.19,15.19,0,0,1,807,1938h12.42v-5.2H779A15.24,15.24,0,0,0,763.93,1948Z" transform="translate(-0.03)"/></g><g id="TABLE"><path class="cls-4" d="M321.73,2063.8a38.62,38.62,0,0,1,38.6-38.6h759a38.62,38.62,0,0,1,38.6,38.6" transform="translate(-0.03)"/><path class="cls-4" d="M1158.53,2847l-214.3-746.4c-9.5-33-42.2-56-79.6-56H614.93c-37.4,0-70.1,23-79.6,56L321.13,2847" transform="translate(-0.03)"/></g></g><g id="CHARACTER"><g id="SHOES"><path class="cls-1" d="M1338.43,2717.8v108.8a20.37,20.37,0,0,0,20.32,20.4h272.08s1.6-50.5-39.8-64.6c-70.3-23.9-103.1-64.6-103.1-64.6Z" transform="translate(-0.03)"/><path class="cls-1" d="M1489.73,2773.5c11.1-3.1,51.1-25.2,37.4-38.9-6.5-6.5-22.1,0-22.1,0" transform="translate(-0.03)"/><path class="cls-1" d="M1530.73,2788.5c11.1-3.1,49.5-27.8,34.4-39.9-11.4-9.2-28.5,8.6-28.5,8.6" transform="translate(-0.03)"/><path class="cls-7" d="M1496.33,2726.6l-157.9,49.1v-57.9H1488A101.49,101.49,0,0,0,1496.33,2726.6Z" transform="translate(-0.03)"/><path class="cls-1" d="M1679.43,2717.8v108.8a20.37,20.37,0,0,0,20.32,20.4h272.08s1.6-50.5-39.8-64.6c-70.3-23.9-103.1-64.6-103.1-64.6Z" transform="translate(-0.03)"/><path class="cls-1" d="M1830.73,2773.5c11.1-3.1,51.1-25.2,37.4-38.9-6.5-6.5-22.1,0-22.1,0" transform="translate(-0.03)"/><path class="cls-1" d="M1871.73,2788.5c11.1-3.1,49.5-27.8,34.4-39.9-11.4-9.2-28.5,8.6-28.5,8.6" transform="translate(-0.03)"/><path class="cls-7" d="M1837.33,2726.6l-157.9,49.1v-57.9H1829A101.49,101.49,0,0,0,1837.33,2726.6Z" transform="translate(-0.03)"/></g><g id="LEGS"><polygon class="cls-8" points="1411.9 1634.8 1313.4 2666 1519.4 2666 1622.9 2166.3 1665.2 2272.8 1665.2 2666 1879.7 2666 1879.7 2225.1 1765.3 1634.8 1411.9 1634.8"/><line class="cls-2" x1="1519.2" y1="1882.5" x2="1423.4" y2="2666"/><polyline class="cls-8" points="1768.7 2666 1768.7 2225.1 1634.3 1684.8"/><path class="cls-8" d="M1662.23,2272.8l-128.4-372.9a31.8,31.8,0,0,0-30.1-21.4" transform="translate(-0.03)"/><polygon class="cls-8" points="1395.6 1805.3 1411.9 1634.8 1765.3 1634.8 1775.4 1687.2 1395.6 1805.3"/><path class="cls-8" d="M1880.13,2717.8h-215.7a14.72,14.72,0,0,1-14.7-14.7v-22.4a14.72,14.72,0,0,1,14.7-14.7h215.7a14.72,14.72,0,0,1,14.7,14.7v22.4A14.79,14.79,0,0,1,1880.13,2717.8Z" transform="translate(-0.03)"/><path class="cls-8" d="M1523.13,2717.8h-215.7a14.72,14.72,0,0,1-14.7-14.7v-22.4a14.72,14.72,0,0,1,14.7-14.7h215.7a14.72,14.72,0,0,1,14.7,14.7v22.4A14.79,14.79,0,0,1,1523.13,2717.8Z" transform="translate(-0.03)"/></g><g id="BOOK"><path class="cls-1" d="M2098.83,1665l67.6,252.9-337,90.1-67.7-253.1a29.5,29.5,0,1,0-57.25,14.25c.08.32.16.64.25.95l67.7,253.1-7.4,2-67.6-252.9a38.4,38.4,0,0,1,26-46.7l1.2-.3,327.2-87.5A38.53,38.53,0,0,1,2098.83,1665Z" transform="translate(-0.03)"/><path class="cls-1" d="M1769.23,1753.2l67.6,252.9-7.4,2-67.7-253.1a29.5,29.5,0,1,0-57.25,14.25c.08.32.16.64.25,1l67.7,253.1-7.4,2-67.6-252.9a37.18,37.18,0,0,1,71.19-21.47c.23.75.43,1.51.61,2.27Z" transform="translate(-0.03)"/><path class="cls-1" d="M1761.73,1754.9l63.5,237.6-57,15.2-63.5-237.6a29.5,29.5,0,0,1,57-15.2Z" transform="translate(-0.03)"/></g><g id="SHIRT"><path class="cls-3" d="M2099.83,1799l-153.3,52.8-121-217h-469c-79.7,0-139.3-73.3-123-151.3l48.8-234.4a158.29,158.29,0,0,1,154.9-126h320.7a158.17,158.17,0,0,1,156.2,133.1l48.3,228.2Z" transform="translate(-0.03)"/><path class="cls-3" d="M1331.53,1632.3a126,126,0,0,1-100.4-113.5,60.73,60.73,0,0,1,13.9-7.2c36.3-13.4,77.8,8.6,92.9,49.1C1347.23,1586.1,1344,1612.7,1331.53,1632.3Z" transform="translate(-0.03)"/></g><g id="HEAD"><polygon id="NECK" class="cls-7" points="1680.7 982.5 1680.7 1123.2 1525.4 1123.2 1561.2 1029.6 1680.7 982.5"/><path id="HAIR" class="cls-8" d="M1716.43,923.3c-.1,0-.3.1-.4.1h0l-46.1,12.2a50.36,50.36,0,0,0-34.6,32h-17.7a20.31,20.31,0,0,0-20.3,20.3v.3a20.25,20.25,0,0,0,18.5,20.2l-.1.1s-8.2,39-56.1,25.9c0,0,1.9-102.6,3.9-134.5,1.7-26.3,141.2-76.1,154.1-54.9,11.4,18.8-1.8,27.6-13,31.5,19.8-4.2,57.2-9.8,61,6.9C1770,902.8,1730.53,919.6,1716.43,923.3Z" transform="translate(-0.03)"/><g id="HEAD-2"><path class="cls-7" d="M1725.43,995.2h-4.9l1.4,24A30.13,30.13,0,0,1,1693.5,1051c-.53,0-1,0-1.57,0h-21.6a37.74,37.74,0,0,1-37.7-37.7v-4.7h-14.9a20.31,20.31,0,0,1-20.3-20.3V988a20.31,20.31,0,0,1,20.3-20.3h17.7a50.13,50.13,0,0,1,34.6-32l46.1-12.2h0l15.8,63.3C1733.53,990.8,1729.73,995.2,1725.43,995.2Z" transform="translate(-0.03)"/><path class="cls-4" d="M1637.33,1015.2c-2.1,22,19.9,37.7,40.7,37.7" transform="translate(-0.03)"/><path class="cls-4" d="M1629.23,991.7a14.08,14.08,0,0,0-14.06-14.1h0" transform="translate(-0.03)"/><ellipse class="cls-1" cx="1708.4" cy="969.7" rx="3.7" ry="7.7"/><path class="cls-3" d="M1692.43,953.5a53.41,53.41,0,0,1,29.9-9.4" transform="translate(-0.03)"/></g></g><g id="BACKPACK"><path class="cls-3" d="M1644.83,1698.9s122.5,5.3,165.6-93l-22.8-41.7-68.1,26.2Z" transform="translate(-0.03)"/><path class="cls-5" d="M1742.93,1097.4a24.56,24.56,0,0,0-22.5,24.4v492.7a85.1,85.1,0,0,1-85.1,85.1h-188.9a85.1,85.1,0,0,1-85.09-85.09,84.12,84.12,0,0,1,.49-9.11v-.1l68-467.7a47,47,0,0,1,46.5-40.2Z" transform="translate(-0.03)"/><path class="cls-5" d="M1723.93,1097.4a24.56,24.56,0,0,0-15.3,7.1,24,24,0,0,0-6.9,13.9c-.1,1.1-.2,2.2-.2,3.3l-4,37.7-48,455a85.1,85.1,0,0,1-85.1,85.1h-117.9a85.1,85.1,0,0,1-85.09-85.09,84.12,84.12,0,0,1,.49-9.11v-.1l30.7-211.4,37.3-256.3a51.29,51.29,0,0,1,1.4-6.6,46.92,46.92,0,0,1,45-33.6h247.6Z" transform="translate(-0.03)"/><path class="cls-5" d="M1716.33,1097.4H1711a20.15,20.15,0,0,0-19.9,16.2l-31.2,201.3a59.7,59.7,0,0,1-58.3,47.2h-195.1a36.93,36.93,0,0,1-36.1-44.9l37.6-170.8a62.47,62.47,0,0,1,61-49Z" transform="translate(-0.03)"/><path class="cls-5" d="M1555.53,1418.1l49.7-303.9a12.76,12.76,0,0,1,12.5-10.7h0a12.68,12.68,0,0,1,12.68,12.68,12.55,12.55,0,0,1-.18,2.12l-49.7,303.9a12.76,12.76,0,0,1-12.5,10.7h0a12.68,12.68,0,0,1-12.68-12.68A12.55,12.55,0,0,1,1555.53,1418.1Z" transform="translate(-0.03)"/><path class="cls-5" d="M1444.43,1418.1l49.7-303.9a12.76,12.76,0,0,1,12.5-10.7h0a12.68,12.68,0,0,1,12.68,12.68,12.55,12.55,0,0,1-.18,2.12l-49.7,303.9a12.76,12.76,0,0,1-12.5,10.7h0a12.68,12.68,0,0,1-12.68-12.68A12.55,12.55,0,0,1,1444.43,1418.1Z" transform="translate(-0.03)"/><path class="cls-1" d="M1769.43,1123.3l-48.9.2v-1.7a24,24,0,0,1,7.2-17.3,24.38,24.38,0,0,1,15.3-7.1h4C1759.33,1098.4,1769,1108.8,1769.43,1123.3Z" transform="translate(-0.03)"/></g><g id="HAND"><path class="cls-7" d="M2081.53,1805.3l41.2,106.3a31,31,0,0,1-17.79,40.07c-.92.35-1.86.66-2.81.93l-90.5,24.8a17,17,0,0,1-15.6-3.5l-9.2-8,18.8-5a18.2,18.2,0,0,0,13.5-18.5l-2.1-21.2a18.2,18.2,0,0,0-17.6-17.4h1c-11.5-.4-22.7-7.5-27.2-18.1l-14.4-38.3Z" transform="translate(-0.03)"/><path class="cls-3" d="M1988.73,1968l14.8-4c8.3-2.2,13.9-8.9,13.5-17.5l-1.1-23.2a18.2,18.2,0,0,0-17.6-17.4h0a29.64,29.64,0,0,1-26.2-18.1l-15.4-36.3" transform="translate(-0.03)"/><path class="cls-4" d="M2037.13,1967.8a23.27,23.27,0,0,0,17.3-23.6l-1.4-29.6" transform="translate(-0.03)"/><path class="cls-4" d="M2075.43,1957.9a23.27,23.27,0,0,0,17.3-23.6l-1.4-29.6" transform="translate(-0.03)"/><path class="cls-3" d="M1732.83,1362.1l24.2,126.6a205.92,205.92,0,0,0,22.4,61.7l167,301.4,153.3-52.8" transform="translate(-0.03)"/><path class="cls-3" d="M1834.13,1649.2l-54.7-98.8a211,211,0,0,1-20.5-53,72.62,72.62,0,0,1,16.3-3.4c43.2-3.8,81.5,32.5,85.6,81C1863.23,1604.4,1852.53,1631.5,1834.13,1649.2Z" transform="translate(-0.03)"/></g></g></svg>