<?xml version="1.0" encoding="utf-8"?>
<!-- Generator: Adobe Illustrator 25.3.1, SVG Export Plug-In . SVG Version: 6.00 Build 0)  -->
<svg version="1.1" id="Слой_1" xmlns="http://www.w3.org/2000/svg" xmlns:xlink="http://www.w3.org/1999/xlink" x="0px" y="0px"
	 viewBox="0 0 3176.8 2895.7" style="enable-background:new 0 0 3176.8 2895.7;" xml:space="preserve">
<style type="text/css">
	.st0{fill:none;stroke:#000000;stroke-width:5;stroke-linecap:round;stroke-miterlimit:10;}
	.st1{fill:#FFFFFF;stroke:#000000;stroke-width:5;stroke-linecap:round;stroke-miterlimit:10;}
	.st2{fill:#21409A;stroke:#000000;stroke-width:5;stroke-miterlimit:10;}
	.st3{fill:#FFFFFF;stroke:#000000;stroke-width:5;stroke-miterlimit:10;}
	.st4{fill:none;stroke:#000000;stroke-width:5;stroke-miterlimit:10;}
	.st5{fill:#A2666F;stroke:#000000;stroke-width:5;stroke-miterlimit:10;}
	.st6{stroke:#21409A;stroke-width:5;stroke-miterlimit:10;}
	.st7{stroke:#21409A;stroke-width:5;stroke-linecap:round;stroke-linejoin:round;}
	.st8{fill:none;stroke:#21409A;stroke-width:5;stroke-linecap:round;stroke-linejoin:round;}
	.st9{fill:#FFFFFF;stroke:#000000;stroke-width:5;stroke-linejoin:round;}
	.st10{stroke:#000000;stroke-width:5;stroke-miterlimit:10;}
	.st11{stroke:#000000;stroke-width:5;stroke-linecap:round;stroke-linejoin:round;}
	.st12{stroke:#000000;stroke-width:5;stroke-linejoin:round;}
</style>
<g id="LAMP">
	<path class="st0" d="M2263.1,264.1L2064.6,72.5l33.2-34.5c48.9-50.8,137-45,187.8,3.8l0,0c50.8,48.9,59.7,137,10.8,187.8
		L2263.1,264.1z"/>
	<line class="st0" x1="2296.3" y1="229.6" x2="2097.7" y2="38"/>
	<path class="st0" d="M2296.5,50.5l22.2-17c29.5-22.5,71.6-16.9,94.2,12.5c0,0,0,0,0,0c0.2,0.3,0.5,0.7,0.7,1l545.6,664.2
		l-279.3,622.9"/>
	<circle class="st0" cx="2950.3" cy="714.5" r="30.6"/>
	<path class="st1" d="M2602.3,1264.5h149.1c42.9,0,77.6,34.7,77.6,77.6v2.2h-304.4v-2.2C2524.7,1299.3,2559.5,1264.6,2602.3,1264.5z
		"/>
</g>
<g id="COMPUTER">
	<g id="COMPUTER-2">
		<path class="st2" d="M1880,1117.2H936.1c-35.4,0-64.2-28.7-64.2-64.1l0,0V392.8c0-35.4,28.7-64.2,64.1-64.2l0,0h944
			c35.4,0,64.2,28.7,64.2,64.1v0v660.2c0.1,35.4-28.6,64.2-64,64.3H1880z"/>
		<path class="st3" d="M1880.6,1055.8H945.8c-13.9,0-25.1-11.2-25.1-25.1V399.1c0-13.9,11.2-25.1,25.1-25.1h934.8
			c13.9,0,25.1,11.2,25.1,25.1v631.5c0.1,13.8-11.1,25.1-24.9,25.2c0,0,0,0,0,0H1880.6z"/>
		<polygon class="st2" points="1607.3,1342.3 1240.9,1342.3 1312.8,1117.2 1535.3,1117.2 		"/>
	</g>
</g>
<g id="TABLE">
	<line class="st0" x1="2934.7" y1="1344.3" x2="280" y2="1344.3"/>
	<path class="st1" d="M1134.7,1361.8v1234.6H1065v-235c0-21.9-17.8-39.7-39.7-39.7H526.4c-21.9,0-39.7,17.8-39.7,39.7v235H417
		V1361.8H1134.7z"/>
	<path class="st0" d="M1065,1455.8v223.9c0,20.7-16.8,37.6-37.5,37.6c0,0,0,0,0,0H524.4c-20.7,0-37.6-16.8-37.6-37.5c0,0,0,0,0,0
		v-224c0-20.7,16.8-37.6,37.5-37.6l0,0h503.1C1048.2,1418.2,1065,1435,1065,1455.8L1065,1455.8L1065,1455.8z"/>
	<polygon class="st2" points="903.8,1886.9 656.2,1886.9 645.9,1816 893.6,1816 	"/>
	<path class="st2" d="M1035.9,1775.1c-30.9,0-55.9,25-55.9,55.8l0,0v56H769.3v-56c0-30.9,25-55.9,55.8-55.9h0L1035.9,1775.1
		L1035.9,1775.1z"/>
	<path class="st3" d="M1088.4,1816H877.7c-6.7-24.2-28.8-40.9-53.9-40.9h210.7C1059.6,1775.1,1081.7,1791.8,1088.4,1816z"/>
	<path class="st0" d="M1065,1924.5v223.9c0,20.7-16.8,37.5-37.5,37.6H524.4c-20.7,0-37.6-16.8-37.6-37.5l0,0v-224
		c0-20.7,16.8-37.6,37.5-37.6l0,0h503.1c20.7,0,37.6,16.8,37.6,37.5l0,0V1924.5z"/>
	<path class="st0" d="M672.9,1563.3c0-17.8,14.4-32.3,32.3-32.3h0h141.5c17.8,0,32.3,14.4,32.3,32.3l0,0l0,0"/>
	<path class="st0" d="M672.9,2032c0-17.8,14.4-32.3,32.3-32.3h0h141.5c17.8,0,32.3,14.4,32.3,32.3l0,0l0,0"/>
	<rect x="2754.7" y="1361.8" class="st1" width="74.3" height="1237.3"/>
	<line class="st0" x1="1566.3" y1="2599.1" x2="3116.9" y2="2599.1"/>
</g>
<g id="PLANT">
	<path class="st3" d="M628,1174.6h-44.9c0,0-64.1-267.1-120.4-275.8s-59.2,94.1-59.2,94.1s1-156.3,141.7-134.9
		S628,1174.6,628,1174.6z"/>
	<path class="st0" d="M474.2,864.8c0,0,128.3-47.4,134.1,305.8"/>
	<rect x="539.4" y="1170.6" class="st2" width="210.9" height="171.7"/>
	<path class="st3" d="M794.7,1256.5c-13.4,5.8-29.4,5.1-44.3-1.4c-11.7-5.2-22-13.3-29.8-23.5c-11.6-15-19.4-35.5-19.4-61l0,0
		c0-61.8-49.2-100.6-69.4-18.8c-1.4,5.7-2.7,11.9-3.8,18.8v-0.6l0,0c0-0.3,0-0.5,0.1-0.8v-0.4c1.1-13,3.3-25.8,6.5-38.4
		c3.4-13.5,8.5-28.5,16.1-42.4c3.7-6.9,8.2-13.4,13.4-19.4c13.4-15.4,31.8-26.2,56.9-26.2c46.2,0,80,54.4,92.9,108.6
		C825.2,1198.1,820.6,1245.2,794.7,1256.5z"/>
	<path class="st3" d="M664.2,1068.6c0,0,92.6-65.9,119.8,189.8"/>
	<path class="st3" d="M400.5,992.9c0,16.5-1.9,79.6,58.3,82.5s66.2-88,66.2-88s-29.6-80.4-62.3-88.6
		C407.4,884.9,400.5,992.9,400.5,992.9z"/>
	<path class="st4" d="M701.2,1170.6H628C644.9,1064.7,701.2,1104.5,701.2,1170.6z"/>
</g>
<g id="GIRL">
	<g id="GIRL-2">
		<g id="LEGS">
			<g id="RIGHT_LEG">
				<polygon class="st5" points="2120.6,1703.8 2120.6,2260.4 1992,2260.4 1910.1,2031.7 1792.8,1703.8 				"/>
				<path class="st2" d="M2120.6,2031.7v228.7H1992l-81.9-228.7C1910.1,2031.7,1976.4,2068.3,2120.6,2031.7z"/>
				<circle class="st2" cx="1977" cy="2070.8" r="14.6"/>
				<circle class="st2" cx="2046.6" cy="2117.9" r="14.6"/>
				<circle class="st2" cx="2098.4" cy="2065.6" r="14.6"/>
				<circle class="st2" cx="2077.9" cy="2172.7" r="14.6"/>
				<circle class="st2" cx="1991.6" cy="2146.1" r="14.6"/>
				<circle class="st2" cx="2015.4" cy="2226.1" r="14.6"/>
				<path class="st3" d="M2181.4,2364.2l-88.2,183.1c-12.5,29.5-41.4,48.7-73.5,48.7h-112.5c-28.8,0-46.3-29.2-35.3-55.8
					l113.1-272.8c6.2-16.2,17.1-30.2,31.3-40.1c14.2-9.9,31.2-15.2,48.5-15.2c24.6,0,49,16.7,65.2,35.2l39.2,42.3
					C2187.3,2310.1,2192,2339.1,2181.4,2364.2z"/>
				<path class="st3" d="M2181.4,2364.2l-88.2,183.1c-12.5,29.5-41.4,48.7-73.5,48.7h-119.6c-11.1,0-17.4-6.9-21.1-16.4h26.6
					c32.1,0,61-19.2,73.5-48.7l101.7-212.1c9.5-19.8,29.6-32.5,51.6-32.5c28.7,0,50.5,21,54.5,47.6
					C2187.3,2344.3,2185.4,2354.7,2181.4,2364.2z"/>
				<path class="st2" d="M2161.1,2280.8c-10.6-5.8-23.4-10-34.6-10c-21.6,0.1-41.3,12.4-50.7,31.9l-105.3,219.6
					c-13.4,31.7-44.5,52.3-78.9,52.2h-19.4c-1-1.9-1.8-3.9-2.4-6h21.8c32,0,60.9-19.1,73.4-48.6l0.1-0.1l105.4-219.7
					c10.4-21.5,32.2-35.2,56.1-35.3c7.6,0,16.7,2.5,24.5,5.2L2161.1,2280.8z"/>
			</g>
			<g id="LEFT_LEG">
				<path class="st5" d="M1792.8,1703.8l-25.1,327.9l-11.2,146.9c0,0-73.1,81.4-156.3,31.2l-38.5-178l-88.1-407.3
					c-23.8-110.1,51.4-217.2,163.1-232.1L1792.8,1703.8z"/>
				<path class="st2" d="M1767.7,2031.7l-11.2,150.9c0,0-73.1,81.4-156.3,31.2l-38.5-182C1658.4,2060.8,1767.7,2031.7,1767.7,2031.7
					z"/>
				<circle class="st2" cx="1652.8" cy="2107.8" r="14.6"/>
				<circle class="st2" cx="1745.6" cy="2085.4" r="14.6"/>
				<circle class="st2" cx="1596.8" cy="2065.6" r="14.6"/>
				<circle class="st2" cx="1638.2" cy="2187.3" r="14.6"/>
				<circle class="st2" cx="1706.3" cy="2158.1" r="14.6"/>
				<path class="st3" d="M1852.9,2213.6l-96.4,385.5h-30.4c-1.4,0-2.7-0.1-4.1-0.2c-23-2.1-42.4-21.5-47.3-44.4l-74.6-344.9
					c83.2,50.3,156.4-31.1,156.4-31.1L1852.9,2213.6z"/>
				<path class="st3" d="M1857.8,2411.4c20.3-107.2,25.9-189.1-9.1-195.7s-97.3,64.5-117.6,171.7s-9.7,202,25.3,208.6
					S1837.5,2518.7,1857.8,2411.4z"/>
				<path class="st2" d="M1717.1,2385.7c-10.5,55.6-13.6,109.3-8.6,151.3c3.6,30.2,11.2,51.7,21.6,62.1h-4c-1.4,0-2.7-0.1-4.1-0.2
					c-9.4-12.4-16.1-33.2-19.5-61.2c-5.1-42.5-2-96.9,8.7-153.1c10.1-53.2,30.5-103.1,57.6-140.6c16.2-22.4,33.2-38.1,48.7-45.2l9,3
					C1790.8,2212.4,1736.6,2282.8,1717.1,2385.7z"/>
			</g>
		</g>
		<g id="SKIRT">
			<path class="st6" d="M1636.7,1392.3l456.2-47l456,127.9l-3.9,60.6c-6.2,95.6-88.6,170-184.4,170h-567.7L1636.7,1392.3z"/>
			<path class="st7" d="M2522.9,1468.8c0,86.8-86.6,193-182.4,193h-567.7"/>
			<path class="st7" d="M2468.8,1451.5c-14.2,77.5-90,160.3-173,160.3h-546"/>
			<path class="st7" d="M2407.3,1433.1c-24,65.8-89.1,127.7-159.6,127.7h-526.9"/>
			<path class="st7" d="M2360,1420.2c-31.5,47.9-83.2,85.6-138.3,85.6h-526.9"/>
			<path class="st7" d="M2307.2,1405.4c-30.3,30.5-69.5,50.4-110.5,50.4h-526.9"/>
			<path class="st7" d="M2238.5,1385.5c-21.4,12.1-44.8,19.3-68.8,19.3h-526.9"/>
			<line class="st8" x1="1791.8" y1="1703.8" x2="1635.7" y2="1392.3"/>
		</g>
		<g id="HANDS">
			<g id="RIGHT_HAND">
				<path class="st9" d="M2573.9,1055.8c-43,12.2-85.3,8.6-89.8-4.5c-4.2-12.5,14.8-33.9,53.3-48.1c1.9-0.7,3.9-1.4,5.9-2.1
					c11.1-3.7,22.5-6.3,34.1-7.7c32.3-4.1,58.6,1.7,61.9,11.5C2643.8,1018,2619.4,1042.9,2573.9,1055.8z"/>
				<path class="st5" d="M2546.7,1347.4h-16.5l-43.3-292.3v-0.2l-1.1-7.3c2.1-13.3,22.9-32.1,59.6-44.3c16.8-5.6,34.3-8.7,52-9.1
					l15.8,43.3l1.5,4.1l50,137.1C2694.7,1260.6,2634,1347.4,2546.7,1347.4z"/>
			</g>
			<g id="LEFT_HAND">
				<path class="st5" d="M2011.1,1106.9l-52.5,130.6c-26,64.5-88.5,106.8-158.1,106.8h-705.7v-64.6c0-15.6,9.6-29.6,24.2-35.1
					l72.5-27.5c6.5-2.5,13.5-3.8,20.5-3.8h82.3l465.8-47l80.4-184.1L2011.1,1106.9z"/>
				<path class="st0" d="M1170.8,1256.8l-54.7,20.7c-11,4.2-18.3,14.7-18.3,26.5"/>
				<path class="st0" d="M1170.8,1289.8l-54.7,20.7c-11,4.2-18.3,14.7-18.3,26.5"/>
				<line class="st0" x1="1170.8" y1="1321.6" x2="1116.1" y2="1341.3"/>
				<path class="st2" d="M1165.1,1228.2c0,0,51.2-130.7,67.6-128.5s-45.4,120.1-45.4,120.1L1165.1,1228.2z"/>
			</g>
		</g>
		<g id="T-SHIRT">
			<path class="st2" d="M2486.9,1055.2l62,418L2093,1345.3l-81.9-238.5l-211.4-154.5l74.2-88.4c66.2-78.9,163.9-124.5,266.9-124.5
				h146.5c127.4,0,244.7,69.6,305.8,181.4l47.5,82.2c0,0-14.3-21-91.4,0.1C2481.3,1021.8,2486.9,1055.2,2486.9,1055.2z"/>
			<line class="st4" x1="2011.1" y1="1104.9" x2="2034.8" y2="1002.1"/>
			<line class="st4" x1="2537.4" y1="1375.6" x2="2460.3" y2="896.3"/>
			<line class="st4" x1="2092.9" y1="1343.4" x2="2547.9" y2="1473.2"/>
		</g>
		<g id="HEAD">
			<polygon id="NECK" class="st5" points="2117.5,672.6 2117.5,739.8 2236.1,738.8 2236.1,620.2 			"/>
			<g id="HEAD-2">
				<path class="st5" d="M2245.7,599.5v1.8c0,18-13.6,32.6-31.6,32.6h-7c-4.5,17.8-44.5,38.6-72.9,38.6h-33.1
					c-32.5,0-58.8-26.4-58.8-58.8c0-3.2,0.3-6.3,0.8-9.5l1.6-9.7l-9.8-5.5c-5.1-2.9-7-9.4-4.1-14.5c0,0,0,0,0,0
					c0.2-0.4,0.5-0.8,0.8-1.2l21.2-28l4.6-27.6c3.6-22.1,18-41,38.4-50.3c7.8,87.9,85.4,98.3,105.9,99.5h11.4
					C2231.1,567,2245.7,581.5,2245.7,599.5z"/>
				<path class="st0" d="M2193.2,608.1c0-14.2,11.5-25.7,25.7-25.7l0,0"/>
				<ellipse class="st3" cx="2084.8" cy="556" rx="5.1" ry="11.8"/>
				<path class="st0" d="M2077,519.5c0,0,14.1-1.4,28.6,18.6"/>
			</g>
			<g id="HAIR">
				<path class="st10" d="M2201.7,566.9h11.4c18,0,32.6,14.6,32.6,32.6v1.8c0,18-13.6,32.6-31.6,32.6l-7.7,5.4
					c-32.4,20.8-77.2,102.6-66.2,160.5c12.4,65.1,69.1,79.6,121.5,69.6s90.6-40.5,78.2-105.7c-1.5-7.9-3.7-15.6-6.6-23
					c0.9,0.3,1.7,0.6,2.6,0.9c63,17.2,137,19.2,157.4-30s15.8-97.9-45.5-123.3c-35.6-14.8-84-14.7-121.5-4.5
					c18.9-65.7-14.7-138.8-76.4-146.1c-96.9-11.5-152.5,28.5-154,29.6l0,0C2095.8,478.9,2103.7,561.2,2201.7,566.9z"/>
				<path class="st11" d="M2328.8,581.5c-7.9,25.7-24.2,53.2-50.7,71.9c0,0,46.8,30.9,57.8,88.3"/>
				<path class="st12" d="M2356,579.3h-26.5v-26.5c0-13.8,11.2-25.1,25-25.1h1.5c13.8,0,25.1,11.2,25.1,25v1.5
					c0,13.8-11.2,25.1-25,25.1H2356z"/>
				<path class="st12" d="M2346.3,606.5l-17-27l27-17c13.5-8.5,31.3-4.5,39.9,9l1.6,2.5c8.5,13.5,4.5,31.3-9,39.9l-2.5,1.6
					C2372.8,624.1,2354.9,620.1,2346.3,606.5z"/>
				<path class="st12" d="M2189.7,654.7l18.9-18.1l18.5,20.9c9.1,10.5,7.9,26.3-2.5,35.3c0,0,0,0,0,0l-0.1,0.1l-1.1,0.9
					c-10.5,9.1-26.3,7.9-35.3-2.5c0,0,0,0,0,0l-0.1-0.1l-0.9-1.1C2178.1,679.7,2179.2,663.9,2189.7,654.7
					C2189.7,654.8,2189.7,654.8,2189.7,654.7L2189.7,654.7z"/>
				<path class="st12" d="M2217.3,667.7l-8.5-30.7l30.7-8.5c15.4-4.3,31.3,4.7,35.6,20c0,0,0,0,0,0l0,0l0.8,2.9
					c4.3,15.3-4.7,31.3-20,35.6h-0.1l-2.9,0.8C2237.6,692.1,2221.7,683.1,2217.3,667.7z"/>
			</g>
		</g>
	</g>
	<g id="CHAIR">
		<line class="st0" x1="1944.4" y1="1780.7" x2="1770.2" y2="2596"/>
		<line class="st0" x1="2390.2" y1="1780.7" x2="2564.4" y2="2596"/>
		<line class="st0" x1="1808.8" y1="2415" x2="2523.4" y2="2415"/>
		<path class="st3" d="M2527.3,1780.7h-720.1c-9.1,0-16.5-7.4-16.5-16.5v-43.9c0-9.1,7.4-16.5,16.5-16.5h720.1
			c9.1,0,16.5,7.4,16.5,16.5v43.9C2543.8,1773.3,2536.4,1780.7,2527.3,1780.7z"/>
	</g>
</g>
</svg>
