<?xml version="1.0" encoding="utf-8"?>
<!-- Generator: Adobe Illustrator 23.1.1, SVG Export Plug-In . SVG Version: 6.00 Build 0)  -->
<svg version="1.1" id="Слой_1" xmlns="http://www.w3.org/2000/svg" xmlns:xlink="http://www.w3.org/1999/xlink" x="0px" y="0px"
	 viewBox="0 0 5000 3500" style="enable-background:new 0 0 5000 3500;" xml:space="preserve">
<style type="text/css">
	.st0{fill:#21409A;}
	.st1{fill:#FFFFFF;stroke:#000000;stroke-width:5;stroke-miterlimit:10;}
	.st2{fill:none;stroke:#000000;stroke-width:5;stroke-miterlimit:10;}
	.st3{fill:#21409A;stroke:#000000;stroke-width:5;stroke-miterlimit:10;}
	.st4{fill:#A0505A;}
	.st5{fill:none;stroke:#000000;stroke-width:6;stroke-miterlimit:10;}
	.st6{fill:#FFFFFF;}
	.st7{fill:none;stroke:#000000;stroke-width:6;stroke-linecap:round;stroke-miterlimit:10;}
	.st8{fill:#A2666F;}
	.st9{fill:none;stroke:#FFFFFF;stroke-width:5;stroke-linecap:round;stroke-miterlimit:10;}
	.st10{fill:none;stroke:#000000;stroke-width:5;stroke-linecap:round;stroke-miterlimit:10;}
	.st11{fill:#D6A5B0;}
	.st12{fill:#21409A;stroke:#000000;stroke-width:4.9998;stroke-miterlimit:9.9994;}
	.st13{fill:#21409A;stroke:#FFFFFF;stroke-width:6;stroke-miterlimit:10;}
</style>
<g id="_x35__HAND__x26__CAP">
	<g id="HAND_8_">
		<g id="DRESS_6_">
			<path class="st0" d="M4759.9,2960.1V3427h-727l141.6-717c-4.5,28.3,86.1,81.4,210.2,134.6c44.5,19.1,94.2,38.1,147.2,56
				C4617.6,2929.8,4696.4,2949.6,4759.9,2960.1C4759.8,2960.1,4759.9,2960.1,4759.9,2960.1z"/>
			<path class="st0" d="M4759.9,2819.7v125c-63.6-10.5-142.2-30.1-228.1-59.3c-202.3-68.6-358-153.4-349.2-191.5
				c0.1-0.6,0.3-1.1,0.4-1.6c13.6-37.2,192.8-11.5,397.8,58c65.9,22.4,125.4,45.4,175.3,67.7
				C4757.4,2818.5,4758.6,2819.1,4759.9,2819.7z"/>
		</g>
		<g id="DIPLOMA_1_">
			<path class="st1" d="M4660.2,1737.8c-70.9,0-128.3,55.5-128.3,123.8V2201c0,68.4-57.4,123.8-128.2,123.8h-513.8
				c70.9,0,128.2-55.5,128.2-123.8v-339.4c0-68.5,57.4-123.8,128.2-123.8L4660.2,1737.8L4660.2,1737.8z"/>
			<g>
				<rect x="4108.3" y="1913.5" class="st1" width="327.2" height="293.4"/>
				<line class="st2" x1="4435.3" y1="1955.4" x2="4108.3" y2="1955.4"/>
				<line class="st2" x1="4435.3" y1="1997.2" x2="4108.3" y2="1997.2"/>
				<line class="st2" x1="4435.3" y1="2039.3" x2="4108.3" y2="2039.3"/>
				<line class="st2" x1="4435.3" y1="2081.2" x2="4108.3" y2="2081.2"/>
				<line class="st2" x1="4435.3" y1="2123.2" x2="4108.3" y2="2123.2"/>
				<line class="st2" x1="4435.3" y1="2165.1" x2="4108.3" y2="2165.1"/>
			</g>
			<path class="st3" d="M4531.9,1861.7c0-68.1,56.8-123.3,127-123.8c70.3,0.6,127,55.8,127,123.8H4531.9z"/>
			<path class="st0" d="M4404.3,2328c-0.1,0-0.4,0-0.6,0h-511.9c-0.3,0-0.6,0-0.9,0c-52.6-0.7-97.6-32.1-116.6-76.6h513
				C4306.4,2295.9,4351.4,2327.3,4404.3,2328z"/>
			<g>
				<g>
					<path class="st0" d="M4129.7,1879.8h-59.2v-45.9h27.8v25.5c0,0.6,0.3,1,0.6,1.1l0.1,0.1L4129.7,1879.8z"/>
				</g>
				<g>
					<path class="st0" d="M4152.6,1849.8v6.1c0,1.1-0.1,2.3-0.1,3.4c0,0.3-0.1,0.7-0.1,1c-0.1,0.6-0.1,1.1-0.3,1.7
						c-1.6,7.8-6.4,14.2-12.5,16.6c-0.4,0.1-0.9,0.3-1.3,0.4c-0.7,0.3-1.6,0.4-2.3,0.6c-0.3,0-0.6,0.1-0.9,0.1l-33.5-21.1
						c0.3-5,3.5-8.9,7.3-8.9h43.8L4152.6,1849.8L4152.6,1849.8z"/>
				</g>
				<g>
					<path class="st0" d="M4479.4,1833.9v45.9h-59.2l30.5-19.1l0.1-0.1l0,0c0.1-0.1,0.1-0.1,0.3-0.1c0-0.1,0.1-0.1,0.1-0.3
						c0,0,0-0.1,0.1-0.1c0-0.1,0-0.1,0.1-0.1l0,0c0,0,0,0,0-0.1s0-0.1,0-0.3v-25.5L4479.4,1833.9L4479.4,1833.9z"/>
				</g>
				<g>
					<path class="st0" d="M4448.7,1858.7l-33.5,21.1c-0.9-0.1-1.8-0.3-2.6-0.4c-0.3-0.1-0.6-0.1-0.9-0.3c-0.4-0.1-0.7-0.3-1.2-0.4
						c-0.3-0.1-0.7-0.3-1-0.4c-4.5-2.4-8.3-7.1-10.3-12.9c-0.3-0.8-0.6-1.7-0.7-2.5c-0.1-0.3-0.1-0.7-0.3-1.1
						c-0.3-1.8-0.6-3.7-0.6-5.7v-6.1h43.9C4445.2,1849.8,4448.4,1853.7,4448.7,1858.7z"/>
				</g>
				<g>
					<path class="st0" d="M4448.7,1810.7v39.9c-0.3-0.3-0.6-0.7-0.9-1c-0.6-0.6-1.2-1-1.8-1.4c-1.5-0.8-3.1-1.4-4.7-1.4h-332.6
						c-1.8,0-3.4,0.6-4.7,1.4c-0.6,0.4-1.2,0.8-1.8,1.4c-0.3,0.3-0.6,0.6-0.9,1v-39.9c0-5.4,3.2-9.6,7.3-9.6h332.6
						C4445.3,1801.1,4448.7,1805.5,4448.7,1810.7z"/>
				</g>
			</g>
		</g>
		<g id="HAND_9_">
			<path class="st4" d="M4759.9,2389.8v554.8h-0.1c-63.6-10.5-142.2-30.1-228.1-59.3c-53-18-102.7-37.1-147.2-56l23.9-128.8
				l40.6-218.7C4321.7,2443.3,4301,2325,4301,2325h102.4c70.9,0,128.2-55.5,128.2-123.8v-40.8h-65.8c-46.1,0-83.6-43.9-83.6-88.5
				v-14.4h146.2c27.1,0,52.6,12.3,68.8,33.3l106.9,138C4740.4,2275.2,4759.9,2331.7,4759.9,2389.8z"/>
			<path class="st4" d="M4538.3,2160.4h-70.6c-46.1,0-83.6-43.9-83.6-88.5v-14.4h154.2V2160.4z"/>
			<path class="st2" d="M4493.9,2298.3c0,0,101.8,36.9,111,163.9"/>
			<line class="st2" x1="4449.3" y1="2484.8" x2="4518.5" y2="2484.8"/>
		</g>
	</g>
	<g id="CAP_6_">
		<path class="st5" d="M4384.7,898l46.4-29.7c60.5-38.6,141.5-0.4,147.2,69.3l10.1,123.6c5.6,67.8,82.8,106.4,143.3,71.8l29.3-16.8"
			/>
		<polygon class="st0" points="3709.9,439 4306.4,773.6 4606.9,1425.3 4262.2,1201 3887.7,777 		"/>
		<polyline class="st5" points="3711.5,416.5 4320.7,758.3 4627.5,1423.8 		"/>
		
			<ellipse transform="matrix(0.7518 -0.6593 0.6593 0.7518 351.2368 2928.1489)" class="st6" cx="4065.6" cy="997.5" rx="65.1" ry="289.4"/>
		
			<ellipse transform="matrix(0.7518 -0.6593 0.6593 0.7518 340.5294 2922.1516)" class="st1" cx="4052.3" cy="1008.7" rx="63.8" ry="283.8"/>
		<path class="st0" d="M4311.7,1169.6l-56.8,46.3c10.5-8.6,8.2-30.4-4.5-60.9c-20.9-50.1-70-123.3-135.3-198.3
			c-65.5-74.9-132-133.9-179.6-162.2c-28.9-17.3-50.8-23.2-61.4-14.6l56.8-46.3c27.8-22.8,140.6,51.7,245.8,172.1
			S4339.7,1147,4311.7,1169.6z"/>
		<path class="st0" d="M4918.9,992.5c16.1-7.5,31.8-14.2,46.9-19.7c8.9,9.1,16.7,19.7,22.7,31.6c6,11.9,9.8,24.3,11.6,36.7
			c-13.9,7.9-29,15.9-45,23.4c-80.1,37.5-153.1,51.8-163,32C4781.9,1076.5,4838.7,1030,4918.9,992.5z"/>
		<ellipse class="st5" cx="4777.4" cy="1106.2" rx="17.7" ry="17.1"/>
	</g>
</g>
<g id="_x34__HAND__x26__CAP">
	<g id="DRESS_5_">
		<path class="st0" d="M3731.4,2827.7V3427h-706.4l90.5-650.7c0,26.3,137.8,59.2,307.9,73.3
			C3593.4,2863.8,3731.4,2854.1,3731.4,2827.7z"/>
		<path class="st0" d="M3728.2,2812.3c0,26.3-136.7,36.1-305.1,21.8S3118,2787,3118,2760.8l0,0c0-26.3,136.7-36.1,305.1-21.8
			C3591.7,2753.1,3728.2,2786,3728.2,2812.3z"/>
	</g>
	<g id="CAP_5_">
		<path class="st5" d="M3826.2,1483.9l42.8,26.7c42.8,32-16.4,174.9-132.1,319c-115.7,144.2-244.2,235.1-286.9,203.1l-21.1-19.2"/>
		<polygon class="st0" points="3232.2,2155.3 3717.8,1725.9 3887.5,1226.5 3369.3,1681.5 		"/>
		<polyline class="st7" points="3207.5,2207.4 3735.9,1740.1 3908.3,1232.7 		"/>
		<path class="st5" d="M3486.9,1724.5l-461.1,426.1c-22.4,20.7-59,1.1-52.7-28.3l12.9-60.4c5.9-27.3-26.2-47.3-49.5-30.9
			l-152.3,107.1"/>
		<path class="st0" d="M2660.1,2290.8c-13.6,11-27.2,21.2-40.4,30.1c-11-6.7-21.1-15-30-25.2c-8.8-10.2-15.7-21.2-20.5-32.8
			c11.4-11,24-22.2,37.6-33.4c68.1-55.3,135.2-86.6,150-69.6C2771.4,2176.8,2728.2,2235.4,2660.1,2290.8z"/>
		<ellipse class="st5" cx="2769.9" cy="2148.5" rx="17.7" ry="17.1"/>
	</g>
	<g id="HAND_7_">
		<path class="st8" d="M3508.7,2376.7v462.8c-27.1-1.1-56-2.8-85.7-5.4c-109.7-9.2-205.8-26.5-259.6-44.6l8.1-51.2l27-172h-34.9
			c-49.7,0-89.8-38.8-89.8-86.8v-170.4c0-33.7,12.6-66.1,35.6-91.4l114.7-126.7c7.5-8.2,21.5-3.1,21.5,7.8v172.2
			c0,20.7-7.6,40.6-21.5,56.3l-10.3,11.6h124.5c18,0,28.6-19.4,18.5-33.8c-15.4-21.7-35.6-52.5-54.8-88.2
			c-38.2-70.6,28.1-110.1,28.1-110.1l151.9,190.4C3499.4,2320.4,3508.7,2348.2,3508.7,2376.7z"/>
		<path class="st9" d="M3245.7,2089.7v181.4c0,20.7-7.6,40.6-21.5,56.3l-10.3,11.6"/>
		<g>
			<line class="st10" x1="3213.9" y1="2338.9" x2="3131.6" y2="2428.2"/>
			<path class="st10" d="M3245.7,2192.3c0,20.7-7.6,40.6-21.5,56.3l-10.3,11.6l-82.2,89.2"/>
			<path class="st10" d="M3245.7,2113.6c0,20.7-7.6,40.6-21.5,56.3l-10.3,11.6l-82.2,89.2"/>
			<line class="st10" x1="3198.5" y1="2571" x2="3261.6" y2="2571"/>
		</g>
	</g>
</g>
<g id="_x33__HAND__x26__CAP">
	<g id="HAND_4_">
		<g id="DRESS_4_">
			<path class="st0" d="M2799.8,3427h-816.9v-782.5c0,33.4,134.3,60.4,300.1,60.4s300.1-27,300.1-60.4v-0.1L2799.8,3427z"/>
			<path class="st0" d="M2581,2628.9L2581,2628.9c0,33.5-132.9,60.6-296.9,60.6c-164.1,0-296.9-27-296.9-60.4v-0.1
				c0.4-33.3,133.1-60.3,296.9-60.3S2580.7,2595.6,2581,2628.9z"/>
		</g>
		<g id="HAND_6_">
			<path id="HAND_5_" class="st8" d="M2581,2629.5c-1,33.1-133.6,60-296.9,60c-31.5,0-61.7-1-90.1-2.8v-291.1h-155
				c-19.8,0-35.7-15.4-35.7-34.5v-23.4c0-10.5,4.8-19.8,12.5-26.2c-7.6-6.4-12.5-15.7-12.5-26.2v-23.4c0-9.2,3.8-17.7,10-23.8
				c-6.2-6.2-10-14.6-10-23.8V2191c0-9.5,4-18.1,10.4-24.5c-6.4-6.2-10.4-14.9-10.4-24.3v-42.3c0-19.1,16-34.5,35.7-34.5h197.9
				c6.6-3.7,17.3-16.7-0.9-24.3l-42.5-9.6c-33.7-16.3-55.1-43.3-55.1-79.8h149.4c25,0,47.5,15.3,56,38.1l233.5,629.8L2581,2629.5z"
				/>
			<path class="st8" d="M2581.7,2629.7c-0.4-0.4-0.7-0.7-0.7-0.7c0,33.4-132.9,60.4-296.9,60.4c-31.5,0-61.7-1-90.1-2.8v-115.1
				c28.4-1.8,58.7-2.8,90.1-2.8c147.9,0,270.7,22.1,293.2,50.8l0,0C2577.9,2620.3,2579.5,2624.1,2581.7,2629.7z"/>
		</g>
		<g id="WINEGLASS">
			<path class="st6" d="M2240.3,1671.9v114.8c0,62.4-52.3,112.9-116.9,112.9s-116.9-50.5-116.9-112.9v-114.8
				c0,28,52.3,50.7,116.9,50.7C2188,1722.5,2240.3,1699.9,2240.3,1671.9z"/>
			<ellipse class="st0" cx="2123.4" cy="1671.9" rx="116.9" ry="50.7"/>
			<path class="st5" d="M2240.3,1475.7v310.8c0,41.9-23.6,78.4-58.6,97.9c0,0,0,0-0.1,0c-17.1,9.5-37.1,15-58.2,15
				s-40.9-5.4-58-14.9c-0.1,0-0.1-0.1-0.3-0.1c-35-19.5-58.6-56-58.6-97.9v-310.8H2240.3z"/>
			<ellipse class="st1" cx="2123.4" cy="1475.7" rx="118.2" ry="50.7"/>
			<path class="st1" d="M2235.7,2474.8h-224.7c-4.1,0-5.3-5.2-1.8-7.1l78.5-28.7c12.3-4.5,20.5-16,20.5-28.7v-452.3
				c0-30-16.1-58.2-42.9-73.3c17.1,9.5,36.9,14.9,58,14.9c21.2,0,41-5.5,58.2-15c-27,15-43.1,43.3-43.1,73.3v452.3
				c0,12.7,8.2,24.2,20.5,28.7l78.5,28.7C2241,2469.5,2239.8,2474.8,2235.7,2474.8z"/>
		</g>
		<g id="FINGERS_1_">
			<path class="st8" d="M2274,2110.8v284.9H2039c-19.8,0-35.7-15.4-35.7-34.5v-23.4c0-10.5,4.8-19.8,12.5-26.2
				c-7.6-6.4-12.5-15.7-12.5-26.2V2262c0-9.2,3.8-17.7,10-23.8c-6.2-6.2-10-14.6-10-23.8v-23.4c0-9.5,4-18.1,10.4-24.5
				c-6.4-6.2-10.4-14.9-10.4-24.3v-31.4L2274,2110.8L2274,2110.8z"/>
			<g>
				<path class="st10" d="M2007.4,2283.4c0,21.7,18.2,39.2,40.6,39.2h190.1c22.4,0,40.6-17.5,40.6-39.2"/>
				<path class="st10" d="M2007.4,2212.8c0,21.7,18.2,39.2,40.6,39.2h190.1c22.4,0,40.6-17.5,40.6-39.2"/>
				<path class="st10" d="M2007.4,2142.2c0,21.7,18.2,39.2,40.6,39.2h190.1c22.4,0,40.6-17.5,40.6-39.2"/>
				<path class="st10" d="M2046.1,2393.2h192c22.4,0,40.6-17.5,40.6-39.2v-264.8"/>
				<path class="st10" d="M2099.1,2088.1h-19.5c-6.4,0-11.7,5.1-11.7,11.3l0,0c0,6.2,5.3,11.3,11.7,11.3h109
					c11.7,0,21.4-9.2,21.4-20.7l0,0c0-13.6,11.4-24.6,25.5-24.6h17.7c14.1,0,25.5,11,25.5,24.6v45.9"/>
			</g>
		</g>
	</g>
	<g id="CAP_4_">
		<polygon class="st0" points="3429.1,629.5 2941.5,1112.7 2379.3,513.9 2992.9,96.7 		"/>
		<polyline class="st5" points="2922.4,1135.9 2332.6,511.2 2979.4,73 		"/>
		<path class="st5" d="M2931.9,604.6l36.8-5.2c60.5-8.6,116.6,31.8,125.5,90.2l32.1,211.2c10.8,71.2,89.9,111.9,157.2,80.8
			l153.4-70.9"/>
		<path class="st0" d="M3632.4,951.1c15.7,8.2,30.5,16.7,43.9,25.2c-2.3,12.3-6.7,24.5-13.2,36.2c-6.4,11.6-14.6,21.9-24,30.6
			c-14.8-6.2-30.3-13.4-46-21.7c-78.4-40.9-133-89.7-122.2-109.1C3481.8,892.9,3554,910.2,3632.4,951.1z"/>
		<ellipse class="st5" cx="3454.3" cy="906.6" rx="17.7" ry="17.1"/>
	</g>
</g>
<g id="_x32__HAND__x26__CAP">
	<g id="HAND_2_">
		<g id="DRESS_3_">
			<path class="st0" d="M1711.5,2896.8V3427h-634.1v-312.4c13.8,34.8,175.2,12.6,347.4-51.1
				C1579.8,3006.2,1699.5,2935.7,1711.5,2896.8z"/>
			<path class="st0" d="M1711.5,2881.4c-12.2,38.9-131.7,109.4-286.8,166.7c-172.1,63.7-333.5,85.9-347.4,51.1
				c-13.9-34.8,125.2-113.6,297.5-177.3c172.1-63.7,323-87,336.7-52.2C1713,2873.2,1713,2877.1,1711.5,2881.4z"/>
		</g>
		<g id="HAND_3_">
			<path class="st11" d="M1577.2,2529.8V2979l0,0l-35,17.1c-35.4,16.7-75.1,33.3-117.3,48.8c-77.5,28.7-152.9,49-213.6,59.4
				l34.9-132.3l56.8-216c-27,0-52.4-11.6-69.6-31.7L1000.1,2468c40-35.2,99.7,12.7,99.7,12.7l-22.4-110.5
				c-5.3-26.2,2.6-53.4,21.2-73l70.9-75.2c14.1-14.9,39.4-9.1,45.3,10.2l50.4,168c0,0,125.1,92.3,148.5,92.3
				c26.5,0,35.7-20.8-13.8-89.2c-37.2-51.4,0-88.9,0-88.9l121.1,98.5C1556.7,2442.1,1577.2,2484.8,1577.2,2529.8z"/>
			<g>
				<path class="st2" d="M1310.2,2503.6l-88.6-68.5l-48.5-161.6c-5.6-18.5-29.1-24.1-42.6-9.8"/>
				<path class="st2" d="M1252.2,2533.8l-77-60.6l-45.8-153c-5.3-17.5-28.4-22.8-41.2-9.2"/>
				<line class="st2" x1="1184.1" y1="2549.2" x2="1099.7" y2="2480.8"/>
				<line class="st2" x1="1303" y1="2756.1" x2="1401.6" y2="2756.1"/>
			</g>
		</g>
	</g>
	<g id="CAP_3_">
		<path class="st5" d="M1477.9,1367.9l44.5,94.4c4.2,35-21.5,66.5-57.7,70.8l0,0c-36.2,4.1-62,35.8-57.7,70.8l6.4,52.4"/>
		<polygon class="st0" points="1993.2,1064.6 2227.8,710.8 1420.8,704.5 1156.4,1384.7 1592.9,1364.9 		"/>
		<polyline class="st5" points="2237.5,684.2 1393.7,675 1113.5,1388.8 		"/>
		<path class="st1" d="M1978.7,1011.5c46.9,77.7-32.8,207.1-178.1,288.9c-145.3,81.8-301,85.1-347.9,7.4
			c-6.4-10.6-10.4-22.1-12.3-34.4c-11.7-77.7,64.9-183.8,190.4-254.5s258.8-82.8,323-34.7C1963.9,991.8,1972.2,1000.9,1978.7,1011.5
			z"/>
		<path class="st1" d="M1941.5,949.8l37.2,61.7c-6.4-10.6-14.8-19.7-24.9-27.3c-64.2-48.1-197.4-35.9-323,34.7
			s-202,176.8-190.4,254.5c1.8,12.3,5.9,23.8,12.3,34.4l-37.2-61.7c-46.9-77.7,32.8-207.1,178.1-288.9
			C1738.8,875.5,1894.6,872.1,1941.5,949.8z"/>
		<path class="st0" d="M1400.8,1846.9c-5.7,16.3-11.9,31.8-18.3,46.1c-13-0.1-26.2-2.3-39.1-6.5c-13-4.2-24.8-10.2-35.3-17.7
			c3.8-15.1,8.5-31.1,14.2-47.4c28.4-81.5,68.8-141.8,90.5-134.9C1434.5,1693.7,1429.1,1765.4,1400.8,1846.9z"/>
		<ellipse class="st5" cx="1415.8" cy="1669.8" rx="17.7" ry="17.1"/>
	</g>
</g>
<g id="_x31__HAND__x26__CAP">
	<g id="HAND">
		<g id="DRESS_2_">
			<path class="st0" d="M659.5,2847.7V3427H1v-852.6c12.9,41.8,150.7,128.8,321.8,201.5C504.9,2853.6,655.7,2885.6,659.5,2847.7z"/>
			<path class="st0" d="M659.5,2832.3c-4,37.9-154.7,5.8-336.7-71.8C151.7,2687.6,13.9,2600.6,1,2559c-0.9-2.7-1.2-5.2-0.9-7.5
				c3.8-37.9,154.7-5.8,336.7,71.8C518.9,2700.8,663.5,2794.3,659.5,2832.3z"/>
		</g>
		<g id="HAND_1_">
			<path class="st4" d="M269.8,2001.4c15.7-31.1,48.3-50.9,84.2-50.9h103.6l5.4,402.2l72.2,369.7l23,117.5
				c-60.9-13-144.1-40.3-235.2-79.1c-51.6-21.9-116.2-54.5-159.2-77.4v-489.4c0-6.7,1.3-13.3,3.7-19.5L269.8,2001.4z"/>
		</g>
		<g id="DIPLOMA">
			<g>
				<path class="st1" d="M943.7,1498.2l-550.9,979.4c-20.4,36.2-76.5,44.9-125.2,19.2c-48.8-25.6-71.8-75.7-51.4-112.1L767,1405.4
					L943.7,1498.2z"/>
				
					<ellipse transform="matrix(0.4308 -0.9024 0.9024 0.4308 -823.6088 1598.2712)" class="st12" cx="855.2" cy="1452.1" rx="75.3" ry="99.8"/>
			</g>
			<path class="st0" d="M583.8,1873.1l260.3-205.4l-4.1,73l83.3,20.1l-189.8,113.2c51-8.5,112.3-15.4,162.9-11.6
				c60.2,4.5,40,72.6,17.4,130.8c52.7-5,229.5-108.4,296.2-88.9c40.7,11.9,26.1,92.1,14.4,136.4c17,0.8,103-0.1,103-0.1l-45.4,40.1
				l24.9,40.1c-96.7,4.1-97.8-10.6-85.7-76.8c2.1-72-80.6-2.8-256.5,37.8c-87.2,20.1-75.9-34.7-54.3-91.7
				c-8.6-26.2-73.2-54.6-280.8-2.3L583.8,1873.1z"/>
			<ellipse class="st1" cx="587.6" cy="1923.9" rx="76.9" ry="74.3"/>
		</g>
		<g id="FINGERS">
			<path class="st4" d="M561.1,1950.4v4.7c0,47.6-39.8,86.2-89.2,86.2h-93.6v-90.9L561.1,1950.4L561.1,1950.4z"/>
			<g>
				<path class="st4" d="M675.1,2124.9l-24.8,56l-28.9,65.5l-15.7,35.5l-23.9,54.2c-0.6,1.4-1.5,3-2.2,4.2c0,0.1-0.1,0.1-0.1,0.3
					c-7.6,12.7-22.4,20.7-38.7,20.7H351.2c-23,0-38.7-21.1-30.2-40.5l13.8-31.3l30.3-68.8l26.1-59.3l23-52.1
					c6.7-15.3,23-25.3,41.2-25.3H645C667.9,2084.4,683.6,2105.5,675.1,2124.9z"/>
				<g>
					<path class="st10" d="M399.1,2161.8c7.9-8.5,19.3-13.6,31.6-13.6h181.2c19,0,32.8,15.9,30.9,32.7"/>
					<path class="st10" d="M374.5,2221.1c7.8-7.5,18.5-11.9,30-11.9h181.2c20.8,0,35.2,18.7,29.9,37.1"/>
					<path class="st10" d="M346.1,2289.8c7.8-7.1,18.2-11.2,29.3-11.2h181.2c21.4,0,36.2,20.1,29.3,39.1l0,0"/>
				</g>
			</g>
		</g>
	</g>
	<g id="CAP_2_">
		<path class="st0" d="M1001.3,478.8c12.2-12.6,24.3-24.3,36.3-34.8c11.7,5.2,22.8,12.5,33,21.5c10,9.1,18.3,19.2,24.6,30.1
			c-10,12.3-21.1,24.9-33.2,37.5c-60.6,63-123.2,101.9-140,86.9C905.2,605,940.6,541.8,1001.3,478.8z"/>
		<path class="st1" d="M575.6,977.5l-19.3,11.6c-70.2,42-206.8-48.4-305.1-202c-98.4-153.6-121.3-311.9-51.3-354l19.9-11.9
			l118.5,336.8L575.6,977.5z"/>
		<polygon class="st13" points="771.9,1159.1 575.6,977.5 338.2,758 219.7,421.3 113.8,120.3 607,504.3 		"/>
		<polyline class="st5" points="787.3,1141.1 623.5,487.4 124.2,107.4 		"/>
		<path class="st5" d="M511.3,696.2c-12.6-50.4,19.5-101.2,71.6-113.4l0,0c49.5-11.6,99.7,15.7,115.3,62.4l41.2,128.4
			c22.7,71,128.6,65.5,143.4-7.5l23.7-117.9"/>
		<ellipse class="st5" cx="912.1" cy="634.3" rx="17.7" ry="17.1"/>
	</g>
</g>
</svg>
